solid CATIA STL
  facet normal -1.000000e+000  0.000000e+000  0.000000e+000
    outer loop
      vertex  3.600000e+001 -9.500000e+000  1.800000e+000
      vertex  3.600000e+001 -9.500000e+000  5.590170e-001
      vertex  3.600000e+001 -9.800224e+000  7.229035e-001
    endloop
  endfacet
  facet normal -1.000000e+000  0.000000e+000  0.000000e+000
    outer loop
      vertex  3.600000e+001 -9.500000e+000  1.800000e+000
      vertex  3.600000e+001 -9.800224e+000  7.229035e-001
      vertex  3.600000e+001 -1.014200e+001  7.364348e-001
    endloop
  endfacet
  facet normal -1.000000e+000  -0.000000e+000  0.000000e+000
    outer loop
      vertex  3.600000e+001 -9.500000e+000  1.800000e+000
      vertex  3.600000e+001 -1.014200e+001  7.364348e-001
      vertex  3.600000e+001 -1.045424e+001  5.967965e-001
    endloop
  endfacet
  facet normal -1.000000e+000  -0.000000e+000  0.000000e+000
    outer loop
      vertex  3.600000e+001 -1.170000e+001  1.800000e+000
      vertex  3.600000e+001 -9.500000e+000  1.800000e+000
      vertex  3.600000e+001 -1.045424e+001  5.967965e-001
    endloop
  endfacet
  facet normal -1.000000e+000  -0.000000e+000  0.000000e+000
    outer loop
      vertex  3.600000e+001 -1.170000e+001  1.800000e+000
      vertex  3.600000e+001 -1.045424e+001  5.967965e-001
      vertex  3.600000e+001 -1.067200e+001  3.330315e-001
    endloop
  endfacet
  facet normal -1.000000e+000  -0.000000e+000  0.000000e+000
    outer loop
      vertex  3.600000e+001 -1.170000e+001  1.800000e+000
      vertex  3.600000e+001 -1.067200e+001  3.330315e-001
      vertex  3.600000e+001 -1.075000e+001  0.000000e+000
    endloop
  endfacet
  facet normal -1.000000e+000  -0.000000e+000  0.000000e+000
    outer loop
      vertex  3.600000e+001 -1.170000e+001  1.800000e+000
      vertex  3.600000e+001 -1.075000e+001  0.000000e+000
      vertex  3.600000e+001 -1.170000e+001 -1.800000e+000
    endloop
  endfacet
  facet normal -1.000000e+000  0.000000e+000  0.000000e+000
    outer loop
      vertex  3.600000e+001 -9.500000e+000 -1.800000e+000
      vertex  3.600000e+001 -1.045424e+001 -5.967965e-001
      vertex  3.600000e+001 -1.014200e+001 -7.364348e-001
    endloop
  endfacet
  facet normal -1.000000e+000  0.000000e+000  0.000000e+000
    outer loop
      vertex  3.600000e+001 -9.500000e+000 -1.800000e+000
      vertex  3.600000e+001 -1.014200e+001 -7.364348e-001
      vertex  3.600000e+001 -9.800224e+000 -7.229035e-001
    endloop
  endfacet
  facet normal -1.000000e+000  0.000000e+000  0.000000e+000
    outer loop
      vertex  3.600000e+001 -9.500000e+000 -1.800000e+000
      vertex  3.600000e+001 -9.800224e+000 -7.229035e-001
      vertex  3.600000e+001 -9.500000e+000 -5.590170e-001
    endloop
  endfacet
  facet normal -1.000000e+000  0.000000e+000  -0.000000e+000
    outer loop
      vertex  3.600000e+001 -1.170000e+001 -1.800000e+000
      vertex  3.600000e+001 -1.075000e+001  0.000000e+000
      vertex  3.600000e+001 -1.067200e+001 -3.330315e-001
    endloop
  endfacet
  facet normal -1.000000e+000  0.000000e+000  -0.000000e+000
    outer loop
      vertex  3.600000e+001 -1.170000e+001 -1.800000e+000
      vertex  3.600000e+001 -1.067200e+001 -3.330315e-001
      vertex  3.600000e+001 -1.045424e+001 -5.967965e-001
    endloop
  endfacet
  facet normal -1.000000e+000  0.000000e+000  -0.000000e+000
    outer loop
      vertex  3.600000e+001 -1.170000e+001 -1.800000e+000
      vertex  3.600000e+001 -1.045424e+001 -5.967965e-001
      vertex  3.600000e+001 -9.500000e+000 -1.800000e+000
    endloop
  endfacet
  facet normal -1.000000e+000  0.000000e+000  0.000000e+000
    outer loop
      vertex  3.600000e+001 -5.300000e+000  1.800000e+000
      vertex  3.600000e+001 -9.250000e+000  9.184851e-017
      vertex  3.600000e+001 -9.315347e+000  3.061862e-001
    endloop
  endfacet
  facet normal -9.999999e-001  0.000000e+000  0.000000e+000
    outer loop
      vertex  3.600000e+001 -5.300000e+000  1.800000e+000
      vertex  3.600000e+001 -9.315347e+000  3.061862e-001
      vertex  3.600000e+001 -9.500000e+000  5.590170e-001
    endloop
  endfacet
  facet normal -1.000000e+000  0.000000e+000  0.000000e+000
    outer loop
      vertex  3.600000e+001 -5.300000e+000  1.800000e+000
      vertex  3.600000e+001 -9.500000e+000  5.590170e-001
      vertex  3.600000e+001 -9.500000e+000  1.800000e+000
    endloop
  endfacet
  facet normal -1.000000e+000  0.000000e+000  0.000000e+000
    outer loop
      vertex  3.600000e+001 -9.500000e+000 -1.800000e+000
      vertex  3.600000e+001 -9.500000e+000 -5.590170e-001
      vertex  3.600000e+001 -5.300000e+000 -1.800000e+000
    endloop
  endfacet
  facet normal -1.000000e+000  0.000000e+000  0.000000e+000
    outer loop
      vertex  3.600000e+001 -5.300000e+000 -1.800000e+000
      vertex  3.600000e+001 -9.500000e+000 -5.590170e-001
      vertex  3.600000e+001 -9.315347e+000 -3.061862e-001
    endloop
  endfacet
  facet normal -1.000000e+000  0.000000e+000  0.000000e+000
    outer loop
      vertex  3.600000e+001 -5.300000e+000 -1.800000e+000
      vertex  3.600000e+001 -9.315347e+000 -3.061862e-001
      vertex  3.600000e+001 -5.300000e+000  1.800000e+000
    endloop
  endfacet
  facet normal -1.000000e+000  0.000000e+000  0.000000e+000
    outer loop
      vertex  3.600000e+001 -5.300000e+000  1.800000e+000
      vertex  3.600000e+001 -9.315347e+000 -3.061862e-001
      vertex  3.600000e+001 -9.250000e+000  9.184851e-017
    endloop
  endfacet
  facet normal -1.000000e+000  -0.000000e+000  0.000000e+000
    outer loop
      vertex  3.600000e+001  9.500000e+000  1.800000e+000
      vertex  3.600000e+001  9.500000e+000  5.590170e-001
      vertex  3.600000e+001  9.315347e+000  3.061862e-001
    endloop
  endfacet
  facet normal -1.000000e+000  -0.000000e+000  0.000000e+000
    outer loop
      vertex  3.600000e+001  9.500000e+000  1.800000e+000
      vertex  3.600000e+001  9.315347e+000  3.061862e-001
      vertex  3.600000e+001  9.250000e+000 -1.836970e-016
    endloop
  endfacet
  facet normal -1.000000e+000  -0.000000e+000  0.000000e+000
    outer loop
      vertex  3.600000e+001  9.500000e+000  1.800000e+000
      vertex  3.600000e+001  9.250000e+000 -1.836970e-016
      vertex  3.600000e+001  5.300000e+000 -1.800000e+000
    endloop
  endfacet
  facet normal -9.999999e-001  0.000000e+000  0.000000e+000
    outer loop
      vertex  3.600000e+001  9.500000e+000  1.800000e+000
      vertex  3.600000e+001  5.300000e+000 -1.800000e+000
      vertex  3.600000e+001  5.300000e+000  1.800000e+000
    endloop
  endfacet
  facet normal -9.999999e-001  0.000000e+000  -0.000000e+000
    outer loop
      vertex  3.600000e+001  5.300000e+000 -1.800000e+000
      vertex  3.600000e+001  9.250000e+000 -1.836970e-016
      vertex  3.600000e+001  9.500000e+000 -1.800000e+000
    endloop
  endfacet
  facet normal -1.000000e+000  0.000000e+000  0.000000e+000
    outer loop
      vertex  3.600000e+001  9.500000e+000 -1.800000e+000
      vertex  3.600000e+001  9.250000e+000 -1.836970e-016
      vertex  3.600000e+001  9.315347e+000 -3.061862e-001
    endloop
  endfacet
  facet normal -9.999999e-001  0.000000e+000  0.000000e+000
    outer loop
      vertex  3.600000e+001  9.500000e+000 -1.800000e+000
      vertex  3.600000e+001  9.315347e+000 -3.061862e-001
      vertex  3.600000e+001  9.500000e+000 -5.590170e-001
    endloop
  endfacet
  facet normal -1.000000e+000  -0.000000e+000  0.000000e+000
    outer loop
      vertex  3.600000e+001  9.500000e+000  1.800000e+000
      vertex  3.600000e+001  9.800224e+000  7.229035e-001
      vertex  3.600000e+001  9.500000e+000  5.590170e-001
    endloop
  endfacet
  facet normal -1.000000e+000  0.000000e+000  0.000000e+000
    outer loop
      vertex  3.600000e+001  9.500000e+000 -1.800000e+000
      vertex  3.600000e+001  9.500000e+000 -5.590170e-001
      vertex  3.600000e+001  9.800224e+000 -7.229035e-001
    endloop
  endfacet
  facet normal -1.000000e+000  0.000000e+000  0.000000e+000
    outer loop
      vertex  3.600000e+001  1.170000e+001 -1.800000e+000
      vertex  3.600000e+001  9.500000e+000 -1.800000e+000
      vertex  3.600000e+001  9.800224e+000 -7.229035e-001
    endloop
  endfacet
  facet normal -1.000000e+000  0.000000e+000  0.000000e+000
    outer loop
      vertex  3.600000e+001  1.170000e+001 -1.800000e+000
      vertex  3.600000e+001  9.800224e+000 -7.229035e-001
      vertex  3.600000e+001  1.014200e+001 -7.364348e-001
    endloop
  endfacet
  facet normal -1.000000e+000  0.000000e+000  0.000000e+000
    outer loop
      vertex  3.600000e+001  1.170000e+001 -1.800000e+000
      vertex  3.600000e+001  1.014200e+001 -7.364348e-001
      vertex  3.600000e+001  1.045424e+001 -5.967965e-001
    endloop
  endfacet
  facet normal -1.000000e+000  0.000000e+000  0.000000e+000
    outer loop
      vertex  3.600000e+001  1.170000e+001 -1.800000e+000
      vertex  3.600000e+001  1.045424e+001 -5.967965e-001
      vertex  3.600000e+001  1.067200e+001 -3.330315e-001
    endloop
  endfacet
  facet normal -1.000000e+000  0.000000e+000  0.000000e+000
    outer loop
      vertex  3.600000e+001  1.170000e+001 -1.800000e+000
      vertex  3.600000e+001  1.067200e+001 -3.330315e-001
      vertex  3.600000e+001  1.075000e+001  9.184851e-017
    endloop
  endfacet
  facet normal -1.000000e+000  0.000000e+000  0.000000e+000
    outer loop
      vertex  3.600000e+001  1.170000e+001 -1.800000e+000
      vertex  3.600000e+001  1.075000e+001  9.184851e-017
      vertex  3.600000e+001  1.170000e+001  1.800000e+000
    endloop
  endfacet
  facet normal -1.000000e+000  0.000000e+000  0.000000e+000
    outer loop
      vertex  3.600000e+001  1.170000e+001  1.800000e+000
      vertex  3.600000e+001  1.075000e+001  9.184851e-017
      vertex  3.600000e+001  1.067200e+001  3.330315e-001
    endloop
  endfacet
  facet normal -1.000000e+000  0.000000e+000  0.000000e+000
    outer loop
      vertex  3.600000e+001  1.170000e+001  1.800000e+000
      vertex  3.600000e+001  1.067200e+001  3.330315e-001
      vertex  3.600000e+001  1.045424e+001  5.967965e-001
    endloop
  endfacet
  facet normal -1.000000e+000  0.000000e+000  0.000000e+000
    outer loop
      vertex  3.600000e+001  1.170000e+001  1.800000e+000
      vertex  3.600000e+001  1.045424e+001  5.967965e-001
      vertex  3.600000e+001  1.014200e+001  7.364348e-001
    endloop
  endfacet
  facet normal -1.000000e+000  -0.000000e+000  0.000000e+000
    outer loop
      vertex  3.600000e+001  1.170000e+001  1.800000e+000
      vertex  3.600000e+001  1.014200e+001  7.364348e-001
      vertex  3.600000e+001  9.800224e+000  7.229035e-001
    endloop
  endfacet
  facet normal -1.000000e+000  0.000000e+000  0.000000e+000
    outer loop
      vertex  3.600000e+001  1.170000e+001  1.800000e+000
      vertex  3.600000e+001  9.800224e+000  7.229035e-001
      vertex  3.600000e+001  9.500000e+000  1.800000e+000
    endloop
  endfacet
  facet normal  1.226656e-003  7.711447e-001  6.366586e-001
    outer loop
      vertex  3.600000e+001  1.067200e+001  3.330315e-001
      vertex  3.300000e+001  1.046762e+001  5.863736e-001
      vertex  3.600000e+001  1.045424e+001  5.967965e-001
    endloop
  endfacet
  facet normal -1.195493e-003  4.338842e-001  9.009679e-001
    outer loop
      vertex  3.600000e+001  1.045424e+001  5.967965e-001
      vertex  3.300000e+001  1.046762e+001  5.863736e-001
      vertex  3.300000e+001  1.016689e+001  7.311959e-001
    endloop
  endfacet
  facet normal  1.793208e-003  4.082479e-001  9.128693e-001
    outer loop
      vertex  3.600000e+001  1.045424e+001  5.967965e-001
      vertex  3.300000e+001  1.016689e+001  7.311959e-001
      vertex  3.600000e+001  1.014200e+001  7.364348e-001
    endloop
  endfacet
  facet normal -1.746294e-003  0.000000e+000  9.999985e-001
    outer loop
      vertex  3.600000e+001  1.014200e+001  7.364348e-001
      vertex  3.300000e+001  1.016689e+001  7.311959e-001
      vertex  3.300000e+001  9.833109e+000  7.311959e-001
    endloop
  endfacet
  facet normal  2.328315e-003 -3.956006e-002  9.992144e-001
    outer loop
      vertex  3.600000e+001  1.014200e+001  7.364348e-001
      vertex  3.300000e+001  9.833109e+000  7.311959e-001
      vertex  3.600000e+001  9.800224e+000  7.229035e-001
    endloop
  endfacet
  facet normal -2.265644e-003 -4.338834e-001  9.009662e-001
    outer loop
      vertex  3.600000e+001  9.800224e+000  7.229035e-001
      vertex  3.300000e+001  9.833109e+000  7.311959e-001
      vertex  3.300000e+001  9.532383e+000  5.863736e-001
    endloop
  endfacet
  facet normal  2.831982e-003 -4.791382e-001  8.777349e-001
    outer loop
      vertex  3.600000e+001  9.500000e+000  5.590170e-001
      vertex  3.600000e+001  9.800224e+000  7.229035e-001
      vertex  3.300000e+001  9.532383e+000  5.863736e-001
    endloop
  endfacet
  facet normal -2.753787e-003 -7.818277e-001  6.234884e-001
    outer loop
      vertex  3.600000e+001  9.500000e+000  5.590170e-001
      vertex  3.300000e+001  9.532383e+000  5.863736e-001
      vertex  3.300000e+001  9.324273e+000  3.254128e-001
    endloop
  endfacet
  facet normal  1.377045e-003 -8.075541e-001  5.897918e-001
    outer loop
      vertex  3.600000e+001  9.500000e+000  5.590170e-001
      vertex  3.300000e+001  9.324273e+000  3.254128e-001
      vertex  3.600000e+001  9.315347e+000  3.061862e-001
    endloop
  endfacet
  facet normal  -0.000000e+000  9.736546e-001  2.280279e-001
    outer loop
      vertex  3.600000e+001  1.075000e+001  9.184851e-017
      vertex  3.300000e+001  1.075000e+001  9.184851e-017
      vertex  3.600000e+001  1.067200e+001  3.330315e-001
    endloop
  endfacet
  facet normal  6.445181e-004  9.749278e-001  2.225202e-001
    outer loop
      vertex  3.600000e+001  1.067200e+001  3.330315e-001
      vertex  3.300000e+001  1.075000e+001  9.184851e-017
      vertex  3.300000e+001  1.067573e+001  3.254128e-001
    endloop
  endfacet
  facet normal -6.133544e-004  7.818305e-001  6.234907e-001
    outer loop
      vertex  3.600000e+001  1.067200e+001  3.330315e-001
      vertex  3.300000e+001  1.067573e+001  3.254128e-001
      vertex  3.300000e+001  1.046762e+001  5.863736e-001
    endloop
  endfacet
  facet normal  0.000000e+000 -9.749280e-001  2.225202e-001
    outer loop
      vertex  3.300000e+001  9.250000e+000 -1.836970e-016
      vertex  3.600000e+001  9.250000e+000 -1.836970e-016
      vertex  3.300000e+001  9.324273e+000  3.254128e-001
    endloop
  endfacet
  facet normal -1.572265e-003 -9.779741e-001  2.087207e-001
    outer loop
      vertex  3.300000e+001  9.324273e+000  3.254128e-001
      vertex  3.600000e+001  9.250000e+000 -1.836970e-016
      vertex  3.600000e+001  9.315347e+000  3.061862e-001
    endloop
  endfacet
  facet normal -2.265644e-003 -4.338834e-001 -9.009662e-001
    outer loop
      vertex  3.300000e+001  9.532383e+000 -5.863736e-001
      vertex  3.300000e+001  9.833109e+000 -7.311959e-001
      vertex  3.600000e+001  9.800224e+000 -7.229035e-001
    endloop
  endfacet
  facet normal  2.328315e-003 -3.956006e-002 -9.992144e-001
    outer loop
      vertex  3.600000e+001  1.014200e+001 -7.364348e-001
      vertex  3.600000e+001  9.800224e+000 -7.229035e-001
      vertex  3.300000e+001  9.833109e+000 -7.311959e-001
    endloop
  endfacet
  facet normal -1.746294e-003  -0.000000e+000 -9.999985e-001
    outer loop
      vertex  3.300000e+001  9.833109e+000 -7.311959e-001
      vertex  3.300000e+001  1.016689e+001 -7.311959e-001
      vertex  3.600000e+001  1.014200e+001 -7.364348e-001
    endloop
  endfacet
  facet normal  1.793208e-003  4.082479e-001 -9.128693e-001
    outer loop
      vertex  3.600000e+001  1.045424e+001 -5.967965e-001
      vertex  3.600000e+001  1.014200e+001 -7.364348e-001
      vertex  3.300000e+001  1.016689e+001 -7.311959e-001
    endloop
  endfacet
  facet normal -1.195493e-003  4.338842e-001 -9.009679e-001
    outer loop
      vertex  3.300000e+001  1.016689e+001 -7.311959e-001
      vertex  3.300000e+001  1.046762e+001 -5.863736e-001
      vertex  3.600000e+001  1.045424e+001 -5.967965e-001
    endloop
  endfacet
  facet normal  1.226656e-003  7.711447e-001 -6.366586e-001
    outer loop
      vertex  3.600000e+001  1.067200e+001 -3.330315e-001
      vertex  3.600000e+001  1.045424e+001 -5.967965e-001
      vertex  3.300000e+001  1.046762e+001 -5.863736e-001
    endloop
  endfacet
  facet normal  1.377045e-003 -8.075541e-001 -5.897918e-001
    outer loop
      vertex  3.600000e+001  9.500000e+000 -5.590170e-001
      vertex  3.600000e+001  9.315347e+000 -3.061862e-001
      vertex  3.300000e+001  9.324273e+000 -3.254128e-001
    endloop
  endfacet
  facet normal -2.753789e-003 -7.818277e-001 -6.234884e-001
    outer loop
      vertex  3.600000e+001  9.500000e+000 -5.590170e-001
      vertex  3.300000e+001  9.324273e+000 -3.254128e-001
      vertex  3.300000e+001  9.532383e+000 -5.863736e-001
    endloop
  endfacet
  facet normal  2.831982e-003 -4.791382e-001 -8.777349e-001
    outer loop
      vertex  3.600000e+001  9.500000e+000 -5.590170e-001
      vertex  3.300000e+001  9.532383e+000 -5.863736e-001
      vertex  3.600000e+001  9.800224e+000 -7.229035e-001
    endloop
  endfacet
  facet normal -1.474760e-003 -9.749271e-001 -2.225200e-001
    outer loop
      vertex  3.300000e+001  9.324273e+000 -3.254128e-001
      vertex  3.600000e+001  9.315347e+000 -3.061862e-001
      vertex  3.300000e+001  9.250000e+000 -1.836970e-016
    endloop
  endfacet
  facet normal  0.000000e+000 -9.779752e-001 -2.087209e-001
    outer loop
      vertex  3.300000e+001  9.250000e+000 -1.836970e-016
      vertex  3.600000e+001  9.315347e+000 -3.061862e-001
      vertex  3.600000e+001  9.250000e+000 -1.836970e-016
    endloop
  endfacet
  facet normal  0.000000e+000  9.749280e-001 -2.225202e-001
    outer loop
      vertex  3.300000e+001  1.075000e+001  9.184851e-017
      vertex  3.600000e+001  1.075000e+001  9.184851e-017
      vertex  3.300000e+001  1.067573e+001 -3.254128e-001
    endloop
  endfacet
  facet normal  6.289508e-004  9.736543e-001 -2.280279e-001
    outer loop
      vertex  3.300000e+001  1.067573e+001 -3.254128e-001
      vertex  3.600000e+001  1.075000e+001  9.184851e-017
      vertex  3.600000e+001  1.067200e+001 -3.330315e-001
    endloop
  endfacet
  facet normal -6.133544e-004  7.818305e-001 -6.234907e-001
    outer loop
      vertex  3.300000e+001  1.067573e+001 -3.254128e-001
      vertex  3.600000e+001  1.067200e+001 -3.330315e-001
      vertex  3.300000e+001  1.046762e+001 -5.863736e-001
    endloop
  endfacet
  facet normal  1.226656e-003 -7.711447e-001 -6.366586e-001
    outer loop
      vertex  3.600000e+001 -1.067200e+001 -3.330315e-001
      vertex  3.300000e+001 -1.046762e+001 -5.863736e-001
      vertex  3.600000e+001 -1.045424e+001 -5.967965e-001
    endloop
  endfacet
  facet normal -1.195493e-003 -4.338842e-001 -9.009679e-001
    outer loop
      vertex  3.600000e+001 -1.045424e+001 -5.967965e-001
      vertex  3.300000e+001 -1.046762e+001 -5.863736e-001
      vertex  3.300000e+001 -1.016689e+001 -7.311959e-001
    endloop
  endfacet
  facet normal  1.793208e-003 -4.082479e-001 -9.128693e-001
    outer loop
      vertex  3.600000e+001 -1.045424e+001 -5.967965e-001
      vertex  3.300000e+001 -1.016689e+001 -7.311959e-001
      vertex  3.600000e+001 -1.014200e+001 -7.364348e-001
    endloop
  endfacet
  facet normal -1.746294e-003  0.000000e+000 -9.999985e-001
    outer loop
      vertex  3.600000e+001 -1.014200e+001 -7.364348e-001
      vertex  3.300000e+001 -1.016689e+001 -7.311959e-001
      vertex  3.300000e+001 -9.833109e+000 -7.311959e-001
    endloop
  endfacet
  facet normal  2.328315e-003  3.956006e-002 -9.992144e-001
    outer loop
      vertex  3.600000e+001 -1.014200e+001 -7.364348e-001
      vertex  3.300000e+001 -9.833109e+000 -7.311959e-001
      vertex  3.600000e+001 -9.800224e+000 -7.229035e-001
    endloop
  endfacet
  facet normal -2.265644e-003  4.338834e-001 -9.009662e-001
    outer loop
      vertex  3.600000e+001 -9.800224e+000 -7.229035e-001
      vertex  3.300000e+001 -9.833109e+000 -7.311959e-001
      vertex  3.300000e+001 -9.532383e+000 -5.863736e-001
    endloop
  endfacet
  facet normal  2.831982e-003  4.791382e-001 -8.777349e-001
    outer loop
      vertex  3.600000e+001 -9.500000e+000 -5.590170e-001
      vertex  3.600000e+001 -9.800224e+000 -7.229035e-001
      vertex  3.300000e+001 -9.532383e+000 -5.863736e-001
    endloop
  endfacet
  facet normal -2.753787e-003  7.818277e-001 -6.234884e-001
    outer loop
      vertex  3.600000e+001 -9.500000e+000 -5.590170e-001
      vertex  3.300000e+001 -9.532383e+000 -5.863736e-001
      vertex  3.300000e+001 -9.324273e+000 -3.254128e-001
    endloop
  endfacet
  facet normal  1.377045e-003  8.075541e-001 -5.897918e-001
    outer loop
      vertex  3.600000e+001 -9.500000e+000 -5.590170e-001
      vertex  3.300000e+001 -9.324273e+000 -3.254128e-001
      vertex  3.600000e+001 -9.315347e+000 -3.061862e-001
    endloop
  endfacet
  facet normal  0.000000e+000 -9.736546e-001 -2.280279e-001
    outer loop
      vertex  3.600000e+001 -1.075000e+001  0.000000e+000
      vertex  3.300000e+001 -1.075000e+001  0.000000e+000
      vertex  3.600000e+001 -1.067200e+001 -3.330315e-001
    endloop
  endfacet
  facet normal  6.445181e-004 -9.749278e-001 -2.225202e-001
    outer loop
      vertex  3.600000e+001 -1.067200e+001 -3.330315e-001
      vertex  3.300000e+001 -1.075000e+001  0.000000e+000
      vertex  3.300000e+001 -1.067573e+001 -3.254128e-001
    endloop
  endfacet
  facet normal -6.133544e-004 -7.818305e-001 -6.234907e-001
    outer loop
      vertex  3.600000e+001 -1.067200e+001 -3.330315e-001
      vertex  3.300000e+001 -1.067573e+001 -3.254128e-001
      vertex  3.300000e+001 -1.046762e+001 -5.863736e-001
    endloop
  endfacet
  facet normal  0.000000e+000  9.749280e-001 -2.225202e-001
    outer loop
      vertex  3.300000e+001 -9.250000e+000  9.184851e-017
      vertex  3.600000e+001 -9.250000e+000  9.184851e-017
      vertex  3.300000e+001 -9.324273e+000 -3.254128e-001
    endloop
  endfacet
  facet normal -1.572265e-003  9.779741e-001 -2.087207e-001
    outer loop
      vertex  3.300000e+001 -9.324273e+000 -3.254128e-001
      vertex  3.600000e+001 -9.250000e+000  9.184851e-017
      vertex  3.600000e+001 -9.315347e+000 -3.061862e-001
    endloop
  endfacet
  facet normal -2.265644e-003  4.338834e-001  9.009662e-001
    outer loop
      vertex  3.300000e+001 -9.532383e+000  5.863736e-001
      vertex  3.300000e+001 -9.833109e+000  7.311959e-001
      vertex  3.600000e+001 -9.800224e+000  7.229035e-001
    endloop
  endfacet
  facet normal  2.328315e-003  3.956006e-002  9.992144e-001
    outer loop
      vertex  3.600000e+001 -1.014200e+001  7.364348e-001
      vertex  3.600000e+001 -9.800224e+000  7.229035e-001
      vertex  3.300000e+001 -9.833109e+000  7.311959e-001
    endloop
  endfacet
  facet normal -1.746294e-003  0.000000e+000  9.999985e-001
    outer loop
      vertex  3.300000e+001 -9.833109e+000  7.311959e-001
      vertex  3.300000e+001 -1.016689e+001  7.311959e-001
      vertex  3.600000e+001 -1.014200e+001  7.364348e-001
    endloop
  endfacet
  facet normal  1.793208e-003 -4.082479e-001  9.128693e-001
    outer loop
      vertex  3.600000e+001 -1.045424e+001  5.967965e-001
      vertex  3.600000e+001 -1.014200e+001  7.364348e-001
      vertex  3.300000e+001 -1.016689e+001  7.311959e-001
    endloop
  endfacet
  facet normal -1.195493e-003 -4.338842e-001  9.009679e-001
    outer loop
      vertex  3.300000e+001 -1.016689e+001  7.311959e-001
      vertex  3.300000e+001 -1.046762e+001  5.863736e-001
      vertex  3.600000e+001 -1.045424e+001  5.967965e-001
    endloop
  endfacet
  facet normal  1.226656e-003 -7.711447e-001  6.366586e-001
    outer loop
      vertex  3.600000e+001 -1.067200e+001  3.330315e-001
      vertex  3.600000e+001 -1.045424e+001  5.967965e-001
      vertex  3.300000e+001 -1.046762e+001  5.863736e-001
    endloop
  endfacet
  facet normal  1.377045e-003  8.075541e-001  5.897918e-001
    outer loop
      vertex  3.600000e+001 -9.500000e+000  5.590170e-001
      vertex  3.600000e+001 -9.315347e+000  3.061862e-001
      vertex  3.300000e+001 -9.324273e+000  3.254128e-001
    endloop
  endfacet
  facet normal -2.753789e-003  7.818277e-001  6.234884e-001
    outer loop
      vertex  3.600000e+001 -9.500000e+000  5.590170e-001
      vertex  3.300000e+001 -9.324273e+000  3.254128e-001
      vertex  3.300000e+001 -9.532383e+000  5.863736e-001
    endloop
  endfacet
  facet normal  2.831982e-003  4.791382e-001  8.777349e-001
    outer loop
      vertex  3.600000e+001 -9.500000e+000  5.590170e-001
      vertex  3.300000e+001 -9.532383e+000  5.863736e-001
      vertex  3.600000e+001 -9.800224e+000  7.229035e-001
    endloop
  endfacet
  facet normal -1.474760e-003  9.749271e-001  2.225200e-001
    outer loop
      vertex  3.300000e+001 -9.324273e+000  3.254128e-001
      vertex  3.600000e+001 -9.315347e+000  3.061862e-001
      vertex  3.300000e+001 -9.250000e+000  9.184851e-017
    endloop
  endfacet
  facet normal  -0.000000e+000  9.779752e-001  2.087209e-001
    outer loop
      vertex  3.300000e+001 -9.250000e+000  9.184851e-017
      vertex  3.600000e+001 -9.315347e+000  3.061862e-001
      vertex  3.600000e+001 -9.250000e+000  9.184851e-017
    endloop
  endfacet
  facet normal  0.000000e+000 -9.749280e-001  2.225202e-001
    outer loop
      vertex  3.300000e+001 -1.075000e+001  0.000000e+000
      vertex  3.600000e+001 -1.075000e+001  0.000000e+000
      vertex  3.300000e+001 -1.067573e+001  3.254128e-001
    endloop
  endfacet
  facet normal  6.289508e-004 -9.736543e-001  2.280279e-001
    outer loop
      vertex  3.300000e+001 -1.067573e+001  3.254128e-001
      vertex  3.600000e+001 -1.075000e+001  0.000000e+000
      vertex  3.600000e+001 -1.067200e+001  3.330315e-001
    endloop
  endfacet
  facet normal -6.133544e-004 -7.818305e-001  6.234907e-001
    outer loop
      vertex  3.300000e+001 -1.067573e+001  3.254128e-001
      vertex  3.600000e+001 -1.067200e+001  3.330315e-001
      vertex  3.300000e+001 -1.046762e+001  5.863736e-001
    endloop
  endfacet
  facet normal -1.000000e+000  -0.000000e+000  0.000000e+000
    outer loop
      vertex  3.300000e+001  9.833109e+000  7.311959e-001
      vertex  3.300000e+001  1.016689e+001  7.311959e-001
      vertex  3.300000e+001  9.532383e+000  5.863736e-001
    endloop
  endfacet
  facet normal -1.000000e+000  0.000000e+000  0.000000e+000
    outer loop
      vertex  3.300000e+001  9.532383e+000  5.863736e-001
      vertex  3.300000e+001  1.016689e+001  7.311959e-001
      vertex  3.300000e+001  1.046762e+001  5.863736e-001
    endloop
  endfacet
  facet normal -1.000000e+000  -0.000000e+000  0.000000e+000
    outer loop
      vertex  3.300000e+001  9.532383e+000  5.863736e-001
      vertex  3.300000e+001  1.046762e+001  5.863736e-001
      vertex  3.300000e+001  9.324273e+000  3.254128e-001
    endloop
  endfacet
  facet normal -1.000000e+000  0.000000e+000  0.000000e+000
    outer loop
      vertex  3.300000e+001  9.324273e+000  3.254128e-001
      vertex  3.300000e+001  1.046762e+001  5.863736e-001
      vertex  3.300000e+001  1.067573e+001  3.254128e-001
    endloop
  endfacet
  facet normal -9.999999e-001  -0.000000e+000  0.000000e+000
    outer loop
      vertex  3.300000e+001  9.324273e+000  3.254128e-001
      vertex  3.300000e+001  1.067573e+001  3.254128e-001
      vertex  3.300000e+001  9.250000e+000 -1.836970e-016
    endloop
  endfacet
  facet normal -1.000000e+000  0.000000e+000  0.000000e+000
    outer loop
      vertex  3.300000e+001  9.250000e+000 -1.836970e-016
      vertex  3.300000e+001  1.067573e+001  3.254128e-001
      vertex  3.300000e+001  1.075000e+001  9.184851e-017
    endloop
  endfacet
  facet normal -1.000000e+000  0.000000e+000  0.000000e+000
    outer loop
      vertex  3.300000e+001  9.250000e+000 -1.836970e-016
      vertex  3.300000e+001  1.075000e+001  9.184851e-017
      vertex  3.300000e+001  9.324273e+000 -3.254128e-001
    endloop
  endfacet
  facet normal -9.999999e-001  0.000000e+000  0.000000e+000
    outer loop
      vertex  3.300000e+001  9.324273e+000 -3.254128e-001
      vertex  3.300000e+001  1.075000e+001  9.184851e-017
      vertex  3.300000e+001  1.067573e+001 -3.254128e-001
    endloop
  endfacet
  facet normal -1.000000e+000  -0.000000e+000  0.000000e+000
    outer loop
      vertex  3.300000e+001  9.324273e+000 -3.254128e-001
      vertex  3.300000e+001  1.067573e+001 -3.254128e-001
      vertex  3.300000e+001  9.532383e+000 -5.863736e-001
    endloop
  endfacet
  facet normal -1.000000e+000  0.000000e+000  0.000000e+000
    outer loop
      vertex  3.300000e+001  9.532383e+000 -5.863736e-001
      vertex  3.300000e+001  1.067573e+001 -3.254128e-001
      vertex  3.300000e+001  1.046762e+001 -5.863736e-001
    endloop
  endfacet
  facet normal -1.000000e+000  -0.000000e+000  0.000000e+000
    outer loop
      vertex  3.300000e+001  9.532383e+000 -5.863736e-001
      vertex  3.300000e+001  1.046762e+001 -5.863736e-001
      vertex  3.300000e+001  9.833109e+000 -7.311959e-001
    endloop
  endfacet
  facet normal -1.000000e+000  0.000000e+000  0.000000e+000
    outer loop
      vertex  3.300000e+001  9.833109e+000 -7.311959e-001
      vertex  3.300000e+001  1.046762e+001 -5.863736e-001
      vertex  3.300000e+001  1.016689e+001 -7.311959e-001
    endloop
  endfacet
  facet normal -1.000000e+000  -0.000000e+000  0.000000e+000
    outer loop
      vertex  3.300000e+001 -1.016689e+001  7.311959e-001
      vertex  3.300000e+001 -9.833109e+000  7.311959e-001
      vertex  3.300000e+001 -1.046762e+001  5.863736e-001
    endloop
  endfacet
  facet normal -1.000000e+000  0.000000e+000  0.000000e+000
    outer loop
      vertex  3.300000e+001 -1.046762e+001  5.863736e-001
      vertex  3.300000e+001 -9.833109e+000  7.311959e-001
      vertex  3.300000e+001 -9.532383e+000  5.863736e-001
    endloop
  endfacet
  facet normal -1.000000e+000  -0.000000e+000  0.000000e+000
    outer loop
      vertex  3.300000e+001 -1.046762e+001  5.863736e-001
      vertex  3.300000e+001 -9.532383e+000  5.863736e-001
      vertex  3.300000e+001 -1.067573e+001  3.254128e-001
    endloop
  endfacet
  facet normal -1.000000e+000  0.000000e+000  0.000000e+000
    outer loop
      vertex  3.300000e+001 -1.067573e+001  3.254128e-001
      vertex  3.300000e+001 -9.532383e+000  5.863736e-001
      vertex  3.300000e+001 -9.324273e+000  3.254128e-001
    endloop
  endfacet
  facet normal -9.999999e-001  -0.000000e+000  0.000000e+000
    outer loop
      vertex  3.300000e+001 -1.067573e+001  3.254128e-001
      vertex  3.300000e+001 -9.324273e+000  3.254128e-001
      vertex  3.300000e+001 -1.075000e+001  0.000000e+000
    endloop
  endfacet
  facet normal -1.000000e+000  0.000000e+000  0.000000e+000
    outer loop
      vertex  3.300000e+001 -1.075000e+001  0.000000e+000
      vertex  3.300000e+001 -9.324273e+000  3.254128e-001
      vertex  3.300000e+001 -9.250000e+000  9.184851e-017
    endloop
  endfacet
  facet normal -1.000000e+000  0.000000e+000  0.000000e+000
    outer loop
      vertex  3.300000e+001 -1.075000e+001  0.000000e+000
      vertex  3.300000e+001 -9.250000e+000  9.184851e-017
      vertex  3.300000e+001 -1.067573e+001 -3.254128e-001
    endloop
  endfacet
  facet normal -9.999999e-001  0.000000e+000  0.000000e+000
    outer loop
      vertex  3.300000e+001 -1.067573e+001 -3.254128e-001
      vertex  3.300000e+001 -9.250000e+000  9.184851e-017
      vertex  3.300000e+001 -9.324273e+000 -3.254128e-001
    endloop
  endfacet
  facet normal -1.000000e+000  -0.000000e+000  0.000000e+000
    outer loop
      vertex  3.300000e+001 -1.067573e+001 -3.254128e-001
      vertex  3.300000e+001 -9.324273e+000 -3.254128e-001
      vertex  3.300000e+001 -1.046762e+001 -5.863736e-001
    endloop
  endfacet
  facet normal -1.000000e+000  0.000000e+000  0.000000e+000
    outer loop
      vertex  3.300000e+001 -1.046762e+001 -5.863736e-001
      vertex  3.300000e+001 -9.324273e+000 -3.254128e-001
      vertex  3.300000e+001 -9.532383e+000 -5.863736e-001
    endloop
  endfacet
  facet normal -1.000000e+000  -0.000000e+000  0.000000e+000
    outer loop
      vertex  3.300000e+001 -1.046762e+001 -5.863736e-001
      vertex  3.300000e+001 -9.532383e+000 -5.863736e-001
      vertex  3.300000e+001 -1.016689e+001 -7.311959e-001
    endloop
  endfacet
  facet normal -1.000000e+000  0.000000e+000  0.000000e+000
    outer loop
      vertex  3.300000e+001 -1.016689e+001 -7.311959e-001
      vertex  3.300000e+001 -9.532383e+000 -5.863736e-001
      vertex  3.300000e+001 -9.833109e+000 -7.311959e-001
    endloop
  endfacet
  facet normal  0.000000e+000  0.000000e+000  1.000000e+000
    outer loop
      vertex  3.000000e+001 -4.500000e+000  1.800000e+000
      vertex  2.700000e+001 -7.105427e-015  1.800000e+000
      vertex  2.700000e+001 -5.300000e+000  1.800000e+000
    endloop
  endfacet
  facet normal  0.000000e+000  0.000000e+000  1.000000e+000
    outer loop
      vertex  3.180000e+001 -4.500000e+000  1.800000e+000
      vertex  4.100000e+001 -1.224647e-016  1.800000e+000
      vertex  3.180000e+001  4.500000e+000  1.800000e+000
    endloop
  endfacet
  facet normal  0.000000e+000  0.000000e+000  1.000000e+000
    outer loop
      vertex  3.600000e+001 -5.300000e+000  1.800000e+000
      vertex  3.600000e+001 -9.500000e+000  1.800000e+000
      vertex  3.750000e+001 -9.500000e+000  1.800000e+000
    endloop
  endfacet
  facet normal  0.000000e+000  -0.000000e+000  9.999999e-001
    outer loop
      vertex  3.600000e+001 -5.300000e+000  1.800000e+000
      vertex  3.750000e+001 -9.500000e+000  1.800000e+000
      vertex  4.100000e+001 -9.500000e+000  1.800000e+000
    endloop
  endfacet
  facet normal  0.000000e+000  -0.000000e+000  1.000000e+000
    outer loop
      vertex  3.600000e+001 -5.300000e+000  1.800000e+000
      vertex  4.100000e+001 -9.500000e+000  1.800000e+000
      vertex  4.100000e+001 -1.224647e-016  1.800000e+000
    endloop
  endfacet
  facet normal  0.000000e+000  0.000000e+000  1.000000e+000
    outer loop
      vertex  3.600000e+001 -5.300000e+000  1.800000e+000
      vertex  4.100000e+001 -1.224647e-016  1.800000e+000
      vertex  3.180000e+001 -4.500000e+000  1.800000e+000
    endloop
  endfacet
  facet normal  0.000000e+000  0.000000e+000  1.000000e+000
    outer loop
      vertex  3.600000e+001 -5.300000e+000  1.800000e+000
      vertex  3.180000e+001 -4.500000e+000  1.800000e+000
      vertex  3.000000e+001 -4.500000e+000  1.800000e+000
    endloop
  endfacet
  facet normal  0.000000e+000  0.000000e+000  9.999999e-001
    outer loop
      vertex  3.600000e+001 -5.300000e+000  1.800000e+000
      vertex  3.000000e+001 -4.500000e+000  1.800000e+000
      vertex  2.700000e+001 -5.300000e+000  1.800000e+000
    endloop
  endfacet
  facet normal  -0.000000e+000  0.000000e+000  9.999999e-001
    outer loop
      vertex  3.600000e+001  5.300000e+000  1.800000e+000
      vertex  2.700000e+001  5.300000e+000  1.800000e+000
      vertex  3.180000e+001  4.500000e+000  1.800000e+000
    endloop
  endfacet
  facet normal  -0.000000e+000  0.000000e+000  1.000000e+000
    outer loop
      vertex  3.600000e+001  5.300000e+000  1.800000e+000
      vertex  3.180000e+001  4.500000e+000  1.800000e+000
      vertex  4.100000e+001 -1.224647e-016  1.800000e+000
    endloop
  endfacet
  facet normal  0.000000e+000  -0.000000e+000  1.000000e+000
    outer loop
      vertex  3.600000e+001  5.300000e+000  1.800000e+000
      vertex  4.100000e+001 -1.224647e-016  1.800000e+000
      vertex  4.100000e+001  9.500000e+000  1.800000e+000
    endloop
  endfacet
  facet normal  0.000000e+000  0.000000e+000  9.999999e-001
    outer loop
      vertex  3.600000e+001  5.300000e+000  1.800000e+000
      vertex  4.100000e+001  9.500000e+000  1.800000e+000
      vertex  3.750000e+001  9.500000e+000  1.800000e+000
    endloop
  endfacet
  facet normal  0.000000e+000  0.000000e+000  1.000000e+000
    outer loop
      vertex  3.600000e+001  5.300000e+000  1.800000e+000
      vertex  3.750000e+001  9.500000e+000  1.800000e+000
      vertex  3.600000e+001  9.500000e+000  1.800000e+000
    endloop
  endfacet
  facet normal  0.000000e+000  0.000000e+000  1.000000e+000
    outer loop
      vertex  2.700000e+001 -7.105427e-015  1.800000e+000
      vertex  3.000000e+001 -4.500000e+000  1.800000e+000
      vertex  2.700000e+001  5.300000e+000  1.800000e+000
    endloop
  endfacet
  facet normal  0.000000e+000  0.000000e+000  1.000000e+000
    outer loop
      vertex  2.700000e+001  5.300000e+000  1.800000e+000
      vertex  3.000000e+001 -4.500000e+000  1.800000e+000
      vertex  3.000000e+001  4.500000e+000  1.800000e+000
    endloop
  endfacet
  facet normal  0.000000e+000  -0.000000e+000  1.000000e+000
    outer loop
      vertex  2.700000e+001  5.300000e+000  1.800000e+000
      vertex  3.000000e+001  4.500000e+000  1.800000e+000
      vertex  3.180000e+001  4.500000e+000  1.800000e+000
    endloop
  endfacet
  facet normal  0.000000e+000  0.000000e+000  1.000000e+000
    outer loop
      vertex  3.600000e+001  9.500000e+000  1.800000e+000
      vertex  3.750000e+001  9.500000e+000  1.800000e+000
      vertex  3.600000e+001  1.170000e+001  1.800000e+000
    endloop
  endfacet
  facet normal  -0.000000e+000  0.000000e+000  1.000000e+000
    outer loop
      vertex  3.600000e+001  1.170000e+001  1.800000e+000
      vertex  3.750000e+001  9.500000e+000  1.800000e+000
      vertex  3.750000e+001  1.170000e+001  1.800000e+000
    endloop
  endfacet
  facet normal  0.000000e+000  0.000000e+000  1.000000e+000
    outer loop
      vertex  3.600000e+001 -1.170000e+001  1.800000e+000
      vertex  3.750000e+001 -1.170000e+001  1.800000e+000
      vertex  3.600000e+001 -9.500000e+000  1.800000e+000
    endloop
  endfacet
  facet normal  -0.000000e+000  0.000000e+000  1.000000e+000
    outer loop
      vertex  3.600000e+001 -9.500000e+000  1.800000e+000
      vertex  3.750000e+001 -1.170000e+001  1.800000e+000
      vertex  3.750000e+001 -9.500000e+000  1.800000e+000
    endloop
  endfacet
  facet normal  0.000000e+000  1.000000e+000  0.000000e+000
    outer loop
      vertex  3.180000e+001  4.500000e+000  7.800000e+000
      vertex  3.330000e+001  4.500000e+000  6.300000e+000
      vertex  3.000000e+001  4.500000e+000  7.800000e+000
    endloop
  endfacet
  facet normal  0.000000e+000  1.000000e+000  0.000000e+000
    outer loop
      vertex  3.000000e+001  4.500000e+000  7.800000e+000
      vertex  3.330000e+001  4.500000e+000  6.300000e+000
      vertex  3.180000e+001  4.500000e+000  6.300000e+000
    endloop
  endfacet
  facet normal  0.000000e+000  1.000000e+000  0.000000e+000
    outer loop
      vertex  3.000000e+001  4.500000e+000  7.800000e+000
      vertex  3.180000e+001  4.500000e+000  6.300000e+000
      vertex  3.000000e+001  4.500000e+000  1.800000e+000
    endloop
  endfacet
  facet normal  0.000000e+000  1.000000e+000  0.000000e+000
    outer loop
      vertex  3.000000e+001  4.500000e+000  1.800000e+000
      vertex  3.180000e+001  4.500000e+000  6.300000e+000
      vertex  3.180000e+001  4.500000e+000  1.800000e+000
    endloop
  endfacet
  facet normal  0.000000e+000 -1.000000e+000  0.000000e+000
    outer loop
      vertex  3.180000e+001 -4.500000e+000  7.800000e+000
      vertex  3.000000e+001 -4.500000e+000  7.800000e+000
      vertex  3.330000e+001 -4.500000e+000  6.300000e+000
    endloop
  endfacet
  facet normal  0.000000e+000 -1.000000e+000  0.000000e+000
    outer loop
      vertex  3.330000e+001 -4.500000e+000  6.300000e+000
      vertex  3.000000e+001 -4.500000e+000  7.800000e+000
      vertex  3.180000e+001 -4.500000e+000  6.300000e+000
    endloop
  endfacet
  facet normal  0.000000e+000 -1.000000e+000  0.000000e+000
    outer loop
      vertex  3.000000e+001 -4.500000e+000  7.800000e+000
      vertex  3.000000e+001 -4.500000e+000  1.800000e+000
      vertex  3.180000e+001 -4.500000e+000  6.300000e+000
    endloop
  endfacet
  facet normal  0.000000e+000 -1.000000e+000  -0.000000e+000
    outer loop
      vertex  3.180000e+001 -4.500000e+000  6.300000e+000
      vertex  3.000000e+001 -4.500000e+000  1.800000e+000
      vertex  3.180000e+001 -4.500000e+000  1.800000e+000
    endloop
  endfacet
  facet normal  1.000000e+000  0.000000e+000  0.000000e+000
    outer loop
      vertex  3.180000e+001 -4.500000e+000  6.300000e+000
      vertex  3.180000e+001 -4.500000e+000  1.800000e+000
      vertex  3.180000e+001  4.500000e+000  6.300000e+000
    endloop
  endfacet
  facet normal  1.000000e+000  0.000000e+000  0.000000e+000
    outer loop
      vertex  3.180000e+001  4.500000e+000  6.300000e+000
      vertex  3.180000e+001 -4.500000e+000  1.800000e+000
      vertex  3.180000e+001  4.500000e+000  1.800000e+000
    endloop
  endfacet
  facet normal -1.000000e+000  0.000000e+000  0.000000e+000
    outer loop
      vertex  3.000000e+001 -4.500000e+000  1.800000e+000
      vertex  3.000000e+001 -4.500000e+000  7.800000e+000
      vertex  3.000000e+001  4.500000e+000  1.800000e+000
    endloop
  endfacet
  facet normal -1.000000e+000  0.000000e+000  0.000000e+000
    outer loop
      vertex  3.000000e+001  4.500000e+000  1.800000e+000
      vertex  3.000000e+001 -4.500000e+000  7.800000e+000
      vertex  3.000000e+001  4.500000e+000  7.800000e+000
    endloop
  endfacet
  facet normal  0.000000e+000  0.000000e+000 -1.000000e+000
    outer loop
      vertex  3.330000e+001 -4.500000e+000  6.300000e+000
      vertex  3.180000e+001 -4.500000e+000  6.300000e+000
      vertex  3.330000e+001  4.500000e+000  6.300000e+000
    endloop
  endfacet
  facet normal  -0.000000e+000  0.000000e+000 -1.000000e+000
    outer loop
      vertex  3.330000e+001  4.500000e+000  6.300000e+000
      vertex  3.180000e+001 -4.500000e+000  6.300000e+000
      vertex  3.180000e+001  4.500000e+000  6.300000e+000
    endloop
  endfacet
  facet normal  7.071068e-001  0.000000e+000  7.071068e-001
    outer loop
      vertex  3.180000e+001 -4.500000e+000  7.800000e+000
      vertex  3.330000e+001 -4.500000e+000  6.300000e+000
      vertex  3.180000e+001  4.500000e+000  7.800000e+000
    endloop
  endfacet
  facet normal  7.071068e-001  0.000000e+000  7.071068e-001
    outer loop
      vertex  3.180000e+001  4.500000e+000  7.800000e+000
      vertex  3.330000e+001 -4.500000e+000  6.300000e+000
      vertex  3.330000e+001  4.500000e+000  6.300000e+000
    endloop
  endfacet
  facet normal  0.000000e+000  0.000000e+000  1.000000e+000
    outer loop
      vertex  3.000000e+001 -4.500000e+000  7.800000e+000
      vertex  3.180000e+001 -4.500000e+000  7.800000e+000
      vertex  3.000000e+001  4.500000e+000  7.800000e+000
    endloop
  endfacet
  facet normal  -0.000000e+000  0.000000e+000  1.000000e+000
    outer loop
      vertex  3.000000e+001  4.500000e+000  7.800000e+000
      vertex  3.180000e+001 -4.500000e+000  7.800000e+000
      vertex  3.180000e+001  4.500000e+000  7.800000e+000
    endloop
  endfacet
  facet normal  0.000000e+000  0.000000e+000 -1.000000e+000
    outer loop
      vertex  3.600000e+001 -5.300000e+000 -1.800000e+000
      vertex  2.700000e+001 -5.300000e+000 -1.800000e+000
      vertex  2.700000e+001 -7.105427e-015 -1.800000e+000
    endloop
  endfacet
  facet normal  0.000000e+000  0.000000e+000 -1.000000e+000
    outer loop
      vertex  3.600000e+001 -5.300000e+000 -1.800000e+000
      vertex  2.700000e+001 -7.105427e-015 -1.800000e+000
      vertex  4.100000e+001 -1.224647e-016 -1.800000e+000
    endloop
  endfacet
  facet normal  0.000000e+000  -0.000000e+000 -1.000000e+000
    outer loop
      vertex  3.600000e+001 -5.300000e+000 -1.800000e+000
      vertex  4.100000e+001 -1.224647e-016 -1.800000e+000
      vertex  4.100000e+001 -9.500000e+000 -1.800000e+000
    endloop
  endfacet
  facet normal  0.000000e+000  0.000000e+000 -9.999999e-001
    outer loop
      vertex  3.600000e+001 -5.300000e+000 -1.800000e+000
      vertex  4.100000e+001 -9.500000e+000 -1.800000e+000
      vertex  3.750000e+001 -9.500000e+000 -1.800000e+000
    endloop
  endfacet
  facet normal  0.000000e+000  0.000000e+000 -1.000000e+000
    outer loop
      vertex  3.600000e+001 -5.300000e+000 -1.800000e+000
      vertex  3.750000e+001 -9.500000e+000 -1.800000e+000
      vertex  3.600000e+001 -9.500000e+000 -1.800000e+000
    endloop
  endfacet
  facet normal  0.000000e+000  0.000000e+000 -1.000000e+000
    outer loop
      vertex  3.600000e+001  5.300000e+000 -1.800000e+000
      vertex  3.600000e+001  9.500000e+000 -1.800000e+000
      vertex  3.750000e+001  9.500000e+000 -1.800000e+000
    endloop
  endfacet
  facet normal  0.000000e+000  0.000000e+000 -1.000000e+000
    outer loop
      vertex  3.750000e+001  9.500000e+000 -1.800000e+000
      vertex  3.600000e+001  9.500000e+000 -1.800000e+000
      vertex  3.600000e+001  1.170000e+001 -1.800000e+000
    endloop
  endfacet
  facet normal  0.000000e+000  0.000000e+000 -1.000000e+000
    outer loop
      vertex  3.750000e+001  9.500000e+000 -1.800000e+000
      vertex  3.600000e+001  1.170000e+001 -1.800000e+000
      vertex  3.750000e+001  1.170000e+001 -1.800000e+000
    endloop
  endfacet
  facet normal  0.000000e+000  0.000000e+000 -1.000000e+000
    outer loop
      vertex  4.100000e+001  9.500000e+000 -1.800000e+000
      vertex  4.100000e+001 -1.224647e-016 -1.800000e+000
      vertex  3.750000e+001  9.500000e+000 -1.800000e+000
    endloop
  endfacet
  facet normal  0.000000e+000  -0.000000e+000 -1.000000e+000
    outer loop
      vertex  3.750000e+001  9.500000e+000 -1.800000e+000
      vertex  4.100000e+001 -1.224647e-016 -1.800000e+000
      vertex  3.600000e+001  5.300000e+000 -1.800000e+000
    endloop
  endfacet
  facet normal  0.000000e+000  0.000000e+000 -1.000000e+000
    outer loop
      vertex  4.100000e+001 -1.224647e-016 -1.800000e+000
      vertex  2.700000e+001 -7.105427e-015 -1.800000e+000
      vertex  3.600000e+001  5.300000e+000 -1.800000e+000
    endloop
  endfacet
  facet normal  -0.000000e+000  0.000000e+000 -1.000000e+000
    outer loop
      vertex  3.600000e+001  5.300000e+000 -1.800000e+000
      vertex  2.700000e+001 -7.105427e-015 -1.800000e+000
      vertex  2.700000e+001  5.300000e+000 -1.800000e+000
    endloop
  endfacet
  facet normal  0.000000e+000  0.000000e+000 -1.000000e+000
    outer loop
      vertex  3.600000e+001 -1.170000e+001 -1.800000e+000
      vertex  3.600000e+001 -9.500000e+000 -1.800000e+000
      vertex  3.750000e+001 -1.170000e+001 -1.800000e+000
    endloop
  endfacet
  facet normal  0.000000e+000  0.000000e+000 -1.000000e+000
    outer loop
      vertex  3.750000e+001 -1.170000e+001 -1.800000e+000
      vertex  3.600000e+001 -9.500000e+000 -1.800000e+000
      vertex  3.750000e+001 -9.500000e+000 -1.800000e+000
    endloop
  endfacet
  facet normal  1.000000e+000  0.000000e+000  0.000000e+000
    outer loop
      vertex  4.100000e+001 -1.224647e-016  1.800000e+000
      vertex  4.100000e+001 -1.224647e-016 -1.800000e+000
      vertex  4.100000e+001  9.500000e+000  1.800000e+000
    endloop
  endfacet
  facet normal  1.000000e+000  0.000000e+000  0.000000e+000
    outer loop
      vertex  4.100000e+001  9.500000e+000  1.800000e+000
      vertex  4.100000e+001 -1.224647e-016 -1.800000e+000
      vertex  4.100000e+001  9.500000e+000 -1.800000e+000
    endloop
  endfacet
  facet normal  1.000000e+000  0.000000e+000  0.000000e+000
    outer loop
      vertex  4.100000e+001 -9.500000e+000  1.800000e+000
      vertex  4.100000e+001 -9.500000e+000 -1.800000e+000
      vertex  4.100000e+001 -1.224647e-016  1.800000e+000
    endloop
  endfacet
  facet normal  1.000000e+000  0.000000e+000  0.000000e+000
    outer loop
      vertex  4.100000e+001 -1.224647e-016  1.800000e+000
      vertex  4.100000e+001 -9.500000e+000 -1.800000e+000
      vertex  4.100000e+001 -1.224647e-016 -1.800000e+000
    endloop
  endfacet
  facet normal  0.000000e+000 -1.000000e+000  -0.000000e+000
    outer loop
      vertex  4.100000e+001 -9.500000e+000 -1.800000e+000
      vertex  4.100000e+001 -9.500000e+000  1.800000e+000
      vertex  3.750000e+001 -9.500000e+000 -1.800000e+000
    endloop
  endfacet
  facet normal  0.000000e+000 -1.000000e+000  0.000000e+000
    outer loop
      vertex  3.750000e+001 -9.500000e+000 -1.800000e+000
      vertex  4.100000e+001 -9.500000e+000  1.800000e+000
      vertex  3.750000e+001 -9.500000e+000  1.800000e+000
    endloop
  endfacet
  facet normal  9.999999e-001  0.000000e+000  0.000000e+000
    outer loop
      vertex  3.750000e+001 -1.170000e+001  1.800000e+000
      vertex  3.750000e+001 -1.170000e+001 -1.800000e+000
      vertex  3.750000e+001 -9.500000e+000  1.800000e+000
    endloop
  endfacet
  facet normal  9.999999e-001  0.000000e+000  0.000000e+000
    outer loop
      vertex  3.750000e+001 -9.500000e+000  1.800000e+000
      vertex  3.750000e+001 -1.170000e+001 -1.800000e+000
      vertex  3.750000e+001 -9.500000e+000 -1.800000e+000
    endloop
  endfacet
  facet normal  0.000000e+000 -1.000000e+000  -0.000000e+000
    outer loop
      vertex  3.750000e+001 -1.170000e+001 -1.800000e+000
      vertex  3.750000e+001 -1.170000e+001  1.800000e+000
      vertex  3.600000e+001 -1.170000e+001 -1.800000e+000
    endloop
  endfacet
  facet normal  0.000000e+000 -1.000000e+000  0.000000e+000
    outer loop
      vertex  3.600000e+001 -1.170000e+001 -1.800000e+000
      vertex  3.750000e+001 -1.170000e+001  1.800000e+000
      vertex  3.600000e+001 -1.170000e+001  1.800000e+000
    endloop
  endfacet
  facet normal  0.000000e+000 -1.000000e+000  0.000000e+000
    outer loop
      vertex  3.600000e+001 -5.300000e+000  1.800000e+000
      vertex  2.700000e+001 -5.300000e+000  1.800000e+000
      vertex  3.600000e+001 -5.300000e+000 -1.800000e+000
    endloop
  endfacet
  facet normal  0.000000e+000 -1.000000e+000  0.000000e+000
    outer loop
      vertex  3.600000e+001 -5.300000e+000 -1.800000e+000
      vertex  2.700000e+001 -5.300000e+000  1.800000e+000
      vertex  2.700000e+001 -5.300000e+000 -1.800000e+000
    endloop
  endfacet
  facet normal -1.000000e+000  0.000000e+000  0.000000e+000
    outer loop
      vertex  2.700000e+001 -7.105427e-015  1.800000e+000
      vertex  2.700000e+001 -7.105427e-015 -1.800000e+000
      vertex  2.700000e+001 -5.300000e+000  1.800000e+000
    endloop
  endfacet
  facet normal -1.000000e+000  0.000000e+000  0.000000e+000
    outer loop
      vertex  2.700000e+001 -5.300000e+000  1.800000e+000
      vertex  2.700000e+001 -7.105427e-015 -1.800000e+000
      vertex  2.700000e+001 -5.300000e+000 -1.800000e+000
    endloop
  endfacet
  facet normal -1.000000e+000  0.000000e+000  0.000000e+000
    outer loop
      vertex  2.700000e+001  5.300000e+000  1.800000e+000
      vertex  2.700000e+001  5.300000e+000 -1.800000e+000
      vertex  2.700000e+001 -7.105427e-015  1.800000e+000
    endloop
  endfacet
  facet normal -1.000000e+000  0.000000e+000  0.000000e+000
    outer loop
      vertex  2.700000e+001 -7.105427e-015  1.800000e+000
      vertex  2.700000e+001  5.300000e+000 -1.800000e+000
      vertex  2.700000e+001 -7.105427e-015 -1.800000e+000
    endloop
  endfacet
  facet normal  0.000000e+000  1.000000e+000  -0.000000e+000
    outer loop
      vertex  3.600000e+001  5.300000e+000  1.800000e+000
      vertex  3.600000e+001  5.300000e+000 -1.800000e+000
      vertex  2.700000e+001  5.300000e+000  1.800000e+000
    endloop
  endfacet
  facet normal  0.000000e+000  1.000000e+000  0.000000e+000
    outer loop
      vertex  2.700000e+001  5.300000e+000  1.800000e+000
      vertex  3.600000e+001  5.300000e+000 -1.800000e+000
      vertex  2.700000e+001  5.300000e+000 -1.800000e+000
    endloop
  endfacet
  facet normal  0.000000e+000  1.000000e+000  0.000000e+000
    outer loop
      vertex  3.750000e+001  1.170000e+001 -1.800000e+000
      vertex  3.600000e+001  1.170000e+001 -1.800000e+000
      vertex  3.750000e+001  1.170000e+001  1.800000e+000
    endloop
  endfacet
  facet normal  0.000000e+000  1.000000e+000  0.000000e+000
    outer loop
      vertex  3.750000e+001  1.170000e+001  1.800000e+000
      vertex  3.600000e+001  1.170000e+001 -1.800000e+000
      vertex  3.600000e+001  1.170000e+001  1.800000e+000
    endloop
  endfacet
  facet normal  9.999999e-001  0.000000e+000  0.000000e+000
    outer loop
      vertex  3.750000e+001  9.500000e+000  1.800000e+000
      vertex  3.750000e+001  9.500000e+000 -1.800000e+000
      vertex  3.750000e+001  1.170000e+001  1.800000e+000
    endloop
  endfacet
  facet normal  9.999999e-001  0.000000e+000  0.000000e+000
    outer loop
      vertex  3.750000e+001  1.170000e+001  1.800000e+000
      vertex  3.750000e+001  9.500000e+000 -1.800000e+000
      vertex  3.750000e+001  1.170000e+001 -1.800000e+000
    endloop
  endfacet
  facet normal  0.000000e+000  1.000000e+000  0.000000e+000
    outer loop
      vertex  4.100000e+001  9.500000e+000 -1.800000e+000
      vertex  3.750000e+001  9.500000e+000 -1.800000e+000
      vertex  4.100000e+001  9.500000e+000  1.800000e+000
    endloop
  endfacet
  facet normal  0.000000e+000  1.000000e+000  0.000000e+000
    outer loop
      vertex  4.100000e+001  9.500000e+000  1.800000e+000
      vertex  3.750000e+001  9.500000e+000 -1.800000e+000
      vertex  3.750000e+001  9.500000e+000  1.800000e+000
    endloop
  endfacet
endsolid CATIA STL
