ISO-10303-21;
HEADER;
FILE_DESCRIPTION(('CATIA V5 STEP Exchange'),'2;1');

FILE_NAME('C:\\Users\\jon-g\\Andromeda\\Proyectos\\1_Activos\\LIA\\enclosure\\step\\Bottom_collar.stp','2026-07-06T08:00:51+00:00',('none'),('none'),'CATIA Version 5 Release 20 GA (IN-10)','CATIA V5 STEP AP203','none');

FILE_SCHEMA(('CONFIG_CONTROL_DESIGN'));

ENDSEC;
/* file written by CATIA V5R20 */
DATA;
#5=PRODUCT('Bottom','','',(#2)) ;
#1=APPLICATION_CONTEXT('configuration controlled 3D design of mechanical parts and assemblies') ;
#14=PRODUCT_DEFINITION('',' ',#6,#3) ;
#16=SECURITY_CLASSIFICATION(' ',' ',#15) ;
#15=SECURITY_CLASSIFICATION_LEVEL('unclassified') ;
#47=CARTESIAN_POINT(' ',(0.,0.,0.)) ;
#52=CARTESIAN_POINT('Axis2P3D Location',(0.,0.,0.)) ;
#57=CARTESIAN_POINT('Line Origine',(39.5,11.,0.)) ;
#61=CARTESIAN_POINT('Vertex',(39.5,10.,0.)) ;
#63=CARTESIAN_POINT('Vertex',(39.5,12.,0.)) ;
#66=CARTESIAN_POINT('Line Origine',(41.,10.,0.)) ;
#70=CARTESIAN_POINT('Vertex',(42.5,10.,0.)) ;
#73=CARTESIAN_POINT('Line Origine',(42.5,10.25,0.)) ;
#77=CARTESIAN_POINT('Vertex',(42.5,10.5,0.)) ;
#80=CARTESIAN_POINT('Axis2P3D Location',(35.,10.5,0.)) ;
#84=CARTESIAN_POINT('Vertex',(35.,18.,0.)) ;
#87=CARTESIAN_POINT('Line Origine',(0.,18.,0.)) ;
#91=CARTESIAN_POINT('Vertex',(-35.,18.,0.)) ;
#94=CARTESIAN_POINT('Axis2P3D Location',(-35.,10.5,0.)) ;
#98=CARTESIAN_POINT('Vertex',(-42.5,10.5,0.)) ;
#101=CARTESIAN_POINT('Line Origine',(-42.5,10.25,0.)) ;
#105=CARTESIAN_POINT('Vertex',(-42.5,10.,0.)) ;
#108=CARTESIAN_POINT('Line Origine',(-41.,10.,0.)) ;
#112=CARTESIAN_POINT('Vertex',(-39.5,10.,0.)) ;
#115=CARTESIAN_POINT('Line Origine',(-39.5,11.,0.)) ;
#119=CARTESIAN_POINT('Vertex',(-39.5,12.,0.)) ;
#122=CARTESIAN_POINT('Line Origine',(-33.5,12.,0.)) ;
#126=CARTESIAN_POINT('Vertex',(-27.5,12.,0.)) ;
#129=CARTESIAN_POINT('Line Origine',(-27.5,10.,0.)) ;
#133=CARTESIAN_POINT('Vertex',(-27.5,8.,0.)) ;
#136=CARTESIAN_POINT('Line Origine',(-31.,8.,0.)) ;
#140=CARTESIAN_POINT('Vertex',(-34.5,8.,0.)) ;
#143=CARTESIAN_POINT('Line Origine',(-34.5,6.75,0.)) ;
#147=CARTESIAN_POINT('Vertex',(-34.5,5.5,0.)) ;
#150=CARTESIAN_POINT('Line Origine',(-29.5,5.5,0.)) ;
#154=CARTESIAN_POINT('Vertex',(-24.5,5.5,0.)) ;
#157=CARTESIAN_POINT('Line Origine',(-24.5,2.75,0.)) ;
#161=CARTESIAN_POINT('Vertex',(-24.5,2.6645352591E-015,0.)) ;
#164=CARTESIAN_POINT('Line Origine',(-24.5,-2.75,0.)) ;
#168=CARTESIAN_POINT('Vertex',(-24.5,-5.5,0.)) ;
#171=CARTESIAN_POINT('Line Origine',(-29.5,-5.5,0.)) ;
#175=CARTESIAN_POINT('Vertex',(-34.5,-5.5,0.)) ;
#178=CARTESIAN_POINT('Line Origine',(-34.5,-6.75,0.)) ;
#182=CARTESIAN_POINT('Vertex',(-34.5,-8.,0.)) ;
#185=CARTESIAN_POINT('Line Origine',(-31.,-8.,0.)) ;
#189=CARTESIAN_POINT('Vertex',(-27.5,-8.,0.)) ;
#192=CARTESIAN_POINT('Line Origine',(-27.5,-10.,0.)) ;
#196=CARTESIAN_POINT('Vertex',(-27.5,-12.,0.)) ;
#199=CARTESIAN_POINT('Line Origine',(-33.5,-12.,0.)) ;
#203=CARTESIAN_POINT('Vertex',(-39.5,-12.,0.)) ;
#206=CARTESIAN_POINT('Line Origine',(-39.5,-11.,0.)) ;
#210=CARTESIAN_POINT('Vertex',(-39.5,-10.,0.)) ;
#213=CARTESIAN_POINT('Line Origine',(-41.,-10.,0.)) ;
#217=CARTESIAN_POINT('Vertex',(-42.5,-10.,0.)) ;
#220=CARTESIAN_POINT('Line Origine',(-42.5,-10.25,0.)) ;
#224=CARTESIAN_POINT('Vertex',(-42.5,-10.5,0.)) ;
#227=CARTESIAN_POINT('Axis2P3D Location',(-35.,-10.5,0.)) ;
#231=CARTESIAN_POINT('Vertex',(-35.,-18.,0.)) ;
#234=CARTESIAN_POINT('Line Origine',(0.,-18.,0.)) ;
#238=CARTESIAN_POINT('Vertex',(35.,-18.,0.)) ;
#241=CARTESIAN_POINT('Axis2P3D Location',(35.,-10.5,0.)) ;
#245=CARTESIAN_POINT('Vertex',(42.5,-10.5,0.)) ;
#248=CARTESIAN_POINT('Line Origine',(42.5,-10.25,0.)) ;
#252=CARTESIAN_POINT('Vertex',(42.5,-10.,0.)) ;
#255=CARTESIAN_POINT('Line Origine',(41.,-10.,0.)) ;
#259=CARTESIAN_POINT('Vertex',(39.5,-10.,0.)) ;
#262=CARTESIAN_POINT('Line Origine',(39.5,-11.,0.)) ;
#266=CARTESIAN_POINT('Vertex',(39.5,-12.,0.)) ;
#269=CARTESIAN_POINT('Line Origine',(33.5,-12.,0.)) ;
#273=CARTESIAN_POINT('Vertex',(27.5,-12.,0.)) ;
#276=CARTESIAN_POINT('Line Origine',(27.5,-10.,0.)) ;
#280=CARTESIAN_POINT('Vertex',(27.5,-8.,0.)) ;
#283=CARTESIAN_POINT('Line Origine',(31.,-8.,0.)) ;
#287=CARTESIAN_POINT('Vertex',(34.5,-8.,0.)) ;
#290=CARTESIAN_POINT('Line Origine',(34.5,-6.75,0.)) ;
#294=CARTESIAN_POINT('Vertex',(34.5,-5.5,0.)) ;
#297=CARTESIAN_POINT('Line Origine',(29.5,-5.5,0.)) ;
#301=CARTESIAN_POINT('Vertex',(24.5,-5.5,0.)) ;
#304=CARTESIAN_POINT('Line Origine',(24.5,-2.75,0.)) ;
#308=CARTESIAN_POINT('Vertex',(24.5,-2.6645352591E-015,0.)) ;
#311=CARTESIAN_POINT('Line Origine',(24.5,2.75,0.)) ;
#315=CARTESIAN_POINT('Vertex',(24.5,5.5,0.)) ;
#318=CARTESIAN_POINT('Line Origine',(29.5,5.5,0.)) ;
#322=CARTESIAN_POINT('Vertex',(34.5,5.5,0.)) ;
#325=CARTESIAN_POINT('Line Origine',(34.5,6.75,0.)) ;
#329=CARTESIAN_POINT('Vertex',(34.5,8.,0.)) ;
#332=CARTESIAN_POINT('Line Origine',(31.,8.,0.)) ;
#336=CARTESIAN_POINT('Vertex',(27.5,8.,0.)) ;
#339=CARTESIAN_POINT('Line Origine',(27.5,10.,0.)) ;
#343=CARTESIAN_POINT('Vertex',(27.5,12.,0.)) ;
#346=CARTESIAN_POINT('Line Origine',(33.5,12.,0.)) ;
#395=CARTESIAN_POINT('Line Origine',(-20.,0.,0.)) ;
#399=CARTESIAN_POINT('Vertex',(-20.,10.5,0.)) ;
#401=CARTESIAN_POINT('Vertex',(-20.,-10.5,0.)) ;
#404=CARTESIAN_POINT('Axis2P3D Location',(-16.,10.5,0.)) ;
#408=CARTESIAN_POINT('Vertex',(-12.,10.5,0.)) ;
#411=CARTESIAN_POINT('Line Origine',(-12.,-5.3290705182E-015,0.)) ;
#415=CARTESIAN_POINT('Vertex',(-12.,-10.5,0.)) ;
#418=CARTESIAN_POINT('Axis2P3D Location',(-16.,-10.5,0.)) ;
#429=CARTESIAN_POINT('Line Origine',(20.,0.,0.)) ;
#433=CARTESIAN_POINT('Vertex',(20.,10.5,0.)) ;
#435=CARTESIAN_POINT('Vertex',(20.,-10.5,0.)) ;
#438=CARTESIAN_POINT('Axis2P3D Location',(16.,-10.5,0.)) ;
#442=CARTESIAN_POINT('Vertex',(12.,-10.5,0.)) ;
#445=CARTESIAN_POINT('Line Origine',(12.,-3.5527136788E-015,0.)) ;
#449=CARTESIAN_POINT('Vertex',(12.,10.5,0.)) ;
#452=CARTESIAN_POINT('Axis2P3D Location',(16.,10.5,0.)) ;
#463=CARTESIAN_POINT('Axis2P3D Location',(-25.,14.,0.)) ;
#467=CARTESIAN_POINT('Vertex',(-26.25,14.,0.)) ;
#469=CARTESIAN_POINT('Vertex',(-23.75,14.,0.)) ;
#472=CARTESIAN_POINT('Axis2P3D Location',(-25.,14.,0.)) ;
#481=CARTESIAN_POINT('Axis2P3D Location',(25.,-14.,0.)) ;
#485=CARTESIAN_POINT('Vertex',(26.25,-14.,0.)) ;
#487=CARTESIAN_POINT('Vertex',(23.75,-14.,0.)) ;
#490=CARTESIAN_POINT('Axis2P3D Location',(25.,-14.,0.)) ;
#499=CARTESIAN_POINT('Axis2P3D Location',(-25.,-14.,0.)) ;
#503=CARTESIAN_POINT('Vertex',(-26.25,-14.,0.)) ;
#505=CARTESIAN_POINT('Vertex',(-23.75,-14.,0.)) ;
#508=CARTESIAN_POINT('Axis2P3D Location',(-25.,-14.,0.)) ;
#517=CARTESIAN_POINT('Axis2P3D Location',(25.,14.,0.)) ;
#521=CARTESIAN_POINT('Vertex',(26.25,14.,0.)) ;
#523=CARTESIAN_POINT('Vertex',(23.75,14.,0.)) ;
#526=CARTESIAN_POINT('Axis2P3D Location',(25.,14.,0.)) ;
#536=CARTESIAN_POINT('Axis2P3D Location',(35.,10.5,0.)) ;
#541=CARTESIAN_POINT('Line Origine',(42.5,10.5,0.)) ;
#545=CARTESIAN_POINT('Vertex',(42.5,10.5,-4.)) ;
#548=CARTESIAN_POINT('Axis2P3D Location',(35.,10.5,-4.)) ;
#552=CARTESIAN_POINT('Vertex',(35.,18.,-4.)) ;
#555=CARTESIAN_POINT('Line Origine',(35.,18.,0.)) ;
#567=CARTESIAN_POINT('Axis2P3D Location',(-35.,10.5,0.)) ;
#572=CARTESIAN_POINT('Line Origine',(-35.,18.,0.)) ;
#576=CARTESIAN_POINT('Vertex',(-35.,18.,-4.)) ;
#579=CARTESIAN_POINT('Axis2P3D Location',(-35.,10.5,-4.)) ;
#583=CARTESIAN_POINT('Vertex',(-42.5,10.5,-4.)) ;
#586=CARTESIAN_POINT('Line Origine',(-42.5,10.5,0.)) ;
#598=CARTESIAN_POINT('Axis2P3D Location',(34.5,-5.5,0.)) ;
#603=CARTESIAN_POINT('Line Origine',(-24.5,-5.5,-1.)) ;
#607=CARTESIAN_POINT('Vertex',(-24.5,-5.5,-2.)) ;
#610=CARTESIAN_POINT('Line Origine',(-29.5,-5.5,-2.)) ;
#614=CARTESIAN_POINT('Vertex',(-34.5,-5.5,-2.)) ;
#617=CARTESIAN_POINT('Line Origine',(-34.5,-5.5,-1.)) ;
#629=CARTESIAN_POINT('Axis2P3D Location',(27.5,-8.,0.)) ;
#634=CARTESIAN_POINT('Line Origine',(-34.5,-8.,-1.)) ;
#638=CARTESIAN_POINT('Vertex',(-34.5,-8.,-2.)) ;
#641=CARTESIAN_POINT('Line Origine',(-31.,-8.,-2.)) ;
#645=CARTESIAN_POINT('Vertex',(-27.5,-8.,-2.)) ;
#648=CARTESIAN_POINT('Line Origine',(-27.5,-8.,-1.)) ;
#660=CARTESIAN_POINT('Axis2P3D Location',(39.5,-12.,0.)) ;
#665=CARTESIAN_POINT('Line Origine',(-27.5,-12.,-1.)) ;
#669=CARTESIAN_POINT('Vertex',(-27.5,-12.,-2.)) ;
#672=CARTESIAN_POINT('Line Origine',(-33.5,-12.,-2.)) ;
#676=CARTESIAN_POINT('Vertex',(-39.5,-12.,-2.)) ;
#679=CARTESIAN_POINT('Line Origine',(-39.5,-12.,-1.)) ;
#691=CARTESIAN_POINT('Axis2P3D Location',(42.5,-10.,0.)) ;
#696=CARTESIAN_POINT('Line Origine',(-39.5,-10.,-1.)) ;
#700=CARTESIAN_POINT('Vertex',(-39.5,-10.,-2.)) ;
#703=CARTESIAN_POINT('Line Origine',(-41.,-10.,-2.)) ;
#707=CARTESIAN_POINT('Vertex',(-42.5,-10.,-2.)) ;
#710=CARTESIAN_POINT('Line Origine',(-42.5,-10.,-1.)) ;
#722=CARTESIAN_POINT('Axis2P3D Location',(-35.,-10.5,0.)) ;
#727=CARTESIAN_POINT('Line Origine',(-42.5,-10.5,0.)) ;
#731=CARTESIAN_POINT('Vertex',(-42.5,-10.5,-4.)) ;
#734=CARTESIAN_POINT('Axis2P3D Location',(-35.,-10.5,-4.)) ;
#738=CARTESIAN_POINT('Vertex',(-35.,-18.,-4.)) ;
#741=CARTESIAN_POINT('Line Origine',(-35.,-18.,0.)) ;
#753=CARTESIAN_POINT('Axis2P3D Location',(35.,-10.5,0.)) ;
#758=CARTESIAN_POINT('Line Origine',(35.,-18.,0.)) ;
#762=CARTESIAN_POINT('Vertex',(35.,-18.,-4.)) ;
#765=CARTESIAN_POINT('Axis2P3D Location',(35.,-10.5,-4.)) ;
#769=CARTESIAN_POINT('Vertex',(42.5,-10.5,-4.)) ;
#772=CARTESIAN_POINT('Line Origine',(42.5,-10.5,0.)) ;
#784=CARTESIAN_POINT('Line Origine',(42.5,-10.,-1.)) ;
#788=CARTESIAN_POINT('Vertex',(42.5,-10.,-2.)) ;
#791=CARTESIAN_POINT('Line Origine',(41.,-10.,-2.)) ;
#795=CARTESIAN_POINT('Vertex',(39.5,-10.,-2.)) ;
#798=CARTESIAN_POINT('Line Origine',(39.5,-10.,-1.)) ;
#810=CARTESIAN_POINT('Line Origine',(39.5,-12.,-1.)) ;
#814=CARTESIAN_POINT('Vertex',(39.5,-12.,-2.)) ;
#817=CARTESIAN_POINT('Line Origine',(33.5,-12.,-2.)) ;
#821=CARTESIAN_POINT('Vertex',(27.5,-12.,-2.)) ;
#824=CARTESIAN_POINT('Line Origine',(27.5,-12.,-1.)) ;
#836=CARTESIAN_POINT('Line Origine',(27.5,-8.,-1.)) ;
#840=CARTESIAN_POINT('Vertex',(27.5,-8.,-2.)) ;
#843=CARTESIAN_POINT('Line Origine',(31.,-8.,-2.)) ;
#847=CARTESIAN_POINT('Vertex',(34.5,-8.,-2.)) ;
#850=CARTESIAN_POINT('Line Origine',(34.5,-8.,-1.)) ;
#862=CARTESIAN_POINT('Line Origine',(34.5,-5.5,-1.)) ;
#866=CARTESIAN_POINT('Vertex',(34.5,-5.5,-2.)) ;
#869=CARTESIAN_POINT('Line Origine',(29.5,-5.5,-2.)) ;
#873=CARTESIAN_POINT('Vertex',(24.5,-5.5,-2.)) ;
#876=CARTESIAN_POINT('Line Origine',(24.5,-5.5,-1.)) ;
#888=CARTESIAN_POINT('Axis2P3D Location',(20.,10.5,0.)) ;
#893=CARTESIAN_POINT('Line Origine',(20.,10.5,-2.)) ;
#897=CARTESIAN_POINT('Vertex',(20.,10.5,-4.)) ;
#900=CARTESIAN_POINT('Line Origine',(20.,0.,-4.)) ;
#904=CARTESIAN_POINT('Vertex',(20.,-10.5,-4.)) ;
#907=CARTESIAN_POINT('Line Origine',(20.,-10.5,-2.)) ;
#919=CARTESIAN_POINT('Axis2P3D Location',(12.,-10.5,0.)) ;
#924=CARTESIAN_POINT('Line Origine',(12.,-10.5,-2.)) ;
#928=CARTESIAN_POINT('Vertex',(12.,-10.5,-4.)) ;
#931=CARTESIAN_POINT('Line Origine',(12.,-3.5527136788E-015,-4.)) ;
#935=CARTESIAN_POINT('Vertex',(12.,10.5,-4.)) ;
#938=CARTESIAN_POINT('Line Origine',(12.,10.5,-2.)) ;
#950=CARTESIAN_POINT('Axis2P3D Location',(0.,0.,-4.)) ;
#955=CARTESIAN_POINT('Axis2P3D Location',(-50.,2.6645352591E-015,-4.)) ;
#959=CARTESIAN_POINT('Vertex',(-42.5,-8.04673846972,-4.)) ;
#961=CARTESIAN_POINT('Vertex',(-39.,-2.69422295812E-015,-4.)) ;
#964=CARTESIAN_POINT('Axis2P3D Location',(-50.,1.7763568394E-014,-4.)) ;
#968=CARTESIAN_POINT('Vertex',(-42.5,8.04673846972,-4.)) ;
#971=CARTESIAN_POINT('Line Origine',(-42.5,9.27336923486,-4.)) ;
#976=CARTESIAN_POINT('Line Origine',(0.,18.,-4.)) ;
#981=CARTESIAN_POINT('Line Origine',(42.5,9.27336923486,-4.)) ;
#985=CARTESIAN_POINT('Vertex',(42.5,8.04673846972,-4.)) ;
#988=CARTESIAN_POINT('Axis2P3D Location',(50.,7.1054273576E-015,-4.)) ;
#992=CARTESIAN_POINT('Vertex',(39.,1.34711147906E-015,-4.)) ;
#995=CARTESIAN_POINT('Axis2P3D Location',(50.,2.22044604925E-015,-4.)) ;
#999=CARTESIAN_POINT('Vertex',(42.5,-8.04673846972,-4.)) ;
#1002=CARTESIAN_POINT('Line Origine',(42.5,-9.27336923486,-4.)) ;
#1007=CARTESIAN_POINT('Line Origine',(0.,-18.,-4.)) ;
#1012=CARTESIAN_POINT('Line Origine',(-42.5,-9.27336923486,-4.)) ;
#1033=CARTESIAN_POINT('Axis2P3D Location',(16.,10.5,-4.)) ;
#1038=CARTESIAN_POINT('Axis2P3D Location',(16.,-10.5,-4.)) ;
#1049=CARTESIAN_POINT('Line Origine',(-20.,0.,-4.)) ;
#1053=CARTESIAN_POINT('Vertex',(-20.,10.5,-4.)) ;
#1055=CARTESIAN_POINT('Vertex',(-20.,-10.5,-4.)) ;
#1058=CARTESIAN_POINT('Axis2P3D Location',(-16.,-10.5,-4.)) ;
#1062=CARTESIAN_POINT('Vertex',(-12.,-10.5,-4.)) ;
#1065=CARTESIAN_POINT('Line Origine',(-12.,-5.3290705182E-015,-4.)) ;
#1069=CARTESIAN_POINT('Vertex',(-12.,10.5,-4.)) ;
#1072=CARTESIAN_POINT('Axis2P3D Location',(-16.,10.5,-4.)) ;
#1084=CARTESIAN_POINT('Axis2P3D Location',(50.,0.,-0.660000000075)) ;
#1089=CARTESIAN_POINT('Axis2P3D Location',(50.,0.,-2.)) ;
#1093=CARTESIAN_POINT('Vertex',(39.,1.34711147906E-015,-2.)) ;
#1095=CARTESIAN_POINT('Vertex',(42.5,-8.04673846972,-2.)) ;
#1098=CARTESIAN_POINT('Line Origine',(42.5,-8.04673846972,-0.660000000075)) ;
#1103=CARTESIAN_POINT('Line Origine',(39.,1.34711147906E-015,-0.660000000075)) ;
#1115=CARTESIAN_POINT('Line Origine',(42.5,8.04673846972,-0.660000000075)) ;
#1119=CARTESIAN_POINT('Vertex',(42.5,8.04673846972,-2.)) ;
#1122=CARTESIAN_POINT('Axis2P3D Location',(50.,0.,-2.)) ;
#1134=CARTESIAN_POINT('Axis2P3D Location',(-50.,0.,-0.660000000075)) ;
#1139=CARTESIAN_POINT('Axis2P3D Location',(-50.,0.,-2.)) ;
#1143=CARTESIAN_POINT('Vertex',(-39.,-2.69422295812E-015,-2.)) ;
#1145=CARTESIAN_POINT('Vertex',(-42.5,8.04673846972,-2.)) ;
#1148=CARTESIAN_POINT('Line Origine',(-42.5,8.04673846972,-0.660000000075)) ;
#1153=CARTESIAN_POINT('Line Origine',(-39.,-2.69422295812E-015,-0.660000000075)) ;
#1165=CARTESIAN_POINT('Line Origine',(-42.5,-8.04673846972,-0.660000000075)) ;
#1169=CARTESIAN_POINT('Vertex',(-42.5,-8.04673846972,-2.)) ;
#1172=CARTESIAN_POINT('Axis2P3D Location',(-50.,0.,-2.)) ;
#1184=CARTESIAN_POINT('Axis2P3D Location',(0.,0.,-3.)) ;
#1189=CARTESIAN_POINT('Axis2P3D Location',(25.,14.,-3.)) ;
#1193=CARTESIAN_POINT('Vertex',(26.25,14.,-3.)) ;
#1195=CARTESIAN_POINT('Vertex',(23.75,14.,-3.)) ;
#1198=CARTESIAN_POINT('Axis2P3D Location',(25.,14.,-3.)) ;
#1208=CARTESIAN_POINT('Axis2P3D Location',(-25.,-14.,-3.)) ;
#1212=CARTESIAN_POINT('Vertex',(-26.25,-14.,-3.)) ;
#1214=CARTESIAN_POINT('Vertex',(-23.75,-14.,-3.)) ;
#1217=CARTESIAN_POINT('Axis2P3D Location',(-25.,-14.,-3.)) ;
#1227=CARTESIAN_POINT('Axis2P3D Location',(25.,-14.,-3.)) ;
#1231=CARTESIAN_POINT('Vertex',(26.25,-14.,-3.)) ;
#1233=CARTESIAN_POINT('Vertex',(23.75,-14.,-3.)) ;
#1236=CARTESIAN_POINT('Axis2P3D Location',(25.,-14.,-3.)) ;
#1246=CARTESIAN_POINT('Axis2P3D Location',(-25.,14.,-3.)) ;
#1250=CARTESIAN_POINT('Vertex',(-26.25,14.,-3.)) ;
#1252=CARTESIAN_POINT('Vertex',(-23.75,14.,-3.)) ;
#1255=CARTESIAN_POINT('Axis2P3D Location',(-25.,14.,-3.)) ;
#1265=CARTESIAN_POINT('Axis2P3D Location',(0.,0.,-2.)) ;
#1270=CARTESIAN_POINT('Line Origine',(42.5,9.02336923486,-2.)) ;
#1274=CARTESIAN_POINT('Vertex',(42.5,10.,-2.)) ;
#1277=CARTESIAN_POINT('Line Origine',(41.,10.,-2.)) ;
#1281=CARTESIAN_POINT('Vertex',(39.5,10.,-2.)) ;
#1284=CARTESIAN_POINT('Line Origine',(39.5,11.,-2.)) ;
#1288=CARTESIAN_POINT('Vertex',(39.5,12.,-2.)) ;
#1291=CARTESIAN_POINT('Line Origine',(33.5,12.,-2.)) ;
#1295=CARTESIAN_POINT('Vertex',(27.5,12.,-2.)) ;
#1298=CARTESIAN_POINT('Line Origine',(27.5,10.,-2.)) ;
#1302=CARTESIAN_POINT('Vertex',(27.5,8.,-2.)) ;
#1305=CARTESIAN_POINT('Line Origine',(31.,8.,-2.)) ;
#1309=CARTESIAN_POINT('Vertex',(34.5,8.,-2.)) ;
#1312=CARTESIAN_POINT('Line Origine',(34.5,6.75,-2.)) ;
#1316=CARTESIAN_POINT('Vertex',(34.5,5.5,-2.)) ;
#1319=CARTESIAN_POINT('Line Origine',(29.5,5.5,-2.)) ;
#1323=CARTESIAN_POINT('Vertex',(24.5,5.5,-2.)) ;
#1326=CARTESIAN_POINT('Line Origine',(24.5,2.75,-2.)) ;
#1330=CARTESIAN_POINT('Vertex',(24.5,-2.6645352591E-015,-2.)) ;
#1333=CARTESIAN_POINT('Line Origine',(24.5,-2.75,-2.)) ;
#1338=CARTESIAN_POINT('Line Origine',(34.5,-6.75,-2.)) ;
#1343=CARTESIAN_POINT('Line Origine',(27.5,-10.,-2.)) ;
#1348=CARTESIAN_POINT('Line Origine',(39.5,-11.,-2.)) ;
#1353=CARTESIAN_POINT('Line Origine',(42.5,-9.02336923486,-2.)) ;
#1381=CARTESIAN_POINT('Line Origine',(-42.5,-9.02336923486,-2.)) ;
#1386=CARTESIAN_POINT('Line Origine',(-39.5,-11.,-2.)) ;
#1391=CARTESIAN_POINT('Line Origine',(-27.5,-10.,-2.)) ;
#1396=CARTESIAN_POINT('Line Origine',(-34.5,-6.75,-2.)) ;
#1401=CARTESIAN_POINT('Line Origine',(-24.5,-2.75,-2.)) ;
#1405=CARTESIAN_POINT('Vertex',(-24.5,3.00978692851E-015,-2.)) ;
#1408=CARTESIAN_POINT('Line Origine',(-24.5,2.75,-2.)) ;
#1412=CARTESIAN_POINT('Vertex',(-24.5,5.5,-2.)) ;
#1415=CARTESIAN_POINT('Line Origine',(-29.5,5.5,-2.)) ;
#1419=CARTESIAN_POINT('Vertex',(-34.5,5.5,-2.)) ;
#1422=CARTESIAN_POINT('Line Origine',(-34.5,6.75,-2.)) ;
#1426=CARTESIAN_POINT('Vertex',(-34.5,8.,-2.)) ;
#1429=CARTESIAN_POINT('Line Origine',(-31.,8.,-2.)) ;
#1433=CARTESIAN_POINT('Vertex',(-27.5,8.,-2.)) ;
#1436=CARTESIAN_POINT('Line Origine',(-27.5,10.,-2.)) ;
#1440=CARTESIAN_POINT('Vertex',(-27.5,12.,-2.)) ;
#1443=CARTESIAN_POINT('Line Origine',(-33.5,12.,-2.)) ;
#1447=CARTESIAN_POINT('Vertex',(-39.5,12.,-2.)) ;
#1450=CARTESIAN_POINT('Line Origine',(-39.5,11.,-2.)) ;
#1454=CARTESIAN_POINT('Vertex',(-39.5,10.,-2.)) ;
#1457=CARTESIAN_POINT('Line Origine',(-41.,10.,-2.)) ;
#1461=CARTESIAN_POINT('Vertex',(-42.5,10.,-2.)) ;
#1464=CARTESIAN_POINT('Line Origine',(-42.5,9.02336923486,-2.)) ;
#1492=CARTESIAN_POINT('Axis2P3D Location',(25.,14.,0.5)) ;
#1497=CARTESIAN_POINT('Line Origine',(26.25,14.,0.5)) ;
#1502=CARTESIAN_POINT('Line Origine',(23.75,14.,0.5)) ;
#1521=CARTESIAN_POINT('Axis2P3D Location',(-25.,-14.,0.5)) ;
#1526=CARTESIAN_POINT('Line Origine',(-26.25,-14.,0.5)) ;
#1531=CARTESIAN_POINT('Line Origine',(-23.75,-14.,0.5)) ;
#1550=CARTESIAN_POINT('Axis2P3D Location',(25.,-14.,0.5)) ;
#1555=CARTESIAN_POINT('Line Origine',(26.25,-14.,0.5)) ;
#1560=CARTESIAN_POINT('Line Origine',(23.75,-14.,0.5)) ;
#1579=CARTESIAN_POINT('Axis2P3D Location',(-25.,14.,0.5)) ;
#1584=CARTESIAN_POINT('Line Origine',(-26.25,14.,0.5)) ;
#1589=CARTESIAN_POINT('Line Origine',(-23.75,14.,0.5)) ;
#1608=CARTESIAN_POINT('Axis2P3D Location',(16.,10.5,0.)) ;
#1620=CARTESIAN_POINT('Axis2P3D Location',(16.,-10.5,0.)) ;
#1632=CARTESIAN_POINT('Axis2P3D Location',(-16.,-10.5,0.)) ;
#1637=CARTESIAN_POINT('Line Origine',(-12.,-10.5,0.)) ;
#1642=CARTESIAN_POINT('Line Origine',(-20.,-10.5,0.)) ;
#1654=CARTESIAN_POINT('Axis2P3D Location',(-12.,-10.5,0.)) ;
#1659=CARTESIAN_POINT('Line Origine',(-12.,10.5,-2.)) ;
#1671=CARTESIAN_POINT('Axis2P3D Location',(-16.,10.5,0.)) ;
#1676=CARTESIAN_POINT('Line Origine',(-20.,10.5,0.)) ;
#1688=CARTESIAN_POINT('Axis2P3D Location',(-20.,10.5,0.)) ;
#1700=CARTESIAN_POINT('Axis2P3D Location',(39.5,12.,0.)) ;
#1705=CARTESIAN_POINT('Line Origine',(27.5,12.,-1.)) ;
#1710=CARTESIAN_POINT('Line Origine',(39.5,12.,-1.)) ;
#1722=CARTESIAN_POINT('Axis2P3D Location',(27.5,12.,0.)) ;
#1727=CARTESIAN_POINT('Line Origine',(27.5,8.,-1.)) ;
#1739=CARTESIAN_POINT('Axis2P3D Location',(27.5,8.,0.)) ;
#1744=CARTESIAN_POINT('Line Origine',(34.5,8.,-1.)) ;
#1756=CARTESIAN_POINT('Axis2P3D Location',(34.5,8.,0.)) ;
#1761=CARTESIAN_POINT('Line Origine',(34.5,5.5,-1.)) ;
#1773=CARTESIAN_POINT('Axis2P3D Location',(34.5,5.5,0.)) ;
#1778=CARTESIAN_POINT('Line Origine',(24.5,5.5,-1.)) ;
#1790=CARTESIAN_POINT('Axis2P3D Location',(24.5,5.5,0.)) ;
#1795=CARTESIAN_POINT('Line Origine',(24.5,-2.6645352591E-015,-1.)) ;
#1828=CARTESIAN_POINT('Axis2P3D Location',(39.5,10.,0.)) ;
#1840=CARTESIAN_POINT('Axis2P3D Location',(42.5,10.5,0.)) ;
#1854=CARTESIAN_POINT('Axis2P3D Location',(35.,-18.,0.)) ;
#1866=CARTESIAN_POINT('Axis2P3D Location',(-42.5,-10.5,0.)) ;
#1880=CARTESIAN_POINT('Axis2P3D Location',(-39.5,-10.,0.)) ;
#1892=CARTESIAN_POINT('Axis2P3D Location',(-27.5,-12.,0.)) ;
#1904=CARTESIAN_POINT('Axis2P3D Location',(-34.5,-8.,0.)) ;
#1916=CARTESIAN_POINT('Axis2P3D Location',(-24.5,-5.5,0.)) ;
#1921=CARTESIAN_POINT('Line Origine',(-24.5,2.6645352591E-015,-1.)) ;
#1933=CARTESIAN_POINT('Line Origine',(-24.5,5.5,-1.)) ;
#1945=CARTESIAN_POINT('Line Origine',(-34.5,5.5,-1.)) ;
#1957=CARTESIAN_POINT('Line Origine',(-34.5,8.,-1.)) ;
#1969=CARTESIAN_POINT('Line Origine',(-27.5,8.,-1.)) ;
#1981=CARTESIAN_POINT('Line Origine',(-27.5,12.,-1.)) ;
#1993=CARTESIAN_POINT('Line Origine',(-39.5,12.,-1.)) ;
#2005=CARTESIAN_POINT('Line Origine',(-39.5,10.,-1.)) ;
#2017=CARTESIAN_POINT('Axis2P3D Location',(42.5,10.,0.)) ;
#2022=CARTESIAN_POINT('Line Origine',(-42.5,10.,-1.)) ;
#2043=CARTESIAN_POINT('Axis2P3D Location',(-35.,18.,0.)) ;
#2055=CARTESIAN_POINT('Line Origine',(42.5,10.,-1.)) ;
#2069=CARTESIAN_POINT('Line Origine',(39.5,10.,-1.)) ;
#53=DIRECTION('Axis2P3D Direction',(0.,0.,1.)) ;
#54=DIRECTION('Axis2P3D XDirection',(1.,0.,0.)) ;
#58=DIRECTION('Vector Direction',(0.,1.,0.)) ;
#67=DIRECTION('Vector Direction',(-1.,0.,0.)) ;
#74=DIRECTION('Vector Direction',(0.,-1.,0.)) ;
#81=DIRECTION('Axis2P3D Direction',(0.,0.,1.)) ;
#88=DIRECTION('Vector Direction',(1.,0.,0.)) ;
#95=DIRECTION('Axis2P3D Direction',(0.,0.,1.)) ;
#102=DIRECTION('Vector Direction',(0.,1.,0.)) ;
#109=DIRECTION('Vector Direction',(-1.,0.,0.)) ;
#116=DIRECTION('Vector Direction',(0.,-1.,0.)) ;
#123=DIRECTION('Vector Direction',(-1.,0.,0.)) ;
#130=DIRECTION('Vector Direction',(0.,1.,0.)) ;
#137=DIRECTION('Vector Direction',(1.,0.,0.)) ;
#144=DIRECTION('Vector Direction',(0.,1.,0.)) ;
#151=DIRECTION('Vector Direction',(-1.,0.,0.)) ;
#158=DIRECTION('Vector Direction',(0.,1.,0.)) ;
#165=DIRECTION('Vector Direction',(0.,1.,0.)) ;
#172=DIRECTION('Vector Direction',(-1.,0.,0.)) ;
#179=DIRECTION('Vector Direction',(0.,1.,0.)) ;
#186=DIRECTION('Vector Direction',(1.,0.,0.)) ;
#193=DIRECTION('Vector Direction',(0.,1.,0.)) ;
#200=DIRECTION('Vector Direction',(-1.,0.,0.)) ;
#207=DIRECTION('Vector Direction',(0.,-1.,0.)) ;
#214=DIRECTION('Vector Direction',(-1.,0.,0.)) ;
#221=DIRECTION('Vector Direction',(0.,1.,0.)) ;
#228=DIRECTION('Axis2P3D Direction',(0.,0.,1.)) ;
#235=DIRECTION('Vector Direction',(-1.,0.,0.)) ;
#242=DIRECTION('Axis2P3D Direction',(0.,0.,1.)) ;
#249=DIRECTION('Vector Direction',(0.,-1.,0.)) ;
#256=DIRECTION('Vector Direction',(-1.,0.,0.)) ;
#263=DIRECTION('Vector Direction',(0.,1.,0.)) ;
#270=DIRECTION('Vector Direction',(-1.,0.,0.)) ;
#277=DIRECTION('Vector Direction',(0.,-1.,0.)) ;
#284=DIRECTION('Vector Direction',(1.,0.,0.)) ;
#291=DIRECTION('Vector Direction',(0.,-1.,0.)) ;
#298=DIRECTION('Vector Direction',(-1.,0.,0.)) ;
#305=DIRECTION('Vector Direction',(0.,-1.,0.)) ;
#312=DIRECTION('Vector Direction',(0.,-1.,0.)) ;
#319=DIRECTION('Vector Direction',(-1.,0.,0.)) ;
#326=DIRECTION('Vector Direction',(0.,-1.,0.)) ;
#333=DIRECTION('Vector Direction',(1.,0.,0.)) ;
#340=DIRECTION('Vector Direction',(0.,-1.,0.)) ;
#347=DIRECTION('Vector Direction',(-1.,0.,0.)) ;
#396=DIRECTION('Vector Direction',(0.,-1.,0.)) ;
#405=DIRECTION('Axis2P3D Direction',(0.,0.,1.)) ;
#412=DIRECTION('Vector Direction',(0.,1.,0.)) ;
#419=DIRECTION('Axis2P3D Direction',(0.,0.,1.)) ;
#430=DIRECTION('Vector Direction',(0.,-1.,0.)) ;
#439=DIRECTION('Axis2P3D Direction',(0.,0.,1.)) ;
#446=DIRECTION('Vector Direction',(0.,1.,0.)) ;
#453=DIRECTION('Axis2P3D Direction',(0.,0.,1.)) ;
#464=DIRECTION('Axis2P3D Direction',(0.,0.,1.)) ;
#473=DIRECTION('Axis2P3D Direction',(0.,0.,1.)) ;
#482=DIRECTION('Axis2P3D Direction',(0.,0.,1.)) ;
#491=DIRECTION('Axis2P3D Direction',(0.,0.,1.)) ;
#500=DIRECTION('Axis2P3D Direction',(0.,0.,1.)) ;
#509=DIRECTION('Axis2P3D Direction',(0.,0.,1.)) ;
#518=DIRECTION('Axis2P3D Direction',(0.,0.,1.)) ;
#527=DIRECTION('Axis2P3D Direction',(0.,0.,1.)) ;
#537=DIRECTION('Axis2P3D Direction',(0.,0.,1.)) ;
#538=DIRECTION('Axis2P3D XDirection',(1.,2.36847578587E-016,0.)) ;
#542=DIRECTION('Vector Direction',(0.,0.,1.)) ;
#549=DIRECTION('Axis2P3D Direction',(0.,0.,1.)) ;
#556=DIRECTION('Vector Direction',(0.,0.,1.)) ;
#568=DIRECTION('Axis2P3D Direction',(0.,0.,1.)) ;
#569=DIRECTION('Axis2P3D XDirection',(2.83276944882E-016,1.,0.)) ;
#573=DIRECTION('Vector Direction',(0.,0.,1.)) ;
#580=DIRECTION('Axis2P3D Direction',(0.,0.,1.)) ;
#587=DIRECTION('Vector Direction',(0.,0.,1.)) ;
#599=DIRECTION('Axis2P3D Direction',(-0.,-1.,-0.)) ;
#600=DIRECTION('Axis2P3D XDirection',(-1.,0.,0.)) ;
#604=DIRECTION('Vector Direction',(0.,0.,-1.)) ;
#611=DIRECTION('Vector Direction',(1.,0.,0.)) ;
#618=DIRECTION('Vector Direction',(0.,0.,-1.)) ;
#630=DIRECTION('Axis2P3D Direction',(-0.,1.,0.)) ;
#631=DIRECTION('Axis2P3D XDirection',(1.,0.,0.)) ;
#635=DIRECTION('Vector Direction',(0.,0.,-1.)) ;
#642=DIRECTION('Vector Direction',(-1.,0.,0.)) ;
#649=DIRECTION('Vector Direction',(0.,0.,-1.)) ;
#661=DIRECTION('Axis2P3D Direction',(-0.,-1.,-0.)) ;
#662=DIRECTION('Axis2P3D XDirection',(-1.,0.,0.)) ;
#666=DIRECTION('Vector Direction',(0.,0.,-1.)) ;
#673=DIRECTION('Vector Direction',(1.,0.,0.)) ;
#680=DIRECTION('Vector Direction',(0.,0.,-1.)) ;
#692=DIRECTION('Axis2P3D Direction',(-0.,-1.,-0.)) ;
#693=DIRECTION('Axis2P3D XDirection',(-1.,0.,0.)) ;
#697=DIRECTION('Vector Direction',(0.,0.,-1.)) ;
#704=DIRECTION('Vector Direction',(1.,0.,0.)) ;
#711=DIRECTION('Vector Direction',(0.,0.,-1.)) ;
#723=DIRECTION('Axis2P3D Direction',(0.,0.,1.)) ;
#724=DIRECTION('Axis2P3D XDirection',(-1.,1.45473230946E-015,0.)) ;
#728=DIRECTION('Vector Direction',(0.,0.,1.)) ;
#735=DIRECTION('Axis2P3D Direction',(0.,0.,1.)) ;
#742=DIRECTION('Vector Direction',(0.,0.,1.)) ;
#754=DIRECTION('Axis2P3D Direction',(0.,0.,1.)) ;
#755=DIRECTION('Axis2P3D XDirection',(7.04481399828E-016,-1.,0.)) ;
#759=DIRECTION('Vector Direction',(0.,0.,1.)) ;
#766=DIRECTION('Axis2P3D Direction',(0.,0.,1.)) ;
#773=DIRECTION('Vector Direction',(0.,0.,1.)) ;
#785=DIRECTION('Vector Direction',(0.,0.,-1.)) ;
#792=DIRECTION('Vector Direction',(-1.,0.,0.)) ;
#799=DIRECTION('Vector Direction',(0.,0.,-1.)) ;
#811=DIRECTION('Vector Direction',(0.,0.,-1.)) ;
#818=DIRECTION('Vector Direction',(-1.,0.,0.)) ;
#825=DIRECTION('Vector Direction',(0.,0.,-1.)) ;
#837=DIRECTION('Vector Direction',(0.,0.,-1.)) ;
#844=DIRECTION('Vector Direction',(1.,0.,0.)) ;
#851=DIRECTION('Vector Direction',(0.,0.,-1.)) ;
#863=DIRECTION('Vector Direction',(0.,0.,-1.)) ;
#870=DIRECTION('Vector Direction',(-1.,0.,0.)) ;
#877=DIRECTION('Vector Direction',(0.,0.,-1.)) ;
#889=DIRECTION('Axis2P3D Direction',(-1.,0.,0.)) ;
#890=DIRECTION('Axis2P3D XDirection',(0.,-1.,0.)) ;
#894=DIRECTION('Vector Direction',(0.,0.,-1.)) ;
#901=DIRECTION('Vector Direction',(0.,-1.,0.)) ;
#908=DIRECTION('Vector Direction',(0.,0.,1.)) ;
#920=DIRECTION('Axis2P3D Direction',(1.,0.,0.)) ;
#921=DIRECTION('Axis2P3D XDirection',(0.,1.,0.)) ;
#925=DIRECTION('Vector Direction',(0.,0.,1.)) ;
#932=DIRECTION('Vector Direction',(0.,1.,0.)) ;
#939=DIRECTION('Vector Direction',(0.,0.,1.)) ;
#951=DIRECTION('Axis2P3D Direction',(0.,0.,1.)) ;
#952=DIRECTION('Axis2P3D XDirection',(1.,0.,0.)) ;
#956=DIRECTION('Axis2P3D Direction',(0.,0.,1.)) ;
#965=DIRECTION('Axis2P3D Direction',(0.,0.,1.)) ;
#972=DIRECTION('Vector Direction',(0.,1.,0.)) ;
#977=DIRECTION('Vector Direction',(1.,0.,0.)) ;
#982=DIRECTION('Vector Direction',(0.,-1.,0.)) ;
#989=DIRECTION('Axis2P3D Direction',(0.,0.,1.)) ;
#996=DIRECTION('Axis2P3D Direction',(0.,0.,1.)) ;
#1003=DIRECTION('Vector Direction',(0.,-1.,0.)) ;
#1008=DIRECTION('Vector Direction',(-1.,0.,0.)) ;
#1013=DIRECTION('Vector Direction',(0.,1.,0.)) ;
#1034=DIRECTION('Axis2P3D Direction',(0.,0.,1.)) ;
#1039=DIRECTION('Axis2P3D Direction',(0.,0.,1.)) ;
#1050=DIRECTION('Vector Direction',(0.,-1.,0.)) ;
#1059=DIRECTION('Axis2P3D Direction',(0.,0.,1.)) ;
#1066=DIRECTION('Vector Direction',(0.,1.,0.)) ;
#1073=DIRECTION('Axis2P3D Direction',(0.,0.,1.)) ;
#1085=DIRECTION('Axis2P3D Direction',(0.,0.,1.)) ;
#1086=DIRECTION('Axis2P3D XDirection',(1.,0.,0.)) ;
#1090=DIRECTION('Axis2P3D Direction',(0.,0.,1.)) ;
#1099=DIRECTION('Vector Direction',(0.,0.,1.)) ;
#1104=DIRECTION('Vector Direction',(0.,0.,1.)) ;
#1116=DIRECTION('Vector Direction',(0.,0.,1.)) ;
#1123=DIRECTION('Axis2P3D Direction',(0.,0.,1.)) ;
#1135=DIRECTION('Axis2P3D Direction',(0.,0.,1.)) ;
#1136=DIRECTION('Axis2P3D XDirection',(-1.,1.22464679915E-016,0.)) ;
#1140=DIRECTION('Axis2P3D Direction',(0.,0.,1.)) ;
#1149=DIRECTION('Vector Direction',(0.,0.,1.)) ;
#1154=DIRECTION('Vector Direction',(0.,0.,1.)) ;
#1166=DIRECTION('Vector Direction',(0.,0.,1.)) ;
#1173=DIRECTION('Axis2P3D Direction',(0.,0.,1.)) ;
#1185=DIRECTION('Axis2P3D Direction',(0.,0.,1.)) ;
#1186=DIRECTION('Axis2P3D XDirection',(1.,0.,0.)) ;
#1190=DIRECTION('Axis2P3D Direction',(0.,0.,1.)) ;
#1199=DIRECTION('Axis2P3D Direction',(0.,0.,1.)) ;
#1209=DIRECTION('Axis2P3D Direction',(0.,0.,1.)) ;
#1218=DIRECTION('Axis2P3D Direction',(0.,0.,1.)) ;
#1228=DIRECTION('Axis2P3D Direction',(0.,0.,1.)) ;
#1237=DIRECTION('Axis2P3D Direction',(0.,0.,1.)) ;
#1247=DIRECTION('Axis2P3D Direction',(0.,0.,1.)) ;
#1256=DIRECTION('Axis2P3D Direction',(0.,0.,1.)) ;
#1266=DIRECTION('Axis2P3D Direction',(0.,0.,1.)) ;
#1267=DIRECTION('Axis2P3D XDirection',(1.,0.,0.)) ;
#1271=DIRECTION('Vector Direction',(0.,1.,0.)) ;
#1278=DIRECTION('Vector Direction',(-1.,0.,0.)) ;
#1285=DIRECTION('Vector Direction',(0.,1.,0.)) ;
#1292=DIRECTION('Vector Direction',(-1.,0.,0.)) ;
#1299=DIRECTION('Vector Direction',(0.,-1.,0.)) ;
#1306=DIRECTION('Vector Direction',(1.,0.,0.)) ;
#1313=DIRECTION('Vector Direction',(0.,-1.,0.)) ;
#1320=DIRECTION('Vector Direction',(-1.,0.,0.)) ;
#1327=DIRECTION('Vector Direction',(0.,-1.,0.)) ;
#1334=DIRECTION('Vector Direction',(0.,1.,0.)) ;
#1339=DIRECTION('Vector Direction',(0.,1.,0.)) ;
#1344=DIRECTION('Vector Direction',(0.,1.,0.)) ;
#1349=DIRECTION('Vector Direction',(0.,-1.,0.)) ;
#1354=DIRECTION('Vector Direction',(0.,-1.,0.)) ;
#1382=DIRECTION('Vector Direction',(0.,-1.,0.)) ;
#1387=DIRECTION('Vector Direction',(0.,-1.,0.)) ;
#1392=DIRECTION('Vector Direction',(0.,1.,0.)) ;
#1397=DIRECTION('Vector Direction',(0.,1.,0.)) ;
#1402=DIRECTION('Vector Direction',(0.,1.,0.)) ;
#1409=DIRECTION('Vector Direction',(0.,-1.,0.)) ;
#1416=DIRECTION('Vector Direction',(1.,0.,0.)) ;
#1423=DIRECTION('Vector Direction',(0.,-1.,0.)) ;
#1430=DIRECTION('Vector Direction',(-1.,0.,0.)) ;
#1437=DIRECTION('Vector Direction',(0.,-1.,0.)) ;
#1444=DIRECTION('Vector Direction',(1.,0.,0.)) ;
#1451=DIRECTION('Vector Direction',(0.,1.,0.)) ;
#1458=DIRECTION('Vector Direction',(1.,0.,0.)) ;
#1465=DIRECTION('Vector Direction',(0.,1.,0.)) ;
#1493=DIRECTION('Axis2P3D Direction',(0.,0.,1.)) ;
#1494=DIRECTION('Axis2P3D XDirection',(1.,0.,0.)) ;
#1498=DIRECTION('Vector Direction',(0.,0.,1.)) ;
#1503=DIRECTION('Vector Direction',(0.,0.,1.)) ;
#1522=DIRECTION('Axis2P3D Direction',(0.,0.,1.)) ;
#1523=DIRECTION('Axis2P3D XDirection',(-1.,1.22464679915E-016,0.)) ;
#1527=DIRECTION('Vector Direction',(0.,0.,1.)) ;
#1532=DIRECTION('Vector Direction',(0.,0.,1.)) ;
#1551=DIRECTION('Axis2P3D Direction',(0.,0.,1.)) ;
#1552=DIRECTION('Axis2P3D XDirection',(1.,0.,0.)) ;
#1556=DIRECTION('Vector Direction',(0.,0.,1.)) ;
#1561=DIRECTION('Vector Direction',(0.,0.,1.)) ;
#1580=DIRECTION('Axis2P3D Direction',(0.,0.,1.)) ;
#1581=DIRECTION('Axis2P3D XDirection',(-1.,1.22464679915E-016,0.)) ;
#1585=DIRECTION('Vector Direction',(0.,0.,1.)) ;
#1590=DIRECTION('Vector Direction',(0.,0.,1.)) ;
#1609=DIRECTION('Axis2P3D Direction',(0.,0.,1.)) ;
#1610=DIRECTION('Axis2P3D XDirection',(1.,0.,0.)) ;
#1621=DIRECTION('Axis2P3D Direction',(0.,0.,1.)) ;
#1622=DIRECTION('Axis2P3D XDirection',(-1.,-3.21624529935E-016,-0.)) ;
#1633=DIRECTION('Axis2P3D Direction',(0.,0.,1.)) ;
#1634=DIRECTION('Axis2P3D XDirection',(-1.,-3.21624529935E-016,-0.)) ;
#1638=DIRECTION('Vector Direction',(0.,0.,1.)) ;
#1643=DIRECTION('Vector Direction',(0.,0.,1.)) ;
#1655=DIRECTION('Axis2P3D Direction',(1.,0.,0.)) ;
#1656=DIRECTION('Axis2P3D XDirection',(0.,1.,0.)) ;
#1660=DIRECTION('Vector Direction',(0.,0.,1.)) ;
#1672=DIRECTION('Axis2P3D Direction',(0.,0.,1.)) ;
#1673=DIRECTION('Axis2P3D XDirection',(1.,4.4408920985E-016,0.)) ;
#1677=DIRECTION('Vector Direction',(0.,0.,1.)) ;
#1689=DIRECTION('Axis2P3D Direction',(-1.,0.,0.)) ;
#1690=DIRECTION('Axis2P3D XDirection',(0.,-1.,0.)) ;
#1701=DIRECTION('Axis2P3D Direction',(-0.,-1.,-0.)) ;
#1702=DIRECTION('Axis2P3D XDirection',(-1.,0.,0.)) ;
#1706=DIRECTION('Vector Direction',(0.,0.,-1.)) ;
#1711=DIRECTION('Vector Direction',(0.,0.,-1.)) ;
#1723=DIRECTION('Axis2P3D Direction',(1.,0.,0.)) ;
#1724=DIRECTION('Axis2P3D XDirection',(0.,-1.,0.)) ;
#1728=DIRECTION('Vector Direction',(0.,0.,-1.)) ;
#1740=DIRECTION('Axis2P3D Direction',(-0.,1.,0.)) ;
#1741=DIRECTION('Axis2P3D XDirection',(1.,0.,0.)) ;
#1745=DIRECTION('Vector Direction',(0.,0.,-1.)) ;
#1757=DIRECTION('Axis2P3D Direction',(1.,0.,0.)) ;
#1758=DIRECTION('Axis2P3D XDirection',(0.,-1.,0.)) ;
#1762=DIRECTION('Vector Direction',(0.,0.,-1.)) ;
#1774=DIRECTION('Axis2P3D Direction',(-0.,-1.,-0.)) ;
#1775=DIRECTION('Axis2P3D XDirection',(-1.,0.,0.)) ;
#1779=DIRECTION('Vector Direction',(0.,0.,-1.)) ;
#1791=DIRECTION('Axis2P3D Direction',(1.,0.,0.)) ;
#1792=DIRECTION('Axis2P3D XDirection',(0.,-1.,0.)) ;
#1796=DIRECTION('Vector Direction',(0.,0.,-1.)) ;
#1829=DIRECTION('Axis2P3D Direction',(-1.,0.,0.)) ;
#1830=DIRECTION('Axis2P3D XDirection',(0.,1.,0.)) ;
#1841=DIRECTION('Axis2P3D Direction',(-1.,0.,0.)) ;
#1842=DIRECTION('Axis2P3D XDirection',(0.,-1.,0.)) ;
#1855=DIRECTION('Axis2P3D Direction',(0.,1.,-0.)) ;
#1856=DIRECTION('Axis2P3D XDirection',(-1.,0.,0.)) ;
#1867=DIRECTION('Axis2P3D Direction',(1.,0.,0.)) ;
#1868=DIRECTION('Axis2P3D XDirection',(0.,1.,0.)) ;
#1881=DIRECTION('Axis2P3D Direction',(1.,0.,0.)) ;
#1882=DIRECTION('Axis2P3D XDirection',(0.,-1.,0.)) ;
#1893=DIRECTION('Axis2P3D Direction',(-1.,0.,0.)) ;
#1894=DIRECTION('Axis2P3D XDirection',(0.,1.,0.)) ;
#1905=DIRECTION('Axis2P3D Direction',(-1.,0.,0.)) ;
#1906=DIRECTION('Axis2P3D XDirection',(0.,1.,0.)) ;
#1917=DIRECTION('Axis2P3D Direction',(-1.,0.,0.)) ;
#1918=DIRECTION('Axis2P3D XDirection',(0.,1.,0.)) ;
#1922=DIRECTION('Vector Direction',(0.,0.,-1.)) ;
#1934=DIRECTION('Vector Direction',(0.,0.,-1.)) ;
#1946=DIRECTION('Vector Direction',(0.,0.,-1.)) ;
#1958=DIRECTION('Vector Direction',(0.,0.,-1.)) ;
#1970=DIRECTION('Vector Direction',(0.,0.,-1.)) ;
#1982=DIRECTION('Vector Direction',(0.,0.,-1.)) ;
#1994=DIRECTION('Vector Direction',(0.,0.,-1.)) ;
#2006=DIRECTION('Vector Direction',(0.,0.,-1.)) ;
#2018=DIRECTION('Axis2P3D Direction',(-0.,-1.,-0.)) ;
#2019=DIRECTION('Axis2P3D XDirection',(-1.,0.,0.)) ;
#2023=DIRECTION('Vector Direction',(0.,0.,-1.)) ;
#2044=DIRECTION('Axis2P3D Direction',(0.,-1.,0.)) ;
#2045=DIRECTION('Axis2P3D XDirection',(1.,0.,0.)) ;
#2056=DIRECTION('Vector Direction',(0.,0.,-1.)) ;
#2070=DIRECTION('Vector Direction',(0.,0.,-1.)) ;
#48=AXIS2_PLACEMENT_3D(' ',#47,$,$) ;
#55=AXIS2_PLACEMENT_3D('Plane Axis2P3D',#52,#53,#54) ;
#82=AXIS2_PLACEMENT_3D('Circle Axis2P3D',#80,#81,$) ;
#96=AXIS2_PLACEMENT_3D('Circle Axis2P3D',#94,#95,$) ;
#229=AXIS2_PLACEMENT_3D('Circle Axis2P3D',#227,#228,$) ;
#243=AXIS2_PLACEMENT_3D('Circle Axis2P3D',#241,#242,$) ;
#406=AXIS2_PLACEMENT_3D('Circle Axis2P3D',#404,#405,$) ;
#420=AXIS2_PLACEMENT_3D('Circle Axis2P3D',#418,#419,$) ;
#440=AXIS2_PLACEMENT_3D('Circle Axis2P3D',#438,#439,$) ;
#454=AXIS2_PLACEMENT_3D('Circle Axis2P3D',#452,#453,$) ;
#465=AXIS2_PLACEMENT_3D('Circle Axis2P3D',#463,#464,$) ;
#474=AXIS2_PLACEMENT_3D('Circle Axis2P3D',#472,#473,$) ;
#483=AXIS2_PLACEMENT_3D('Circle Axis2P3D',#481,#482,$) ;
#492=AXIS2_PLACEMENT_3D('Circle Axis2P3D',#490,#491,$) ;
#501=AXIS2_PLACEMENT_3D('Circle Axis2P3D',#499,#500,$) ;
#510=AXIS2_PLACEMENT_3D('Circle Axis2P3D',#508,#509,$) ;
#519=AXIS2_PLACEMENT_3D('Circle Axis2P3D',#517,#518,$) ;
#528=AXIS2_PLACEMENT_3D('Circle Axis2P3D',#526,#527,$) ;
#539=AXIS2_PLACEMENT_3D('Cylinder Axis2P3D',#536,#537,#538) ;
#550=AXIS2_PLACEMENT_3D('Circle Axis2P3D',#548,#549,$) ;
#570=AXIS2_PLACEMENT_3D('Cylinder Axis2P3D',#567,#568,#569) ;
#581=AXIS2_PLACEMENT_3D('Circle Axis2P3D',#579,#580,$) ;
#601=AXIS2_PLACEMENT_3D('Plane Axis2P3D',#598,#599,#600) ;
#632=AXIS2_PLACEMENT_3D('Plane Axis2P3D',#629,#630,#631) ;
#663=AXIS2_PLACEMENT_3D('Plane Axis2P3D',#660,#661,#662) ;
#694=AXIS2_PLACEMENT_3D('Plane Axis2P3D',#691,#692,#693) ;
#725=AXIS2_PLACEMENT_3D('Cylinder Axis2P3D',#722,#723,#724) ;
#736=AXIS2_PLACEMENT_3D('Circle Axis2P3D',#734,#735,$) ;
#756=AXIS2_PLACEMENT_3D('Cylinder Axis2P3D',#753,#754,#755) ;
#767=AXIS2_PLACEMENT_3D('Circle Axis2P3D',#765,#766,$) ;
#891=AXIS2_PLACEMENT_3D('Plane Axis2P3D',#888,#889,#890) ;
#922=AXIS2_PLACEMENT_3D('Plane Axis2P3D',#919,#920,#921) ;
#953=AXIS2_PLACEMENT_3D('Plane Axis2P3D',#950,#951,#952) ;
#957=AXIS2_PLACEMENT_3D('Circle Axis2P3D',#955,#956,$) ;
#966=AXIS2_PLACEMENT_3D('Circle Axis2P3D',#964,#965,$) ;
#990=AXIS2_PLACEMENT_3D('Circle Axis2P3D',#988,#989,$) ;
#997=AXIS2_PLACEMENT_3D('Circle Axis2P3D',#995,#996,$) ;
#1035=AXIS2_PLACEMENT_3D('Circle Axis2P3D',#1033,#1034,$) ;
#1040=AXIS2_PLACEMENT_3D('Circle Axis2P3D',#1038,#1039,$) ;
#1060=AXIS2_PLACEMENT_3D('Circle Axis2P3D',#1058,#1059,$) ;
#1074=AXIS2_PLACEMENT_3D('Circle Axis2P3D',#1072,#1073,$) ;
#1087=AXIS2_PLACEMENT_3D('Cylinder Axis2P3D',#1084,#1085,#1086) ;
#1091=AXIS2_PLACEMENT_3D('Circle Axis2P3D',#1089,#1090,$) ;
#1124=AXIS2_PLACEMENT_3D('Circle Axis2P3D',#1122,#1123,$) ;
#1137=AXIS2_PLACEMENT_3D('Cylinder Axis2P3D',#1134,#1135,#1136) ;
#1141=AXIS2_PLACEMENT_3D('Circle Axis2P3D',#1139,#1140,$) ;
#1174=AXIS2_PLACEMENT_3D('Circle Axis2P3D',#1172,#1173,$) ;
#1187=AXIS2_PLACEMENT_3D('Plane Axis2P3D',#1184,#1185,#1186) ;
#1191=AXIS2_PLACEMENT_3D('Circle Axis2P3D',#1189,#1190,$) ;
#1200=AXIS2_PLACEMENT_3D('Circle Axis2P3D',#1198,#1199,$) ;
#1210=AXIS2_PLACEMENT_3D('Circle Axis2P3D',#1208,#1209,$) ;
#1219=AXIS2_PLACEMENT_3D('Circle Axis2P3D',#1217,#1218,$) ;
#1229=AXIS2_PLACEMENT_3D('Circle Axis2P3D',#1227,#1228,$) ;
#1238=AXIS2_PLACEMENT_3D('Circle Axis2P3D',#1236,#1237,$) ;
#1248=AXIS2_PLACEMENT_3D('Circle Axis2P3D',#1246,#1247,$) ;
#1257=AXIS2_PLACEMENT_3D('Circle Axis2P3D',#1255,#1256,$) ;
#1268=AXIS2_PLACEMENT_3D('Plane Axis2P3D',#1265,#1266,#1267) ;
#1495=AXIS2_PLACEMENT_3D('Cylinder Axis2P3D',#1492,#1493,#1494) ;
#1524=AXIS2_PLACEMENT_3D('Cylinder Axis2P3D',#1521,#1522,#1523) ;
#1553=AXIS2_PLACEMENT_3D('Cylinder Axis2P3D',#1550,#1551,#1552) ;
#1582=AXIS2_PLACEMENT_3D('Cylinder Axis2P3D',#1579,#1580,#1581) ;
#1611=AXIS2_PLACEMENT_3D('Cylinder Axis2P3D',#1608,#1609,#1610) ;
#1623=AXIS2_PLACEMENT_3D('Cylinder Axis2P3D',#1620,#1621,#1622) ;
#1635=AXIS2_PLACEMENT_3D('Cylinder Axis2P3D',#1632,#1633,#1634) ;
#1657=AXIS2_PLACEMENT_3D('Plane Axis2P3D',#1654,#1655,#1656) ;
#1674=AXIS2_PLACEMENT_3D('Cylinder Axis2P3D',#1671,#1672,#1673) ;
#1691=AXIS2_PLACEMENT_3D('Plane Axis2P3D',#1688,#1689,#1690) ;
#1703=AXIS2_PLACEMENT_3D('Plane Axis2P3D',#1700,#1701,#1702) ;
#1725=AXIS2_PLACEMENT_3D('Plane Axis2P3D',#1722,#1723,#1724) ;
#1742=AXIS2_PLACEMENT_3D('Plane Axis2P3D',#1739,#1740,#1741) ;
#1759=AXIS2_PLACEMENT_3D('Plane Axis2P3D',#1756,#1757,#1758) ;
#1776=AXIS2_PLACEMENT_3D('Plane Axis2P3D',#1773,#1774,#1775) ;
#1793=AXIS2_PLACEMENT_3D('Plane Axis2P3D',#1790,#1791,#1792) ;
#1831=AXIS2_PLACEMENT_3D('Plane Axis2P3D',#1828,#1829,#1830) ;
#1843=AXIS2_PLACEMENT_3D('Plane Axis2P3D',#1840,#1841,#1842) ;
#1857=AXIS2_PLACEMENT_3D('Plane Axis2P3D',#1854,#1855,#1856) ;
#1869=AXIS2_PLACEMENT_3D('Plane Axis2P3D',#1866,#1867,#1868) ;
#1883=AXIS2_PLACEMENT_3D('Plane Axis2P3D',#1880,#1881,#1882) ;
#1895=AXIS2_PLACEMENT_3D('Plane Axis2P3D',#1892,#1893,#1894) ;
#1907=AXIS2_PLACEMENT_3D('Plane Axis2P3D',#1904,#1905,#1906) ;
#1919=AXIS2_PLACEMENT_3D('Plane Axis2P3D',#1916,#1917,#1918) ;
#2020=AXIS2_PLACEMENT_3D('Plane Axis2P3D',#2017,#2018,#2019) ;
#2046=AXIS2_PLACEMENT_3D('Plane Axis2P3D',#2043,#2044,#2045) ;
#40=PRODUCT_DEFINITION_SHAPE(' ',' ',#14) ;
#31=APPROVAL_PERSON_ORGANIZATION(#25,#21,#19) ;
#25=PERSON_AND_ORGANIZATION(#22,#23) ;
#22=PERSON(' ',' ',' ',$,$,$) ;
#23=ORGANIZATION(' ',' ',' ') ;
#21=APPROVAL(#20,' ') ;
#20=APPROVAL_STATUS('not_yet_approved') ;
#19=APPROVAL_ROLE('APPROVER') ;
#13=DATE_AND_TIME(#11,#12) ;
#12=LOCAL_TIME(10,0,51.,#10) ;
#10=COORDINATED_UNIVERSAL_TIME_OFFSET(0,0,.AHEAD.) ;
#352=ORIENTED_EDGE('',*,*,#65,.F.) ;
#353=ORIENTED_EDGE('',*,*,#72,.F.) ;
#354=ORIENTED_EDGE('',*,*,#79,.F.) ;
#355=ORIENTED_EDGE('',*,*,#86,.T.) ;
#356=ORIENTED_EDGE('',*,*,#93,.F.) ;
#357=ORIENTED_EDGE('',*,*,#100,.T.) ;
#358=ORIENTED_EDGE('',*,*,#107,.F.) ;
#359=ORIENTED_EDGE('',*,*,#114,.F.) ;
#360=ORIENTED_EDGE('',*,*,#121,.F.) ;
#361=ORIENTED_EDGE('',*,*,#128,.F.) ;
#362=ORIENTED_EDGE('',*,*,#135,.F.) ;
#363=ORIENTED_EDGE('',*,*,#142,.F.) ;
#364=ORIENTED_EDGE('',*,*,#149,.F.) ;
#365=ORIENTED_EDGE('',*,*,#156,.F.) ;
#366=ORIENTED_EDGE('',*,*,#163,.F.) ;
#367=ORIENTED_EDGE('',*,*,#170,.F.) ;
#368=ORIENTED_EDGE('',*,*,#177,.T.) ;
#369=ORIENTED_EDGE('',*,*,#184,.F.) ;
#370=ORIENTED_EDGE('',*,*,#191,.T.) ;
#371=ORIENTED_EDGE('',*,*,#198,.F.) ;
#372=ORIENTED_EDGE('',*,*,#205,.T.) ;
#373=ORIENTED_EDGE('',*,*,#212,.F.) ;
#374=ORIENTED_EDGE('',*,*,#219,.T.) ;
#375=ORIENTED_EDGE('',*,*,#226,.F.) ;
#376=ORIENTED_EDGE('',*,*,#233,.T.) ;
#377=ORIENTED_EDGE('',*,*,#240,.F.) ;
#378=ORIENTED_EDGE('',*,*,#247,.T.) ;
#379=ORIENTED_EDGE('',*,*,#254,.F.) ;
#380=ORIENTED_EDGE('',*,*,#261,.T.) ;
#381=ORIENTED_EDGE('',*,*,#268,.F.) ;
#382=ORIENTED_EDGE('',*,*,#275,.T.) ;
#383=ORIENTED_EDGE('',*,*,#282,.F.) ;
#384=ORIENTED_EDGE('',*,*,#289,.T.) ;
#385=ORIENTED_EDGE('',*,*,#296,.F.) ;
#386=ORIENTED_EDGE('',*,*,#303,.T.) ;
#387=ORIENTED_EDGE('',*,*,#310,.F.) ;
#388=ORIENTED_EDGE('',*,*,#317,.F.) ;
#389=ORIENTED_EDGE('',*,*,#324,.F.) ;
#390=ORIENTED_EDGE('',*,*,#331,.F.) ;
#391=ORIENTED_EDGE('',*,*,#338,.F.) ;
#392=ORIENTED_EDGE('',*,*,#345,.F.) ;
#393=ORIENTED_EDGE('',*,*,#350,.F.) ;
#424=ORIENTED_EDGE('',*,*,#403,.F.) ;
#425=ORIENTED_EDGE('',*,*,#410,.F.) ;
#426=ORIENTED_EDGE('',*,*,#417,.F.) ;
#427=ORIENTED_EDGE('',*,*,#422,.F.) ;
#458=ORIENTED_EDGE('',*,*,#437,.T.) ;
#459=ORIENTED_EDGE('',*,*,#444,.F.) ;
#460=ORIENTED_EDGE('',*,*,#451,.T.) ;
#461=ORIENTED_EDGE('',*,*,#456,.F.) ;
#478=ORIENTED_EDGE('',*,*,#471,.F.) ;
#479=ORIENTED_EDGE('',*,*,#476,.F.) ;
#496=ORIENTED_EDGE('',*,*,#489,.F.) ;
#497=ORIENTED_EDGE('',*,*,#494,.F.) ;
#514=ORIENTED_EDGE('',*,*,#507,.F.) ;
#515=ORIENTED_EDGE('',*,*,#512,.F.) ;
#532=ORIENTED_EDGE('',*,*,#525,.F.) ;
#533=ORIENTED_EDGE('',*,*,#530,.F.) ;
#561=ORIENTED_EDGE('',*,*,#86,.F.) ;
#562=ORIENTED_EDGE('',*,*,#547,.F.) ;
#563=ORIENTED_EDGE('',*,*,#554,.T.) ;
#564=ORIENTED_EDGE('',*,*,#559,.T.) ;
#592=ORIENTED_EDGE('',*,*,#100,.F.) ;
#593=ORIENTED_EDGE('',*,*,#578,.F.) ;
#594=ORIENTED_EDGE('',*,*,#585,.T.) ;
#595=ORIENTED_EDGE('',*,*,#590,.T.) ;
#623=ORIENTED_EDGE('',*,*,#177,.F.) ;
#624=ORIENTED_EDGE('',*,*,#609,.T.) ;
#625=ORIENTED_EDGE('',*,*,#616,.F.) ;
#626=ORIENTED_EDGE('',*,*,#621,.F.) ;
#654=ORIENTED_EDGE('',*,*,#191,.F.) ;
#655=ORIENTED_EDGE('',*,*,#640,.T.) ;
#656=ORIENTED_EDGE('',*,*,#647,.F.) ;
#657=ORIENTED_EDGE('',*,*,#652,.F.) ;
#685=ORIENTED_EDGE('',*,*,#205,.F.) ;
#686=ORIENTED_EDGE('',*,*,#671,.T.) ;
#687=ORIENTED_EDGE('',*,*,#678,.F.) ;
#688=ORIENTED_EDGE('',*,*,#683,.F.) ;
#716=ORIENTED_EDGE('',*,*,#219,.F.) ;
#717=ORIENTED_EDGE('',*,*,#702,.T.) ;
#718=ORIENTED_EDGE('',*,*,#709,.F.) ;
#719=ORIENTED_EDGE('',*,*,#714,.F.) ;
#747=ORIENTED_EDGE('',*,*,#233,.F.) ;
#748=ORIENTED_EDGE('',*,*,#733,.F.) ;
#749=ORIENTED_EDGE('',*,*,#740,.T.) ;
#750=ORIENTED_EDGE('',*,*,#745,.T.) ;
#778=ORIENTED_EDGE('',*,*,#247,.F.) ;
#779=ORIENTED_EDGE('',*,*,#764,.F.) ;
#780=ORIENTED_EDGE('',*,*,#771,.T.) ;
#781=ORIENTED_EDGE('',*,*,#776,.T.) ;
#804=ORIENTED_EDGE('',*,*,#261,.F.) ;
#805=ORIENTED_EDGE('',*,*,#790,.T.) ;
#806=ORIENTED_EDGE('',*,*,#797,.F.) ;
#807=ORIENTED_EDGE('',*,*,#802,.F.) ;
#830=ORIENTED_EDGE('',*,*,#275,.F.) ;
#831=ORIENTED_EDGE('',*,*,#816,.T.) ;
#832=ORIENTED_EDGE('',*,*,#823,.F.) ;
#833=ORIENTED_EDGE('',*,*,#828,.F.) ;
#856=ORIENTED_EDGE('',*,*,#289,.F.) ;
#857=ORIENTED_EDGE('',*,*,#842,.T.) ;
#858=ORIENTED_EDGE('',*,*,#849,.F.) ;
#859=ORIENTED_EDGE('',*,*,#854,.F.) ;
#882=ORIENTED_EDGE('',*,*,#303,.F.) ;
#883=ORIENTED_EDGE('',*,*,#868,.T.) ;
#884=ORIENTED_EDGE('',*,*,#875,.F.) ;
#885=ORIENTED_EDGE('',*,*,#880,.F.) ;
#913=ORIENTED_EDGE('',*,*,#437,.F.) ;
#914=ORIENTED_EDGE('',*,*,#899,.T.) ;
#915=ORIENTED_EDGE('',*,*,#906,.F.) ;
#916=ORIENTED_EDGE('',*,*,#911,.T.) ;
#944=ORIENTED_EDGE('',*,*,#451,.F.) ;
#945=ORIENTED_EDGE('',*,*,#930,.F.) ;
#946=ORIENTED_EDGE('',*,*,#937,.F.) ;
#947=ORIENTED_EDGE('',*,*,#942,.T.) ;
#1018=ORIENTED_EDGE('',*,*,#963,.T.) ;
#1019=ORIENTED_EDGE('',*,*,#970,.T.) ;
#1020=ORIENTED_EDGE('',*,*,#975,.F.) ;
#1021=ORIENTED_EDGE('',*,*,#585,.F.) ;
#1022=ORIENTED_EDGE('',*,*,#980,.F.) ;
#1023=ORIENTED_EDGE('',*,*,#554,.F.) ;
#1024=ORIENTED_EDGE('',*,*,#987,.F.) ;
#1025=ORIENTED_EDGE('',*,*,#994,.T.) ;
#1026=ORIENTED_EDGE('',*,*,#1001,.T.) ;
#1027=ORIENTED_EDGE('',*,*,#1006,.F.) ;
#1028=ORIENTED_EDGE('',*,*,#771,.F.) ;
#1029=ORIENTED_EDGE('',*,*,#1011,.F.) ;
#1030=ORIENTED_EDGE('',*,*,#740,.F.) ;
#1031=ORIENTED_EDGE('',*,*,#1016,.F.) ;
#1044=ORIENTED_EDGE('',*,*,#1037,.T.) ;
#1045=ORIENTED_EDGE('',*,*,#937,.T.) ;
#1046=ORIENTED_EDGE('',*,*,#1042,.T.) ;
#1047=ORIENTED_EDGE('',*,*,#906,.T.) ;
#1078=ORIENTED_EDGE('',*,*,#1057,.T.) ;
#1079=ORIENTED_EDGE('',*,*,#1064,.T.) ;
#1080=ORIENTED_EDGE('',*,*,#1071,.T.) ;
#1081=ORIENTED_EDGE('',*,*,#1076,.T.) ;
#1109=ORIENTED_EDGE('',*,*,#1097,.T.) ;
#1110=ORIENTED_EDGE('',*,*,#1102,.T.) ;
#1111=ORIENTED_EDGE('',*,*,#1001,.F.) ;
#1112=ORIENTED_EDGE('',*,*,#1107,.F.) ;
#1128=ORIENTED_EDGE('',*,*,#994,.F.) ;
#1129=ORIENTED_EDGE('',*,*,#1121,.F.) ;
#1130=ORIENTED_EDGE('',*,*,#1126,.T.) ;
#1131=ORIENTED_EDGE('',*,*,#1107,.T.) ;
#1159=ORIENTED_EDGE('',*,*,#1147,.T.) ;
#1160=ORIENTED_EDGE('',*,*,#1152,.T.) ;
#1161=ORIENTED_EDGE('',*,*,#970,.F.) ;
#1162=ORIENTED_EDGE('',*,*,#1157,.F.) ;
#1178=ORIENTED_EDGE('',*,*,#963,.F.) ;
#1179=ORIENTED_EDGE('',*,*,#1171,.F.) ;
#1180=ORIENTED_EDGE('',*,*,#1176,.T.) ;
#1181=ORIENTED_EDGE('',*,*,#1157,.T.) ;
#1204=ORIENTED_EDGE('',*,*,#1197,.T.) ;
#1205=ORIENTED_EDGE('',*,*,#1202,.T.) ;
#1223=ORIENTED_EDGE('',*,*,#1216,.T.) ;
#1224=ORIENTED_EDGE('',*,*,#1221,.T.) ;
#1242=ORIENTED_EDGE('',*,*,#1235,.T.) ;
#1243=ORIENTED_EDGE('',*,*,#1240,.T.) ;
#1261=ORIENTED_EDGE('',*,*,#1254,.T.) ;
#1262=ORIENTED_EDGE('',*,*,#1259,.T.) ;
#1359=ORIENTED_EDGE('',*,*,#1097,.F.) ;
#1360=ORIENTED_EDGE('',*,*,#1126,.F.) ;
#1361=ORIENTED_EDGE('',*,*,#1276,.T.) ;
#1362=ORIENTED_EDGE('',*,*,#1283,.T.) ;
#1363=ORIENTED_EDGE('',*,*,#1290,.T.) ;
#1364=ORIENTED_EDGE('',*,*,#1297,.T.) ;
#1365=ORIENTED_EDGE('',*,*,#1304,.T.) ;
#1366=ORIENTED_EDGE('',*,*,#1311,.T.) ;
#1367=ORIENTED_EDGE('',*,*,#1318,.T.) ;
#1368=ORIENTED_EDGE('',*,*,#1325,.T.) ;
#1369=ORIENTED_EDGE('',*,*,#1332,.T.) ;
#1370=ORIENTED_EDGE('',*,*,#1337,.T.) ;
#1371=ORIENTED_EDGE('',*,*,#875,.T.) ;
#1372=ORIENTED_EDGE('',*,*,#1342,.T.) ;
#1373=ORIENTED_EDGE('',*,*,#849,.T.) ;
#1374=ORIENTED_EDGE('',*,*,#1347,.T.) ;
#1375=ORIENTED_EDGE('',*,*,#823,.T.) ;
#1376=ORIENTED_EDGE('',*,*,#1352,.T.) ;
#1377=ORIENTED_EDGE('',*,*,#797,.T.) ;
#1378=ORIENTED_EDGE('',*,*,#1357,.T.) ;
#1470=ORIENTED_EDGE('',*,*,#1147,.F.) ;
#1471=ORIENTED_EDGE('',*,*,#1176,.F.) ;
#1472=ORIENTED_EDGE('',*,*,#1385,.T.) ;
#1473=ORIENTED_EDGE('',*,*,#709,.T.) ;
#1474=ORIENTED_EDGE('',*,*,#1390,.T.) ;
#1475=ORIENTED_EDGE('',*,*,#678,.T.) ;
#1476=ORIENTED_EDGE('',*,*,#1395,.T.) ;
#1477=ORIENTED_EDGE('',*,*,#647,.T.) ;
#1478=ORIENTED_EDGE('',*,*,#1400,.T.) ;
#1479=ORIENTED_EDGE('',*,*,#616,.T.) ;
#1480=ORIENTED_EDGE('',*,*,#1407,.T.) ;
#1481=ORIENTED_EDGE('',*,*,#1414,.T.) ;
#1482=ORIENTED_EDGE('',*,*,#1421,.T.) ;
#1483=ORIENTED_EDGE('',*,*,#1428,.T.) ;
#1484=ORIENTED_EDGE('',*,*,#1435,.T.) ;
#1485=ORIENTED_EDGE('',*,*,#1442,.T.) ;
#1486=ORIENTED_EDGE('',*,*,#1449,.T.) ;
#1487=ORIENTED_EDGE('',*,*,#1456,.T.) ;
#1488=ORIENTED_EDGE('',*,*,#1463,.T.) ;
#1489=ORIENTED_EDGE('',*,*,#1468,.T.) ;
#1508=ORIENTED_EDGE('',*,*,#530,.T.) ;
#1509=ORIENTED_EDGE('',*,*,#1501,.T.) ;
#1510=ORIENTED_EDGE('',*,*,#1202,.F.) ;
#1511=ORIENTED_EDGE('',*,*,#1506,.F.) ;
#1515=ORIENTED_EDGE('',*,*,#525,.T.) ;
#1516=ORIENTED_EDGE('',*,*,#1506,.T.) ;
#1517=ORIENTED_EDGE('',*,*,#1197,.F.) ;
#1518=ORIENTED_EDGE('',*,*,#1501,.F.) ;
#1537=ORIENTED_EDGE('',*,*,#512,.T.) ;
#1538=ORIENTED_EDGE('',*,*,#1530,.T.) ;
#1539=ORIENTED_EDGE('',*,*,#1221,.F.) ;
#1540=ORIENTED_EDGE('',*,*,#1535,.F.) ;
#1544=ORIENTED_EDGE('',*,*,#507,.T.) ;
#1545=ORIENTED_EDGE('',*,*,#1535,.T.) ;
#1546=ORIENTED_EDGE('',*,*,#1216,.F.) ;
#1547=ORIENTED_EDGE('',*,*,#1530,.F.) ;
#1566=ORIENTED_EDGE('',*,*,#494,.T.) ;
#1567=ORIENTED_EDGE('',*,*,#1559,.T.) ;
#1568=ORIENTED_EDGE('',*,*,#1240,.F.) ;
#1569=ORIENTED_EDGE('',*,*,#1564,.F.) ;
#1573=ORIENTED_EDGE('',*,*,#489,.T.) ;
#1574=ORIENTED_EDGE('',*,*,#1564,.T.) ;
#1575=ORIENTED_EDGE('',*,*,#1235,.F.) ;
#1576=ORIENTED_EDGE('',*,*,#1559,.F.) ;
#1595=ORIENTED_EDGE('',*,*,#476,.T.) ;
#1596=ORIENTED_EDGE('',*,*,#1588,.T.) ;
#1597=ORIENTED_EDGE('',*,*,#1259,.F.) ;
#1598=ORIENTED_EDGE('',*,*,#1593,.F.) ;
#1602=ORIENTED_EDGE('',*,*,#471,.T.) ;
#1603=ORIENTED_EDGE('',*,*,#1593,.T.) ;
#1604=ORIENTED_EDGE('',*,*,#1254,.F.) ;
#1605=ORIENTED_EDGE('',*,*,#1588,.F.) ;
#1614=ORIENTED_EDGE('',*,*,#942,.F.) ;
#1615=ORIENTED_EDGE('',*,*,#1037,.F.) ;
#1616=ORIENTED_EDGE('',*,*,#899,.F.) ;
#1617=ORIENTED_EDGE('',*,*,#456,.T.) ;
#1626=ORIENTED_EDGE('',*,*,#911,.F.) ;
#1627=ORIENTED_EDGE('',*,*,#1042,.F.) ;
#1628=ORIENTED_EDGE('',*,*,#930,.T.) ;
#1629=ORIENTED_EDGE('',*,*,#444,.T.) ;
#1648=ORIENTED_EDGE('',*,*,#1641,.F.) ;
#1649=ORIENTED_EDGE('',*,*,#1064,.F.) ;
#1650=ORIENTED_EDGE('',*,*,#1646,.T.) ;
#1651=ORIENTED_EDGE('',*,*,#422,.T.) ;
#1665=ORIENTED_EDGE('',*,*,#1663,.F.) ;
#1666=ORIENTED_EDGE('',*,*,#1071,.F.) ;
#1667=ORIENTED_EDGE('',*,*,#1641,.T.) ;
#1668=ORIENTED_EDGE('',*,*,#417,.T.) ;
#1682=ORIENTED_EDGE('',*,*,#1680,.F.) ;
#1683=ORIENTED_EDGE('',*,*,#1076,.F.) ;
#1684=ORIENTED_EDGE('',*,*,#1663,.T.) ;
#1685=ORIENTED_EDGE('',*,*,#410,.T.) ;
#1694=ORIENTED_EDGE('',*,*,#1646,.F.) ;
#1695=ORIENTED_EDGE('',*,*,#1057,.F.) ;
#1696=ORIENTED_EDGE('',*,*,#1680,.T.) ;
#1697=ORIENTED_EDGE('',*,*,#403,.T.) ;
#1716=ORIENTED_EDGE('',*,*,#1709,.T.) ;
#1717=ORIENTED_EDGE('',*,*,#1297,.F.) ;
#1718=ORIENTED_EDGE('',*,*,#1714,.F.) ;
#1719=ORIENTED_EDGE('',*,*,#350,.T.) ;
#1733=ORIENTED_EDGE('',*,*,#1731,.T.) ;
#1734=ORIENTED_EDGE('',*,*,#1304,.F.) ;
#1735=ORIENTED_EDGE('',*,*,#1709,.F.) ;
#1736=ORIENTED_EDGE('',*,*,#345,.T.) ;
#1750=ORIENTED_EDGE('',*,*,#1748,.T.) ;
#1751=ORIENTED_EDGE('',*,*,#1311,.F.) ;
#1752=ORIENTED_EDGE('',*,*,#1731,.F.) ;
#1753=ORIENTED_EDGE('',*,*,#338,.T.) ;
#1767=ORIENTED_EDGE('',*,*,#1765,.T.) ;
#1768=ORIENTED_EDGE('',*,*,#1318,.F.) ;
#1769=ORIENTED_EDGE('',*,*,#1748,.F.) ;
#1770=ORIENTED_EDGE('',*,*,#331,.T.) ;
#1784=ORIENTED_EDGE('',*,*,#1782,.T.) ;
#1785=ORIENTED_EDGE('',*,*,#1325,.F.) ;
#1786=ORIENTED_EDGE('',*,*,#1765,.F.) ;
#1787=ORIENTED_EDGE('',*,*,#324,.T.) ;
#1801=ORIENTED_EDGE('',*,*,#1799,.T.) ;
#1802=ORIENTED_EDGE('',*,*,#1332,.F.) ;
#1803=ORIENTED_EDGE('',*,*,#1782,.F.) ;
#1804=ORIENTED_EDGE('',*,*,#317,.T.) ;
#1808=ORIENTED_EDGE('',*,*,#880,.T.) ;
#1809=ORIENTED_EDGE('',*,*,#1337,.F.) ;
#1810=ORIENTED_EDGE('',*,*,#1799,.F.) ;
#1811=ORIENTED_EDGE('',*,*,#310,.T.) ;
#1815=ORIENTED_EDGE('',*,*,#854,.T.) ;
#1816=ORIENTED_EDGE('',*,*,#1342,.F.) ;
#1817=ORIENTED_EDGE('',*,*,#868,.F.) ;
#1818=ORIENTED_EDGE('',*,*,#296,.T.) ;
#1822=ORIENTED_EDGE('',*,*,#828,.T.) ;
#1823=ORIENTED_EDGE('',*,*,#1347,.F.) ;
#1824=ORIENTED_EDGE('',*,*,#842,.F.) ;
#1825=ORIENTED_EDGE('',*,*,#282,.T.) ;
#1834=ORIENTED_EDGE('',*,*,#802,.T.) ;
#1835=ORIENTED_EDGE('',*,*,#1352,.F.) ;
#1836=ORIENTED_EDGE('',*,*,#816,.F.) ;
#1837=ORIENTED_EDGE('',*,*,#268,.T.) ;
#1846=ORIENTED_EDGE('',*,*,#254,.T.) ;
#1847=ORIENTED_EDGE('',*,*,#776,.F.) ;
#1848=ORIENTED_EDGE('',*,*,#1006,.T.) ;
#1849=ORIENTED_EDGE('',*,*,#1102,.F.) ;
#1850=ORIENTED_EDGE('',*,*,#1357,.F.) ;
#1851=ORIENTED_EDGE('',*,*,#790,.F.) ;
#1860=ORIENTED_EDGE('',*,*,#745,.F.) ;
#1861=ORIENTED_EDGE('',*,*,#1011,.T.) ;
#1862=ORIENTED_EDGE('',*,*,#764,.T.) ;
#1863=ORIENTED_EDGE('',*,*,#240,.T.) ;
#1872=ORIENTED_EDGE('',*,*,#714,.T.) ;
#1873=ORIENTED_EDGE('',*,*,#1385,.F.) ;
#1874=ORIENTED_EDGE('',*,*,#1171,.T.) ;
#1875=ORIENTED_EDGE('',*,*,#1016,.T.) ;
#1876=ORIENTED_EDGE('',*,*,#733,.T.) ;
#1877=ORIENTED_EDGE('',*,*,#226,.T.) ;
#1886=ORIENTED_EDGE('',*,*,#683,.T.) ;
#1887=ORIENTED_EDGE('',*,*,#1390,.F.) ;
#1888=ORIENTED_EDGE('',*,*,#702,.F.) ;
#1889=ORIENTED_EDGE('',*,*,#212,.T.) ;
#1898=ORIENTED_EDGE('',*,*,#652,.T.) ;
#1899=ORIENTED_EDGE('',*,*,#1395,.F.) ;
#1900=ORIENTED_EDGE('',*,*,#671,.F.) ;
#1901=ORIENTED_EDGE('',*,*,#198,.T.) ;
#1910=ORIENTED_EDGE('',*,*,#621,.T.) ;
#1911=ORIENTED_EDGE('',*,*,#1400,.F.) ;
#1912=ORIENTED_EDGE('',*,*,#640,.F.) ;
#1913=ORIENTED_EDGE('',*,*,#184,.T.) ;
#1927=ORIENTED_EDGE('',*,*,#1925,.T.) ;
#1928=ORIENTED_EDGE('',*,*,#1407,.F.) ;
#1929=ORIENTED_EDGE('',*,*,#609,.F.) ;
#1930=ORIENTED_EDGE('',*,*,#170,.T.) ;
#1939=ORIENTED_EDGE('',*,*,#1937,.T.) ;
#1940=ORIENTED_EDGE('',*,*,#1414,.F.) ;
#1941=ORIENTED_EDGE('',*,*,#1925,.F.) ;
#1942=ORIENTED_EDGE('',*,*,#163,.T.) ;
#1951=ORIENTED_EDGE('',*,*,#1949,.T.) ;
#1952=ORIENTED_EDGE('',*,*,#1421,.F.) ;
#1953=ORIENTED_EDGE('',*,*,#1937,.F.) ;
#1954=ORIENTED_EDGE('',*,*,#156,.T.) ;
#1963=ORIENTED_EDGE('',*,*,#1961,.T.) ;
#1964=ORIENTED_EDGE('',*,*,#1428,.F.) ;
#1965=ORIENTED_EDGE('',*,*,#1949,.F.) ;
#1966=ORIENTED_EDGE('',*,*,#149,.T.) ;
#1975=ORIENTED_EDGE('',*,*,#1973,.T.) ;
#1976=ORIENTED_EDGE('',*,*,#1435,.F.) ;
#1977=ORIENTED_EDGE('',*,*,#1961,.F.) ;
#1978=ORIENTED_EDGE('',*,*,#142,.T.) ;
#1987=ORIENTED_EDGE('',*,*,#1985,.T.) ;
#1988=ORIENTED_EDGE('',*,*,#1442,.F.) ;
#1989=ORIENTED_EDGE('',*,*,#1973,.F.) ;
#1990=ORIENTED_EDGE('',*,*,#135,.T.) ;
#1999=ORIENTED_EDGE('',*,*,#1997,.T.) ;
#2000=ORIENTED_EDGE('',*,*,#1449,.F.) ;
#2001=ORIENTED_EDGE('',*,*,#1985,.F.) ;
#2002=ORIENTED_EDGE('',*,*,#128,.T.) ;
#2011=ORIENTED_EDGE('',*,*,#2009,.T.) ;
#2012=ORIENTED_EDGE('',*,*,#1456,.F.) ;
#2013=ORIENTED_EDGE('',*,*,#1997,.F.) ;
#2014=ORIENTED_EDGE('',*,*,#121,.T.) ;
#2028=ORIENTED_EDGE('',*,*,#2026,.T.) ;
#2029=ORIENTED_EDGE('',*,*,#1463,.F.) ;
#2030=ORIENTED_EDGE('',*,*,#2009,.F.) ;
#2031=ORIENTED_EDGE('',*,*,#114,.T.) ;
#2035=ORIENTED_EDGE('',*,*,#107,.T.) ;
#2036=ORIENTED_EDGE('',*,*,#590,.F.) ;
#2037=ORIENTED_EDGE('',*,*,#975,.T.) ;
#2038=ORIENTED_EDGE('',*,*,#1152,.F.) ;
#2039=ORIENTED_EDGE('',*,*,#1468,.F.) ;
#2040=ORIENTED_EDGE('',*,*,#2026,.F.) ;
#2049=ORIENTED_EDGE('',*,*,#559,.F.) ;
#2050=ORIENTED_EDGE('',*,*,#980,.T.) ;
#2051=ORIENTED_EDGE('',*,*,#578,.T.) ;
#2052=ORIENTED_EDGE('',*,*,#93,.T.) ;
#2061=ORIENTED_EDGE('',*,*,#2059,.T.) ;
#2062=ORIENTED_EDGE('',*,*,#1276,.F.) ;
#2063=ORIENTED_EDGE('',*,*,#1121,.T.) ;
#2064=ORIENTED_EDGE('',*,*,#987,.T.) ;
#2065=ORIENTED_EDGE('',*,*,#547,.T.) ;
#2066=ORIENTED_EDGE('',*,*,#79,.T.) ;
#2075=ORIENTED_EDGE('',*,*,#2073,.T.) ;
#2076=ORIENTED_EDGE('',*,*,#1283,.F.) ;
#2077=ORIENTED_EDGE('',*,*,#2059,.F.) ;
#2078=ORIENTED_EDGE('',*,*,#72,.T.) ;
#2082=ORIENTED_EDGE('',*,*,#1714,.T.) ;
#2083=ORIENTED_EDGE('',*,*,#1290,.F.) ;
#2084=ORIENTED_EDGE('',*,*,#2073,.F.) ;
#2085=ORIENTED_EDGE('',*,*,#65,.T.) ;
#428=FACE_BOUND('',#423,.T.) ;
#462=FACE_BOUND('',#457,.T.) ;
#480=FACE_BOUND('',#477,.T.) ;
#498=FACE_BOUND('',#495,.T.) ;
#516=FACE_BOUND('',#513,.T.) ;
#534=FACE_BOUND('',#531,.T.) ;
#1048=FACE_BOUND('',#1043,.T.) ;
#1082=FACE_BOUND('',#1077,.T.) ;
#51=CLOSED_SHELL('Closed Shell',(#535,#566,#597,#628,#659,#690,#721,#752,#783,#809,#835,#861,#887,#918,#949,#1083,#1114,#1133,#1164,#1183,#1207,#1226,#1245,#1264,#1380,#1491,#1513,#1520,#1542,#1549,#1571,#1578,#1600,#1607,#1619,#1631,#1653,#1670,#1687,#1699,#1721,#1738,#1755,#1772,#1789,#1806,#1813,#1820,#1827,#1839,#1853,#1865,#1879,#1891,#1903,#1915,#1932,#1944,#1956,#1968,#1980,#1992,#2004,#2016,#2033,#2042,#2054,#2068,#2080,#2087)) ;
#59=VECTOR('Line Direction',#58,1.) ;
#68=VECTOR('Line Direction',#67,1.) ;
#75=VECTOR('Line Direction',#74,1.) ;
#89=VECTOR('Line Direction',#88,1.) ;
#103=VECTOR('Line Direction',#102,1.) ;
#110=VECTOR('Line Direction',#109,1.) ;
#117=VECTOR('Line Direction',#116,1.) ;
#124=VECTOR('Line Direction',#123,1.) ;
#131=VECTOR('Line Direction',#130,1.) ;
#138=VECTOR('Line Direction',#137,1.) ;
#145=VECTOR('Line Direction',#144,1.) ;
#152=VECTOR('Line Direction',#151,1.) ;
#159=VECTOR('Line Direction',#158,1.) ;
#166=VECTOR('Line Direction',#165,1.) ;
#173=VECTOR('Line Direction',#172,1.) ;
#180=VECTOR('Line Direction',#179,1.) ;
#187=VECTOR('Line Direction',#186,1.) ;
#194=VECTOR('Line Direction',#193,1.) ;
#201=VECTOR('Line Direction',#200,1.) ;
#208=VECTOR('Line Direction',#207,1.) ;
#215=VECTOR('Line Direction',#214,1.) ;
#222=VECTOR('Line Direction',#221,1.) ;
#236=VECTOR('Line Direction',#235,1.) ;
#250=VECTOR('Line Direction',#249,1.) ;
#257=VECTOR('Line Direction',#256,1.) ;
#264=VECTOR('Line Direction',#263,1.) ;
#271=VECTOR('Line Direction',#270,1.) ;
#278=VECTOR('Line Direction',#277,1.) ;
#285=VECTOR('Line Direction',#284,1.) ;
#292=VECTOR('Line Direction',#291,1.) ;
#299=VECTOR('Line Direction',#298,1.) ;
#306=VECTOR('Line Direction',#305,1.) ;
#313=VECTOR('Line Direction',#312,1.) ;
#320=VECTOR('Line Direction',#319,1.) ;
#327=VECTOR('Line Direction',#326,1.) ;
#334=VECTOR('Line Direction',#333,1.) ;
#341=VECTOR('Line Direction',#340,1.) ;
#348=VECTOR('Line Direction',#347,1.) ;
#397=VECTOR('Line Direction',#396,1.) ;
#413=VECTOR('Line Direction',#412,1.) ;
#431=VECTOR('Line Direction',#430,1.) ;
#447=VECTOR('Line Direction',#446,1.) ;
#543=VECTOR('Line Direction',#542,1.) ;
#557=VECTOR('Line Direction',#556,1.) ;
#574=VECTOR('Line Direction',#573,1.) ;
#588=VECTOR('Line Direction',#587,1.) ;
#605=VECTOR('Line Direction',#604,1.) ;
#612=VECTOR('Line Direction',#611,1.) ;
#619=VECTOR('Line Direction',#618,1.) ;
#636=VECTOR('Line Direction',#635,1.) ;
#643=VECTOR('Line Direction',#642,1.) ;
#650=VECTOR('Line Direction',#649,1.) ;
#667=VECTOR('Line Direction',#666,1.) ;
#674=VECTOR('Line Direction',#673,1.) ;
#681=VECTOR('Line Direction',#680,1.) ;
#698=VECTOR('Line Direction',#697,1.) ;
#705=VECTOR('Line Direction',#704,1.) ;
#712=VECTOR('Line Direction',#711,1.) ;
#729=VECTOR('Line Direction',#728,1.) ;
#743=VECTOR('Line Direction',#742,1.) ;
#760=VECTOR('Line Direction',#759,1.) ;
#774=VECTOR('Line Direction',#773,1.) ;
#786=VECTOR('Line Direction',#785,1.) ;
#793=VECTOR('Line Direction',#792,1.) ;
#800=VECTOR('Line Direction',#799,1.) ;
#812=VECTOR('Line Direction',#811,1.) ;
#819=VECTOR('Line Direction',#818,1.) ;
#826=VECTOR('Line Direction',#825,1.) ;
#838=VECTOR('Line Direction',#837,1.) ;
#845=VECTOR('Line Direction',#844,1.) ;
#852=VECTOR('Line Direction',#851,1.) ;
#864=VECTOR('Line Direction',#863,1.) ;
#871=VECTOR('Line Direction',#870,1.) ;
#878=VECTOR('Line Direction',#877,1.) ;
#895=VECTOR('Line Direction',#894,1.) ;
#902=VECTOR('Line Direction',#901,1.) ;
#909=VECTOR('Line Direction',#908,1.) ;
#926=VECTOR('Line Direction',#925,1.) ;
#933=VECTOR('Line Direction',#932,1.) ;
#940=VECTOR('Line Direction',#939,1.) ;
#973=VECTOR('Line Direction',#972,1.) ;
#978=VECTOR('Line Direction',#977,1.) ;
#983=VECTOR('Line Direction',#982,1.) ;
#1004=VECTOR('Line Direction',#1003,1.) ;
#1009=VECTOR('Line Direction',#1008,1.) ;
#1014=VECTOR('Line Direction',#1013,1.) ;
#1051=VECTOR('Line Direction',#1050,1.) ;
#1067=VECTOR('Line Direction',#1066,1.) ;
#1100=VECTOR('Line Direction',#1099,1.) ;
#1105=VECTOR('Line Direction',#1104,1.) ;
#1117=VECTOR('Line Direction',#1116,1.) ;
#1150=VECTOR('Line Direction',#1149,1.) ;
#1155=VECTOR('Line Direction',#1154,1.) ;
#1167=VECTOR('Line Direction',#1166,1.) ;
#1272=VECTOR('Line Direction',#1271,1.) ;
#1279=VECTOR('Line Direction',#1278,1.) ;
#1286=VECTOR('Line Direction',#1285,1.) ;
#1293=VECTOR('Line Direction',#1292,1.) ;
#1300=VECTOR('Line Direction',#1299,1.) ;
#1307=VECTOR('Line Direction',#1306,1.) ;
#1314=VECTOR('Line Direction',#1313,1.) ;
#1321=VECTOR('Line Direction',#1320,1.) ;
#1328=VECTOR('Line Direction',#1327,1.) ;
#1335=VECTOR('Line Direction',#1334,1.) ;
#1340=VECTOR('Line Direction',#1339,1.) ;
#1345=VECTOR('Line Direction',#1344,1.) ;
#1350=VECTOR('Line Direction',#1349,1.) ;
#1355=VECTOR('Line Direction',#1354,1.) ;
#1383=VECTOR('Line Direction',#1382,1.) ;
#1388=VECTOR('Line Direction',#1387,1.) ;
#1393=VECTOR('Line Direction',#1392,1.) ;
#1398=VECTOR('Line Direction',#1397,1.) ;
#1403=VECTOR('Line Direction',#1402,1.) ;
#1410=VECTOR('Line Direction',#1409,1.) ;
#1417=VECTOR('Line Direction',#1416,1.) ;
#1424=VECTOR('Line Direction',#1423,1.) ;
#1431=VECTOR('Line Direction',#1430,1.) ;
#1438=VECTOR('Line Direction',#1437,1.) ;
#1445=VECTOR('Line Direction',#1444,1.) ;
#1452=VECTOR('Line Direction',#1451,1.) ;
#1459=VECTOR('Line Direction',#1458,1.) ;
#1466=VECTOR('Line Direction',#1465,1.) ;
#1499=VECTOR('Line Direction',#1498,1.) ;
#1504=VECTOR('Line Direction',#1503,1.) ;
#1528=VECTOR('Line Direction',#1527,1.) ;
#1533=VECTOR('Line Direction',#1532,1.) ;
#1557=VECTOR('Line Direction',#1556,1.) ;
#1562=VECTOR('Line Direction',#1561,1.) ;
#1586=VECTOR('Line Direction',#1585,1.) ;
#1591=VECTOR('Line Direction',#1590,1.) ;
#1639=VECTOR('Line Direction',#1638,1.) ;
#1644=VECTOR('Line Direction',#1643,1.) ;
#1661=VECTOR('Line Direction',#1660,1.) ;
#1678=VECTOR('Line Direction',#1677,1.) ;
#1707=VECTOR('Line Direction',#1706,1.) ;
#1712=VECTOR('Line Direction',#1711,1.) ;
#1729=VECTOR('Line Direction',#1728,1.) ;
#1746=VECTOR('Line Direction',#1745,1.) ;
#1763=VECTOR('Line Direction',#1762,1.) ;
#1780=VECTOR('Line Direction',#1779,1.) ;
#1797=VECTOR('Line Direction',#1796,1.) ;
#1923=VECTOR('Line Direction',#1922,1.) ;
#1935=VECTOR('Line Direction',#1934,1.) ;
#1947=VECTOR('Line Direction',#1946,1.) ;
#1959=VECTOR('Line Direction',#1958,1.) ;
#1971=VECTOR('Line Direction',#1970,1.) ;
#1983=VECTOR('Line Direction',#1982,1.) ;
#1995=VECTOR('Line Direction',#1994,1.) ;
#2007=VECTOR('Line Direction',#2006,1.) ;
#2024=VECTOR('Line Direction',#2023,1.) ;
#2057=VECTOR('Line Direction',#2056,1.) ;
#2071=VECTOR('Line Direction',#2070,1.) ;
#2089=ADVANCED_BREP_SHAPE_REPRESENTATION('NONE',(#2088),#46) ;
#49=SHAPE_REPRESENTATION(' ',(#48),#46) ;
#535=ADVANCED_FACE('PartBody',(#394,#428,#462,#480,#498,#516,#534),#56,.T.) ;
#566=ADVANCED_FACE('PartBody',(#565),#540,.T.) ;
#597=ADVANCED_FACE('PartBody',(#596),#571,.T.) ;
#628=ADVANCED_FACE('PartBody',(#627),#602,.F.) ;
#659=ADVANCED_FACE('PartBody',(#658),#633,.F.) ;
#690=ADVANCED_FACE('PartBody',(#689),#664,.F.) ;
#721=ADVANCED_FACE('PartBody',(#720),#695,.F.) ;
#752=ADVANCED_FACE('PartBody',(#751),#726,.T.) ;
#783=ADVANCED_FACE('PartBody',(#782),#757,.T.) ;
#809=ADVANCED_FACE('PartBody',(#808),#695,.F.) ;
#835=ADVANCED_FACE('PartBody',(#834),#664,.F.) ;
#861=ADVANCED_FACE('PartBody',(#860),#633,.F.) ;
#887=ADVANCED_FACE('PartBody',(#886),#602,.F.) ;
#918=ADVANCED_FACE('PartBody',(#917),#892,.T.) ;
#949=ADVANCED_FACE('PartBody',(#948),#923,.T.) ;
#1083=ADVANCED_FACE('PartBody',(#1032,#1048,#1082),#954,.F.) ;
#1114=ADVANCED_FACE('PartBody',(#1113),#1088,.F.) ;
#1133=ADVANCED_FACE('PartBody',(#1132),#1088,.F.) ;
#1164=ADVANCED_FACE('PartBody',(#1163),#1138,.F.) ;
#1183=ADVANCED_FACE('PartBody',(#1182),#1138,.F.) ;
#1207=ADVANCED_FACE('PartBody',(#1206),#1188,.T.) ;
#1226=ADVANCED_FACE('PartBody',(#1225),#1188,.T.) ;
#1245=ADVANCED_FACE('PartBody',(#1244),#1188,.T.) ;
#1264=ADVANCED_FACE('PartBody',(#1263),#1188,.T.) ;
#1380=ADVANCED_FACE('PartBody',(#1379),#1269,.T.) ;
#1491=ADVANCED_FACE('PartBody',(#1490),#1269,.T.) ;
#1513=ADVANCED_FACE('PartBody',(#1512),#1496,.F.) ;
#1520=ADVANCED_FACE('PartBody',(#1519),#1496,.F.) ;
#1542=ADVANCED_FACE('PartBody',(#1541),#1525,.F.) ;
#1549=ADVANCED_FACE('PartBody',(#1548),#1525,.F.) ;
#1571=ADVANCED_FACE('PartBody',(#1570),#1554,.F.) ;
#1578=ADVANCED_FACE('PartBody',(#1577),#1554,.F.) ;
#1600=ADVANCED_FACE('PartBody',(#1599),#1583,.F.) ;
#1607=ADVANCED_FACE('PartBody',(#1606),#1583,.F.) ;
#1619=ADVANCED_FACE('PartBody',(#1618),#1612,.F.) ;
#1631=ADVANCED_FACE('PartBody',(#1630),#1624,.F.) ;
#1653=ADVANCED_FACE('PartBody',(#1652),#1636,.F.) ;
#1670=ADVANCED_FACE('PartBody',(#1669),#1658,.F.) ;
#1687=ADVANCED_FACE('PartBody',(#1686),#1675,.F.) ;
#1699=ADVANCED_FACE('PartBody',(#1698),#1692,.F.) ;
#1721=ADVANCED_FACE('PartBody',(#1720),#1704,.T.) ;
#1738=ADVANCED_FACE('PartBody',(#1737),#1726,.T.) ;
#1755=ADVANCED_FACE('PartBody',(#1754),#1743,.T.) ;
#1772=ADVANCED_FACE('PartBody',(#1771),#1760,.T.) ;
#1789=ADVANCED_FACE('PartBody',(#1788),#1777,.T.) ;
#1806=ADVANCED_FACE('PartBody',(#1805),#1794,.T.) ;
#1813=ADVANCED_FACE('PartBody',(#1812),#1794,.T.) ;
#1820=ADVANCED_FACE('PartBody',(#1819),#1760,.T.) ;
#1827=ADVANCED_FACE('PartBody',(#1826),#1726,.T.) ;
#1839=ADVANCED_FACE('PartBody',(#1838),#1832,.T.) ;
#1853=ADVANCED_FACE('PartBody',(#1852),#1844,.F.) ;
#1865=ADVANCED_FACE('PartBody',(#1864),#1858,.F.) ;
#1879=ADVANCED_FACE('PartBody',(#1878),#1870,.F.) ;
#1891=ADVANCED_FACE('PartBody',(#1890),#1884,.T.) ;
#1903=ADVANCED_FACE('PartBody',(#1902),#1896,.T.) ;
#1915=ADVANCED_FACE('PartBody',(#1914),#1908,.T.) ;
#1932=ADVANCED_FACE('PartBody',(#1931),#1920,.T.) ;
#1944=ADVANCED_FACE('PartBody',(#1943),#1920,.T.) ;
#1956=ADVANCED_FACE('PartBody',(#1955),#1777,.T.) ;
#1968=ADVANCED_FACE('PartBody',(#1967),#1908,.T.) ;
#1980=ADVANCED_FACE('PartBody',(#1979),#1743,.T.) ;
#1992=ADVANCED_FACE('PartBody',(#1991),#1896,.T.) ;
#2004=ADVANCED_FACE('PartBody',(#2003),#1704,.T.) ;
#2016=ADVANCED_FACE('PartBody',(#2015),#1884,.T.) ;
#2033=ADVANCED_FACE('PartBody',(#2032),#2021,.T.) ;
#2042=ADVANCED_FACE('PartBody',(#2041),#1870,.F.) ;
#2054=ADVANCED_FACE('PartBody',(#2053),#2047,.F.) ;
#2068=ADVANCED_FACE('PartBody',(#2067),#1844,.F.) ;
#2080=ADVANCED_FACE('PartBody',(#2079),#2021,.T.) ;
#2087=ADVANCED_FACE('PartBody',(#2086),#1832,.T.) ;
#4=APPLICATION_PROTOCOL_DEFINITION('international standard','config_control_design',1994,#1) ;
#32=APPROVAL_DATE_TIME(#13,#21) ;
#2088=MANIFOLD_SOLID_BREP('PartBody',#51) ;
#11=CALENDAR_DATE(2026,6,7) ;
#30=CC_DESIGN_APPROVAL(#21,(#16,#6,#14)) ;
#18=CC_DESIGN_DATE_AND_TIME_ASSIGNMENT(#13,#17,(#16)) ;
#29=CC_DESIGN_DATE_AND_TIME_ASSIGNMENT(#13,#28,(#14)) ;
#17=DATE_TIME_ROLE('classification_date') ;
#28=DATE_TIME_ROLE('creation_date') ;
#27=CC_DESIGN_PERSON_AND_ORGANIZATION_ASSIGNMENT(#25,#26,(#16)) ;
#33=CC_DESIGN_PERSON_AND_ORGANIZATION_ASSIGNMENT(#25,#34,(#6)) ;
#35=CC_DESIGN_PERSON_AND_ORGANIZATION_ASSIGNMENT(#25,#36,(#6,#14)) ;
#37=CC_DESIGN_PERSON_AND_ORGANIZATION_ASSIGNMENT(#25,#38,(#5)) ;
#26=PERSON_AND_ORGANIZATION_ROLE('classification_officer') ;
#34=PERSON_AND_ORGANIZATION_ROLE('design_supplier') ;
#36=PERSON_AND_ORGANIZATION_ROLE('creator') ;
#38=PERSON_AND_ORGANIZATION_ROLE('design_owner') ;
#39=CC_DESIGN_SECURITY_CLASSIFICATION(#16,(#6)) ;
#83=CIRCLE('generated circle',#82,7.5) ;
#97=CIRCLE('generated circle',#96,7.5) ;
#230=CIRCLE('generated circle',#229,7.5) ;
#244=CIRCLE('generated circle',#243,7.5) ;
#407=CIRCLE('generated circle',#406,4.) ;
#421=CIRCLE('generated circle',#420,4.) ;
#441=CIRCLE('generated circle',#440,4.) ;
#455=CIRCLE('generated circle',#454,4.) ;
#466=CIRCLE('generated circle',#465,1.25) ;
#475=CIRCLE('generated circle',#474,1.25) ;
#484=CIRCLE('generated circle',#483,1.25) ;
#493=CIRCLE('generated circle',#492,1.25) ;
#502=CIRCLE('generated circle',#501,1.25) ;
#511=CIRCLE('generated circle',#510,1.25) ;
#520=CIRCLE('generated circle',#519,1.25) ;
#529=CIRCLE('generated circle',#528,1.25) ;
#551=CIRCLE('generated circle',#550,7.5) ;
#582=CIRCLE('generated circle',#581,7.5) ;
#737=CIRCLE('generated circle',#736,7.5) ;
#768=CIRCLE('generated circle',#767,7.5) ;
#958=CIRCLE('generated circle',#957,11.) ;
#967=CIRCLE('generated circle',#966,11.) ;
#991=CIRCLE('generated circle',#990,11.) ;
#998=CIRCLE('generated circle',#997,11.) ;
#1036=CIRCLE('generated circle',#1035,4.) ;
#1041=CIRCLE('generated circle',#1040,4.) ;
#1061=CIRCLE('generated circle',#1060,4.) ;
#1075=CIRCLE('generated circle',#1074,4.) ;
#1092=CIRCLE('generated circle',#1091,11.) ;
#1125=CIRCLE('generated circle',#1124,11.) ;
#1142=CIRCLE('generated circle',#1141,11.) ;
#1175=CIRCLE('generated circle',#1174,11.) ;
#1192=CIRCLE('generated circle',#1191,1.25) ;
#1201=CIRCLE('generated circle',#1200,1.25) ;
#1211=CIRCLE('generated circle',#1210,1.25) ;
#1220=CIRCLE('generated circle',#1219,1.25) ;
#1230=CIRCLE('generated circle',#1229,1.25) ;
#1239=CIRCLE('generated circle',#1238,1.25) ;
#1249=CIRCLE('generated circle',#1248,1.25) ;
#1258=CIRCLE('generated circle',#1257,1.25) ;
#2090=SHAPE_REPRESENTATION_RELATIONSHIP(' ',' ',#49,#2089) ;
#540=CYLINDRICAL_SURFACE('generated cylinder',#539,7.5) ;
#571=CYLINDRICAL_SURFACE('generated cylinder',#570,7.5) ;
#726=CYLINDRICAL_SURFACE('generated cylinder',#725,7.5) ;
#757=CYLINDRICAL_SURFACE('generated cylinder',#756,7.5) ;
#1088=CYLINDRICAL_SURFACE('generated cylinder',#1087,11.) ;
#1138=CYLINDRICAL_SURFACE('generated cylinder',#1137,11.) ;
#1496=CYLINDRICAL_SURFACE('generated cylinder',#1495,1.25) ;
#1525=CYLINDRICAL_SURFACE('generated cylinder',#1524,1.25) ;
#1554=CYLINDRICAL_SURFACE('generated cylinder',#1553,1.25) ;
#1583=CYLINDRICAL_SURFACE('generated cylinder',#1582,1.25) ;
#1612=CYLINDRICAL_SURFACE('generated cylinder',#1611,4.) ;
#1624=CYLINDRICAL_SURFACE('generated cylinder',#1623,4.) ;
#1636=CYLINDRICAL_SURFACE('generated cylinder',#1635,4.) ;
#1675=CYLINDRICAL_SURFACE('generated cylinder',#1674,4.) ;
#3=DESIGN_CONTEXT(' ',#1,'design') ;
#65=EDGE_CURVE('',#62,#64,#60,.T.) ;
#72=EDGE_CURVE('',#71,#62,#69,.T.) ;
#79=EDGE_CURVE('',#78,#71,#76,.T.) ;
#86=EDGE_CURVE('',#78,#85,#83,.T.) ;
#93=EDGE_CURVE('',#92,#85,#90,.T.) ;
#100=EDGE_CURVE('',#92,#99,#97,.T.) ;
#107=EDGE_CURVE('',#106,#99,#104,.T.) ;
#114=EDGE_CURVE('',#113,#106,#111,.T.) ;
#121=EDGE_CURVE('',#120,#113,#118,.T.) ;
#128=EDGE_CURVE('',#127,#120,#125,.T.) ;
#135=EDGE_CURVE('',#134,#127,#132,.T.) ;
#142=EDGE_CURVE('',#141,#134,#139,.T.) ;
#149=EDGE_CURVE('',#148,#141,#146,.T.) ;
#156=EDGE_CURVE('',#155,#148,#153,.T.) ;
#163=EDGE_CURVE('',#162,#155,#160,.T.) ;
#170=EDGE_CURVE('',#169,#162,#167,.T.) ;
#177=EDGE_CURVE('',#169,#176,#174,.T.) ;
#184=EDGE_CURVE('',#183,#176,#181,.T.) ;
#191=EDGE_CURVE('',#183,#190,#188,.T.) ;
#198=EDGE_CURVE('',#197,#190,#195,.T.) ;
#205=EDGE_CURVE('',#197,#204,#202,.T.) ;
#212=EDGE_CURVE('',#211,#204,#209,.T.) ;
#219=EDGE_CURVE('',#211,#218,#216,.T.) ;
#226=EDGE_CURVE('',#225,#218,#223,.T.) ;
#233=EDGE_CURVE('',#225,#232,#230,.T.) ;
#240=EDGE_CURVE('',#239,#232,#237,.T.) ;
#247=EDGE_CURVE('',#239,#246,#244,.T.) ;
#254=EDGE_CURVE('',#253,#246,#251,.T.) ;
#261=EDGE_CURVE('',#253,#260,#258,.T.) ;
#268=EDGE_CURVE('',#267,#260,#265,.T.) ;
#275=EDGE_CURVE('',#267,#274,#272,.T.) ;
#282=EDGE_CURVE('',#281,#274,#279,.T.) ;
#289=EDGE_CURVE('',#281,#288,#286,.T.) ;
#296=EDGE_CURVE('',#295,#288,#293,.T.) ;
#303=EDGE_CURVE('',#295,#302,#300,.T.) ;
#310=EDGE_CURVE('',#309,#302,#307,.T.) ;
#317=EDGE_CURVE('',#316,#309,#314,.T.) ;
#324=EDGE_CURVE('',#323,#316,#321,.T.) ;
#331=EDGE_CURVE('',#330,#323,#328,.T.) ;
#338=EDGE_CURVE('',#337,#330,#335,.T.) ;
#345=EDGE_CURVE('',#344,#337,#342,.T.) ;
#350=EDGE_CURVE('',#64,#344,#349,.T.) ;
#403=EDGE_CURVE('',#400,#402,#398,.T.) ;
#410=EDGE_CURVE('',#409,#400,#407,.T.) ;
#417=EDGE_CURVE('',#416,#409,#414,.T.) ;
#422=EDGE_CURVE('',#402,#416,#421,.T.) ;
#437=EDGE_CURVE('',#434,#436,#432,.T.) ;
#444=EDGE_CURVE('',#443,#436,#441,.T.) ;
#451=EDGE_CURVE('',#443,#450,#448,.T.) ;
#456=EDGE_CURVE('',#434,#450,#455,.T.) ;
#471=EDGE_CURVE('',#468,#470,#466,.T.) ;
#476=EDGE_CURVE('',#470,#468,#475,.T.) ;
#489=EDGE_CURVE('',#486,#488,#484,.T.) ;
#494=EDGE_CURVE('',#488,#486,#493,.T.) ;
#507=EDGE_CURVE('',#504,#506,#502,.T.) ;
#512=EDGE_CURVE('',#506,#504,#511,.T.) ;
#525=EDGE_CURVE('',#522,#524,#520,.T.) ;
#530=EDGE_CURVE('',#524,#522,#529,.T.) ;
#547=EDGE_CURVE('',#546,#78,#544,.T.) ;
#554=EDGE_CURVE('',#546,#553,#551,.T.) ;
#559=EDGE_CURVE('',#553,#85,#558,.T.) ;
#578=EDGE_CURVE('',#577,#92,#575,.T.) ;
#585=EDGE_CURVE('',#577,#584,#582,.T.) ;
#590=EDGE_CURVE('',#584,#99,#589,.T.) ;
#609=EDGE_CURVE('',#169,#608,#606,.T.) ;
#616=EDGE_CURVE('',#615,#608,#613,.T.) ;
#621=EDGE_CURVE('',#176,#615,#620,.T.) ;
#640=EDGE_CURVE('',#183,#639,#637,.T.) ;
#647=EDGE_CURVE('',#646,#639,#644,.T.) ;
#652=EDGE_CURVE('',#190,#646,#651,.T.) ;
#671=EDGE_CURVE('',#197,#670,#668,.T.) ;
#678=EDGE_CURVE('',#677,#670,#675,.T.) ;
#683=EDGE_CURVE('',#204,#677,#682,.T.) ;
#702=EDGE_CURVE('',#211,#701,#699,.T.) ;
#709=EDGE_CURVE('',#708,#701,#706,.T.) ;
#714=EDGE_CURVE('',#218,#708,#713,.T.) ;
#733=EDGE_CURVE('',#732,#225,#730,.T.) ;
#740=EDGE_CURVE('',#732,#739,#737,.T.) ;
#745=EDGE_CURVE('',#739,#232,#744,.T.) ;
#764=EDGE_CURVE('',#763,#239,#761,.T.) ;
#771=EDGE_CURVE('',#763,#770,#768,.T.) ;
#776=EDGE_CURVE('',#770,#246,#775,.T.) ;
#790=EDGE_CURVE('',#253,#789,#787,.T.) ;
#797=EDGE_CURVE('',#796,#789,#794,.F.) ;
#802=EDGE_CURVE('',#260,#796,#801,.T.) ;
#816=EDGE_CURVE('',#267,#815,#813,.T.) ;
#823=EDGE_CURVE('',#822,#815,#820,.F.) ;
#828=EDGE_CURVE('',#274,#822,#827,.T.) ;
#842=EDGE_CURVE('',#281,#841,#839,.T.) ;
#849=EDGE_CURVE('',#848,#841,#846,.F.) ;
#854=EDGE_CURVE('',#288,#848,#853,.T.) ;
#868=EDGE_CURVE('',#295,#867,#865,.T.) ;
#875=EDGE_CURVE('',#874,#867,#872,.F.) ;
#880=EDGE_CURVE('',#302,#874,#879,.T.) ;
#899=EDGE_CURVE('',#434,#898,#896,.T.) ;
#906=EDGE_CURVE('',#905,#898,#903,.F.) ;
#911=EDGE_CURVE('',#905,#436,#910,.T.) ;
#930=EDGE_CURVE('',#929,#443,#927,.T.) ;
#937=EDGE_CURVE('',#936,#929,#934,.F.) ;
#942=EDGE_CURVE('',#936,#450,#941,.T.) ;
#963=EDGE_CURVE('',#960,#962,#958,.T.) ;
#970=EDGE_CURVE('',#962,#969,#967,.T.) ;
#975=EDGE_CURVE('',#584,#969,#974,.F.) ;
#980=EDGE_CURVE('',#553,#577,#979,.F.) ;
#987=EDGE_CURVE('',#986,#546,#984,.F.) ;
#994=EDGE_CURVE('',#986,#993,#991,.T.) ;
#1001=EDGE_CURVE('',#993,#1000,#998,.T.) ;
#1006=EDGE_CURVE('',#770,#1000,#1005,.F.) ;
#1011=EDGE_CURVE('',#739,#763,#1010,.F.) ;
#1016=EDGE_CURVE('',#960,#732,#1015,.F.) ;
#1037=EDGE_CURVE('',#898,#936,#1036,.T.) ;
#1042=EDGE_CURVE('',#929,#905,#1041,.T.) ;
#1057=EDGE_CURVE('',#1054,#1056,#1052,.T.) ;
#1064=EDGE_CURVE('',#1056,#1063,#1061,.T.) ;
#1071=EDGE_CURVE('',#1063,#1070,#1068,.T.) ;
#1076=EDGE_CURVE('',#1070,#1054,#1075,.T.) ;
#1097=EDGE_CURVE('',#1094,#1096,#1092,.T.) ;
#1102=EDGE_CURVE('',#1096,#1000,#1101,.F.) ;
#1107=EDGE_CURVE('',#1094,#993,#1106,.F.) ;
#1121=EDGE_CURVE('',#1120,#986,#1118,.F.) ;
#1126=EDGE_CURVE('',#1120,#1094,#1125,.T.) ;
#1147=EDGE_CURVE('',#1144,#1146,#1142,.T.) ;
#1152=EDGE_CURVE('',#1146,#969,#1151,.F.) ;
#1157=EDGE_CURVE('',#1144,#962,#1156,.F.) ;
#1171=EDGE_CURVE('',#1170,#960,#1168,.F.) ;
#1176=EDGE_CURVE('',#1170,#1144,#1175,.T.) ;
#1197=EDGE_CURVE('',#1194,#1196,#1192,.T.) ;
#1202=EDGE_CURVE('',#1196,#1194,#1201,.T.) ;
#1216=EDGE_CURVE('',#1213,#1215,#1211,.T.) ;
#1221=EDGE_CURVE('',#1215,#1213,#1220,.T.) ;
#1235=EDGE_CURVE('',#1232,#1234,#1230,.T.) ;
#1240=EDGE_CURVE('',#1234,#1232,#1239,.T.) ;
#1254=EDGE_CURVE('',#1251,#1253,#1249,.T.) ;
#1259=EDGE_CURVE('',#1253,#1251,#1258,.T.) ;
#1276=EDGE_CURVE('',#1120,#1275,#1273,.T.) ;
#1283=EDGE_CURVE('',#1275,#1282,#1280,.T.) ;
#1290=EDGE_CURVE('',#1282,#1289,#1287,.T.) ;
#1297=EDGE_CURVE('',#1289,#1296,#1294,.T.) ;
#1304=EDGE_CURVE('',#1296,#1303,#1301,.T.) ;
#1311=EDGE_CURVE('',#1303,#1310,#1308,.T.) ;
#1318=EDGE_CURVE('',#1310,#1317,#1315,.T.) ;
#1325=EDGE_CURVE('',#1317,#1324,#1322,.T.) ;
#1332=EDGE_CURVE('',#1324,#1331,#1329,.T.) ;
#1337=EDGE_CURVE('',#1331,#874,#1336,.F.) ;
#1342=EDGE_CURVE('',#867,#848,#1341,.F.) ;
#1347=EDGE_CURVE('',#841,#822,#1346,.F.) ;
#1352=EDGE_CURVE('',#815,#796,#1351,.F.) ;
#1357=EDGE_CURVE('',#789,#1096,#1356,.F.) ;
#1385=EDGE_CURVE('',#1170,#708,#1384,.T.) ;
#1390=EDGE_CURVE('',#701,#677,#1389,.T.) ;
#1395=EDGE_CURVE('',#670,#646,#1394,.T.) ;
#1400=EDGE_CURVE('',#639,#615,#1399,.T.) ;
#1407=EDGE_CURVE('',#608,#1406,#1404,.T.) ;
#1414=EDGE_CURVE('',#1406,#1413,#1411,.F.) ;
#1421=EDGE_CURVE('',#1413,#1420,#1418,.F.) ;
#1428=EDGE_CURVE('',#1420,#1427,#1425,.F.) ;
#1435=EDGE_CURVE('',#1427,#1434,#1432,.F.) ;
#1442=EDGE_CURVE('',#1434,#1441,#1439,.F.) ;
#1449=EDGE_CURVE('',#1441,#1448,#1446,.F.) ;
#1456=EDGE_CURVE('',#1448,#1455,#1453,.F.) ;
#1463=EDGE_CURVE('',#1455,#1462,#1460,.F.) ;
#1468=EDGE_CURVE('',#1462,#1146,#1467,.F.) ;
#1501=EDGE_CURVE('',#522,#1194,#1500,.F.) ;
#1506=EDGE_CURVE('',#524,#1196,#1505,.F.) ;
#1530=EDGE_CURVE('',#504,#1213,#1529,.F.) ;
#1535=EDGE_CURVE('',#506,#1215,#1534,.F.) ;
#1559=EDGE_CURVE('',#486,#1232,#1558,.F.) ;
#1564=EDGE_CURVE('',#488,#1234,#1563,.F.) ;
#1588=EDGE_CURVE('',#468,#1251,#1587,.F.) ;
#1593=EDGE_CURVE('',#470,#1253,#1592,.F.) ;
#1641=EDGE_CURVE('',#1063,#416,#1640,.T.) ;
#1646=EDGE_CURVE('',#1056,#402,#1645,.T.) ;
#1663=EDGE_CURVE('',#1070,#409,#1662,.T.) ;
#1680=EDGE_CURVE('',#1054,#400,#1679,.T.) ;
#1709=EDGE_CURVE('',#344,#1296,#1708,.T.) ;
#1714=EDGE_CURVE('',#64,#1289,#1713,.T.) ;
#1731=EDGE_CURVE('',#337,#1303,#1730,.T.) ;
#1748=EDGE_CURVE('',#330,#1310,#1747,.T.) ;
#1765=EDGE_CURVE('',#323,#1317,#1764,.T.) ;
#1782=EDGE_CURVE('',#316,#1324,#1781,.T.) ;
#1799=EDGE_CURVE('',#309,#1331,#1798,.T.) ;
#1925=EDGE_CURVE('',#162,#1406,#1924,.T.) ;
#1937=EDGE_CURVE('',#155,#1413,#1936,.T.) ;
#1949=EDGE_CURVE('',#148,#1420,#1948,.T.) ;
#1961=EDGE_CURVE('',#141,#1427,#1960,.T.) ;
#1973=EDGE_CURVE('',#134,#1434,#1972,.T.) ;
#1985=EDGE_CURVE('',#127,#1441,#1984,.T.) ;
#1997=EDGE_CURVE('',#120,#1448,#1996,.T.) ;
#2009=EDGE_CURVE('',#113,#1455,#2008,.T.) ;
#2026=EDGE_CURVE('',#106,#1462,#2025,.T.) ;
#2059=EDGE_CURVE('',#71,#1275,#2058,.T.) ;
#2073=EDGE_CURVE('',#62,#1282,#2072,.T.) ;
#351=EDGE_LOOP('',(#352,#353,#354,#355,#356,#357,#358,#359,#360,#361,#362,#363,#364,#365,#366,#367,#368,#369,#370,#371,#372,#373,#374,#375,#376,#377,#378,#379,#380,#381,#382,#383,#384,#385,#386,#387,#388,#389,#390,#391,#392,#393)) ;
#423=EDGE_LOOP('',(#424,#425,#426,#427)) ;
#457=EDGE_LOOP('',(#458,#459,#460,#461)) ;
#477=EDGE_LOOP('',(#478,#479)) ;
#495=EDGE_LOOP('',(#496,#497)) ;
#513=EDGE_LOOP('',(#514,#515)) ;
#531=EDGE_LOOP('',(#532,#533)) ;
#560=EDGE_LOOP('',(#561,#562,#563,#564)) ;
#591=EDGE_LOOP('',(#592,#593,#594,#595)) ;
#622=EDGE_LOOP('',(#623,#624,#625,#626)) ;
#653=EDGE_LOOP('',(#654,#655,#656,#657)) ;
#684=EDGE_LOOP('',(#685,#686,#687,#688)) ;
#715=EDGE_LOOP('',(#716,#717,#718,#719)) ;
#746=EDGE_LOOP('',(#747,#748,#749,#750)) ;
#777=EDGE_LOOP('',(#778,#779,#780,#781)) ;
#803=EDGE_LOOP('',(#804,#805,#806,#807)) ;
#829=EDGE_LOOP('',(#830,#831,#832,#833)) ;
#855=EDGE_LOOP('',(#856,#857,#858,#859)) ;
#881=EDGE_LOOP('',(#882,#883,#884,#885)) ;
#912=EDGE_LOOP('',(#913,#914,#915,#916)) ;
#943=EDGE_LOOP('',(#944,#945,#946,#947)) ;
#1017=EDGE_LOOP('',(#1018,#1019,#1020,#1021,#1022,#1023,#1024,#1025,#1026,#1027,#1028,#1029,#1030,#1031)) ;
#1043=EDGE_LOOP('',(#1044,#1045,#1046,#1047)) ;
#1077=EDGE_LOOP('',(#1078,#1079,#1080,#1081)) ;
#1108=EDGE_LOOP('',(#1109,#1110,#1111,#1112)) ;
#1127=EDGE_LOOP('',(#1128,#1129,#1130,#1131)) ;
#1158=EDGE_LOOP('',(#1159,#1160,#1161,#1162)) ;
#1177=EDGE_LOOP('',(#1178,#1179,#1180,#1181)) ;
#1203=EDGE_LOOP('',(#1204,#1205)) ;
#1222=EDGE_LOOP('',(#1223,#1224)) ;
#1241=EDGE_LOOP('',(#1242,#1243)) ;
#1260=EDGE_LOOP('',(#1261,#1262)) ;
#1358=EDGE_LOOP('',(#1359,#1360,#1361,#1362,#1363,#1364,#1365,#1366,#1367,#1368,#1369,#1370,#1371,#1372,#1373,#1374,#1375,#1376,#1377,#1378)) ;
#1469=EDGE_LOOP('',(#1470,#1471,#1472,#1473,#1474,#1475,#1476,#1477,#1478,#1479,#1480,#1481,#1482,#1483,#1484,#1485,#1486,#1487,#1488,#1489)) ;
#1507=EDGE_LOOP('',(#1508,#1509,#1510,#1511)) ;
#1514=EDGE_LOOP('',(#1515,#1516,#1517,#1518)) ;
#1536=EDGE_LOOP('',(#1537,#1538,#1539,#1540)) ;
#1543=EDGE_LOOP('',(#1544,#1545,#1546,#1547)) ;
#1565=EDGE_LOOP('',(#1566,#1567,#1568,#1569)) ;
#1572=EDGE_LOOP('',(#1573,#1574,#1575,#1576)) ;
#1594=EDGE_LOOP('',(#1595,#1596,#1597,#1598)) ;
#1601=EDGE_LOOP('',(#1602,#1603,#1604,#1605)) ;
#1613=EDGE_LOOP('',(#1614,#1615,#1616,#1617)) ;
#1625=EDGE_LOOP('',(#1626,#1627,#1628,#1629)) ;
#1647=EDGE_LOOP('',(#1648,#1649,#1650,#1651)) ;
#1664=EDGE_LOOP('',(#1665,#1666,#1667,#1668)) ;
#1681=EDGE_LOOP('',(#1682,#1683,#1684,#1685)) ;
#1693=EDGE_LOOP('',(#1694,#1695,#1696,#1697)) ;
#1715=EDGE_LOOP('',(#1716,#1717,#1718,#1719)) ;
#1732=EDGE_LOOP('',(#1733,#1734,#1735,#1736)) ;
#1749=EDGE_LOOP('',(#1750,#1751,#1752,#1753)) ;
#1766=EDGE_LOOP('',(#1767,#1768,#1769,#1770)) ;
#1783=EDGE_LOOP('',(#1784,#1785,#1786,#1787)) ;
#1800=EDGE_LOOP('',(#1801,#1802,#1803,#1804)) ;
#1807=EDGE_LOOP('',(#1808,#1809,#1810,#1811)) ;
#1814=EDGE_LOOP('',(#1815,#1816,#1817,#1818)) ;
#1821=EDGE_LOOP('',(#1822,#1823,#1824,#1825)) ;
#1833=EDGE_LOOP('',(#1834,#1835,#1836,#1837)) ;
#1845=EDGE_LOOP('',(#1846,#1847,#1848,#1849,#1850,#1851)) ;
#1859=EDGE_LOOP('',(#1860,#1861,#1862,#1863)) ;
#1871=EDGE_LOOP('',(#1872,#1873,#1874,#1875,#1876,#1877)) ;
#1885=EDGE_LOOP('',(#1886,#1887,#1888,#1889)) ;
#1897=EDGE_LOOP('',(#1898,#1899,#1900,#1901)) ;
#1909=EDGE_LOOP('',(#1910,#1911,#1912,#1913)) ;
#1926=EDGE_LOOP('',(#1927,#1928,#1929,#1930)) ;
#1938=EDGE_LOOP('',(#1939,#1940,#1941,#1942)) ;
#1950=EDGE_LOOP('',(#1951,#1952,#1953,#1954)) ;
#1962=EDGE_LOOP('',(#1963,#1964,#1965,#1966)) ;
#1974=EDGE_LOOP('',(#1975,#1976,#1977,#1978)) ;
#1986=EDGE_LOOP('',(#1987,#1988,#1989,#1990)) ;
#1998=EDGE_LOOP('',(#1999,#2000,#2001,#2002)) ;
#2010=EDGE_LOOP('',(#2011,#2012,#2013,#2014)) ;
#2027=EDGE_LOOP('',(#2028,#2029,#2030,#2031)) ;
#2034=EDGE_LOOP('',(#2035,#2036,#2037,#2038,#2039,#2040)) ;
#2048=EDGE_LOOP('',(#2049,#2050,#2051,#2052)) ;
#2060=EDGE_LOOP('',(#2061,#2062,#2063,#2064,#2065,#2066)) ;
#2074=EDGE_LOOP('',(#2075,#2076,#2077,#2078)) ;
#2081=EDGE_LOOP('',(#2082,#2083,#2084,#2085)) ;
#394=FACE_OUTER_BOUND('',#351,.T.) ;
#565=FACE_OUTER_BOUND('',#560,.T.) ;
#596=FACE_OUTER_BOUND('',#591,.T.) ;
#627=FACE_OUTER_BOUND('',#622,.T.) ;
#658=FACE_OUTER_BOUND('',#653,.T.) ;
#689=FACE_OUTER_BOUND('',#684,.T.) ;
#720=FACE_OUTER_BOUND('',#715,.T.) ;
#751=FACE_OUTER_BOUND('',#746,.T.) ;
#782=FACE_OUTER_BOUND('',#777,.T.) ;
#808=FACE_OUTER_BOUND('',#803,.T.) ;
#834=FACE_OUTER_BOUND('',#829,.T.) ;
#860=FACE_OUTER_BOUND('',#855,.T.) ;
#886=FACE_OUTER_BOUND('',#881,.T.) ;
#917=FACE_OUTER_BOUND('',#912,.T.) ;
#948=FACE_OUTER_BOUND('',#943,.T.) ;
#1032=FACE_OUTER_BOUND('',#1017,.T.) ;
#1113=FACE_OUTER_BOUND('',#1108,.T.) ;
#1132=FACE_OUTER_BOUND('',#1127,.T.) ;
#1163=FACE_OUTER_BOUND('',#1158,.T.) ;
#1182=FACE_OUTER_BOUND('',#1177,.T.) ;
#1206=FACE_OUTER_BOUND('',#1203,.T.) ;
#1225=FACE_OUTER_BOUND('',#1222,.T.) ;
#1244=FACE_OUTER_BOUND('',#1241,.T.) ;
#1263=FACE_OUTER_BOUND('',#1260,.T.) ;
#1379=FACE_OUTER_BOUND('',#1358,.T.) ;
#1490=FACE_OUTER_BOUND('',#1469,.T.) ;
#1512=FACE_OUTER_BOUND('',#1507,.T.) ;
#1519=FACE_OUTER_BOUND('',#1514,.T.) ;
#1541=FACE_OUTER_BOUND('',#1536,.T.) ;
#1548=FACE_OUTER_BOUND('',#1543,.T.) ;
#1570=FACE_OUTER_BOUND('',#1565,.T.) ;
#1577=FACE_OUTER_BOUND('',#1572,.T.) ;
#1599=FACE_OUTER_BOUND('',#1594,.T.) ;
#1606=FACE_OUTER_BOUND('',#1601,.T.) ;
#1618=FACE_OUTER_BOUND('',#1613,.T.) ;
#1630=FACE_OUTER_BOUND('',#1625,.T.) ;
#1652=FACE_OUTER_BOUND('',#1647,.T.) ;
#1669=FACE_OUTER_BOUND('',#1664,.T.) ;
#1686=FACE_OUTER_BOUND('',#1681,.T.) ;
#1698=FACE_OUTER_BOUND('',#1693,.T.) ;
#1720=FACE_OUTER_BOUND('',#1715,.T.) ;
#1737=FACE_OUTER_BOUND('',#1732,.T.) ;
#1754=FACE_OUTER_BOUND('',#1749,.T.) ;
#1771=FACE_OUTER_BOUND('',#1766,.T.) ;
#1788=FACE_OUTER_BOUND('',#1783,.T.) ;
#1805=FACE_OUTER_BOUND('',#1800,.T.) ;
#1812=FACE_OUTER_BOUND('',#1807,.T.) ;
#1819=FACE_OUTER_BOUND('',#1814,.T.) ;
#1826=FACE_OUTER_BOUND('',#1821,.T.) ;
#1838=FACE_OUTER_BOUND('',#1833,.T.) ;
#1852=FACE_OUTER_BOUND('',#1845,.T.) ;
#1864=FACE_OUTER_BOUND('',#1859,.T.) ;
#1878=FACE_OUTER_BOUND('',#1871,.T.) ;
#1890=FACE_OUTER_BOUND('',#1885,.T.) ;
#1902=FACE_OUTER_BOUND('',#1897,.T.) ;
#1914=FACE_OUTER_BOUND('',#1909,.T.) ;
#1931=FACE_OUTER_BOUND('',#1926,.T.) ;
#1943=FACE_OUTER_BOUND('',#1938,.T.) ;
#1955=FACE_OUTER_BOUND('',#1950,.T.) ;
#1967=FACE_OUTER_BOUND('',#1962,.T.) ;
#1979=FACE_OUTER_BOUND('',#1974,.T.) ;
#1991=FACE_OUTER_BOUND('',#1986,.T.) ;
#2003=FACE_OUTER_BOUND('',#1998,.T.) ;
#2015=FACE_OUTER_BOUND('',#2010,.T.) ;
#2032=FACE_OUTER_BOUND('',#2027,.T.) ;
#2041=FACE_OUTER_BOUND('',#2034,.T.) ;
#2053=FACE_OUTER_BOUND('',#2048,.T.) ;
#2067=FACE_OUTER_BOUND('',#2060,.T.) ;
#2079=FACE_OUTER_BOUND('',#2074,.T.) ;
#2086=FACE_OUTER_BOUND('',#2081,.T.) ;
#45=UNCERTAINTY_MEASURE_WITH_UNIT(LENGTH_MEASURE(0.005),#41,'distance_accuracy_value','CONFUSED CURVE UNCERTAINTY') ;
#60=LINE('Line',#57,#59) ;
#69=LINE('Line',#66,#68) ;
#76=LINE('Line',#73,#75) ;
#90=LINE('Line',#87,#89) ;
#104=LINE('Line',#101,#103) ;
#111=LINE('Line',#108,#110) ;
#118=LINE('Line',#115,#117) ;
#125=LINE('Line',#122,#124) ;
#132=LINE('Line',#129,#131) ;
#139=LINE('Line',#136,#138) ;
#146=LINE('Line',#143,#145) ;
#153=LINE('Line',#150,#152) ;
#160=LINE('Line',#157,#159) ;
#167=LINE('Line',#164,#166) ;
#174=LINE('Line',#171,#173) ;
#181=LINE('Line',#178,#180) ;
#188=LINE('Line',#185,#187) ;
#195=LINE('Line',#192,#194) ;
#202=LINE('Line',#199,#201) ;
#209=LINE('Line',#206,#208) ;
#216=LINE('Line',#213,#215) ;
#223=LINE('Line',#220,#222) ;
#237=LINE('Line',#234,#236) ;
#251=LINE('Line',#248,#250) ;
#258=LINE('Line',#255,#257) ;
#265=LINE('Line',#262,#264) ;
#272=LINE('Line',#269,#271) ;
#279=LINE('Line',#276,#278) ;
#286=LINE('Line',#283,#285) ;
#293=LINE('Line',#290,#292) ;
#300=LINE('Line',#297,#299) ;
#307=LINE('Line',#304,#306) ;
#314=LINE('Line',#311,#313) ;
#321=LINE('Line',#318,#320) ;
#328=LINE('Line',#325,#327) ;
#335=LINE('Line',#332,#334) ;
#342=LINE('Line',#339,#341) ;
#349=LINE('Line',#346,#348) ;
#398=LINE('Line',#395,#397) ;
#414=LINE('Line',#411,#413) ;
#432=LINE('Line',#429,#431) ;
#448=LINE('Line',#445,#447) ;
#544=LINE('Line',#541,#543) ;
#558=LINE('Line',#555,#557) ;
#575=LINE('Line',#572,#574) ;
#589=LINE('Line',#586,#588) ;
#606=LINE('Line',#603,#605) ;
#613=LINE('Line',#610,#612) ;
#620=LINE('Line',#617,#619) ;
#637=LINE('Line',#634,#636) ;
#644=LINE('Line',#641,#643) ;
#651=LINE('Line',#648,#650) ;
#668=LINE('Line',#665,#667) ;
#675=LINE('Line',#672,#674) ;
#682=LINE('Line',#679,#681) ;
#699=LINE('Line',#696,#698) ;
#706=LINE('Line',#703,#705) ;
#713=LINE('Line',#710,#712) ;
#730=LINE('Line',#727,#729) ;
#744=LINE('Line',#741,#743) ;
#761=LINE('Line',#758,#760) ;
#775=LINE('Line',#772,#774) ;
#787=LINE('Line',#784,#786) ;
#794=LINE('Line',#791,#793) ;
#801=LINE('Line',#798,#800) ;
#813=LINE('Line',#810,#812) ;
#820=LINE('Line',#817,#819) ;
#827=LINE('Line',#824,#826) ;
#839=LINE('Line',#836,#838) ;
#846=LINE('Line',#843,#845) ;
#853=LINE('Line',#850,#852) ;
#865=LINE('Line',#862,#864) ;
#872=LINE('Line',#869,#871) ;
#879=LINE('Line',#876,#878) ;
#896=LINE('Line',#893,#895) ;
#903=LINE('Line',#900,#902) ;
#910=LINE('Line',#907,#909) ;
#927=LINE('Line',#924,#926) ;
#934=LINE('Line',#931,#933) ;
#941=LINE('Line',#938,#940) ;
#974=LINE('Line',#971,#973) ;
#979=LINE('Line',#976,#978) ;
#984=LINE('Line',#981,#983) ;
#1005=LINE('Line',#1002,#1004) ;
#1010=LINE('Line',#1007,#1009) ;
#1015=LINE('Line',#1012,#1014) ;
#1052=LINE('Line',#1049,#1051) ;
#1068=LINE('Line',#1065,#1067) ;
#1101=LINE('Line',#1098,#1100) ;
#1106=LINE('Line',#1103,#1105) ;
#1118=LINE('Line',#1115,#1117) ;
#1151=LINE('Line',#1148,#1150) ;
#1156=LINE('Line',#1153,#1155) ;
#1168=LINE('Line',#1165,#1167) ;
#1273=LINE('Line',#1270,#1272) ;
#1280=LINE('Line',#1277,#1279) ;
#1287=LINE('Line',#1284,#1286) ;
#1294=LINE('Line',#1291,#1293) ;
#1301=LINE('Line',#1298,#1300) ;
#1308=LINE('Line',#1305,#1307) ;
#1315=LINE('Line',#1312,#1314) ;
#1322=LINE('Line',#1319,#1321) ;
#1329=LINE('Line',#1326,#1328) ;
#1336=LINE('Line',#1333,#1335) ;
#1341=LINE('Line',#1338,#1340) ;
#1346=LINE('Line',#1343,#1345) ;
#1351=LINE('Line',#1348,#1350) ;
#1356=LINE('Line',#1353,#1355) ;
#1384=LINE('Line',#1381,#1383) ;
#1389=LINE('Line',#1386,#1388) ;
#1394=LINE('Line',#1391,#1393) ;
#1399=LINE('Line',#1396,#1398) ;
#1404=LINE('Line',#1401,#1403) ;
#1411=LINE('Line',#1408,#1410) ;
#1418=LINE('Line',#1415,#1417) ;
#1425=LINE('Line',#1422,#1424) ;
#1432=LINE('Line',#1429,#1431) ;
#1439=LINE('Line',#1436,#1438) ;
#1446=LINE('Line',#1443,#1445) ;
#1453=LINE('Line',#1450,#1452) ;
#1460=LINE('Line',#1457,#1459) ;
#1467=LINE('Line',#1464,#1466) ;
#1500=LINE('Line',#1497,#1499) ;
#1505=LINE('Line',#1502,#1504) ;
#1529=LINE('Line',#1526,#1528) ;
#1534=LINE('Line',#1531,#1533) ;
#1558=LINE('Line',#1555,#1557) ;
#1563=LINE('Line',#1560,#1562) ;
#1587=LINE('Line',#1584,#1586) ;
#1592=LINE('Line',#1589,#1591) ;
#1640=LINE('Line',#1637,#1639) ;
#1645=LINE('Line',#1642,#1644) ;
#1662=LINE('Line',#1659,#1661) ;
#1679=LINE('Line',#1676,#1678) ;
#1708=LINE('Line',#1705,#1707) ;
#1713=LINE('Line',#1710,#1712) ;
#1730=LINE('Line',#1727,#1729) ;
#1747=LINE('Line',#1744,#1746) ;
#1764=LINE('Line',#1761,#1763) ;
#1781=LINE('Line',#1778,#1780) ;
#1798=LINE('Line',#1795,#1797) ;
#1924=LINE('Line',#1921,#1923) ;
#1936=LINE('Line',#1933,#1935) ;
#1948=LINE('Line',#1945,#1947) ;
#1960=LINE('Line',#1957,#1959) ;
#1972=LINE('Line',#1969,#1971) ;
#1984=LINE('Line',#1981,#1983) ;
#1996=LINE('Line',#1993,#1995) ;
#2008=LINE('Line',#2005,#2007) ;
#2025=LINE('Line',#2022,#2024) ;
#2058=LINE('Line',#2055,#2057) ;
#2072=LINE('Line',#2069,#2071) ;
#2=MECHANICAL_CONTEXT(' ',#1,'mechanical') ;
#24=PERSONAL_ADDRESS(' ',' ',' ',' ',' ',' ',' ',' ',' ',' ',' ',' ',(#22),' ') ;
#56=PLANE('Plane',#55) ;
#602=PLANE('Plane',#601) ;
#633=PLANE('Plane',#632) ;
#664=PLANE('Plane',#663) ;
#695=PLANE('Plane',#694) ;
#892=PLANE('Plane',#891) ;
#923=PLANE('Plane',#922) ;
#954=PLANE('Plane',#953) ;
#1188=PLANE('Plane',#1187) ;
#1269=PLANE('Plane',#1268) ;
#1658=PLANE('Plane',#1657) ;
#1692=PLANE('Plane',#1691) ;
#1704=PLANE('Plane',#1703) ;
#1726=PLANE('Plane',#1725) ;
#1743=PLANE('Plane',#1742) ;
#1760=PLANE('Plane',#1759) ;
#1777=PLANE('Plane',#1776) ;
#1794=PLANE('Plane',#1793) ;
#1832=PLANE('Plane',#1831) ;
#1844=PLANE('Plane',#1843) ;
#1858=PLANE('Plane',#1857) ;
#1870=PLANE('Plane',#1869) ;
#1884=PLANE('Plane',#1883) ;
#1896=PLANE('Plane',#1895) ;
#1908=PLANE('Plane',#1907) ;
#1920=PLANE('Plane',#1919) ;
#2021=PLANE('Plane',#2020) ;
#2047=PLANE('Plane',#2046) ;
#43=PLANE_ANGLE_MEASURE_WITH_UNIT(PLANE_ANGLE_MEASURE(0.0174532925199),#42) ;
#7=PRODUCT_CATEGORY('part',$) ;
#9=PRODUCT_CATEGORY_RELATIONSHIP(' ',' ',#7,#8) ;
#6=PRODUCT_DEFINITION_FORMATION_WITH_SPECIFIED_SOURCE('',' ',#5,.NOT_KNOWN.) ;
#8=PRODUCT_RELATED_PRODUCT_CATEGORY('detail',$,(#5)) ;
#50=SHAPE_DEFINITION_REPRESENTATION(#40,#49) ;
#62=VERTEX_POINT('',#61) ;
#64=VERTEX_POINT('',#63) ;
#71=VERTEX_POINT('',#70) ;
#78=VERTEX_POINT('',#77) ;
#85=VERTEX_POINT('',#84) ;
#92=VERTEX_POINT('',#91) ;
#99=VERTEX_POINT('',#98) ;
#106=VERTEX_POINT('',#105) ;
#113=VERTEX_POINT('',#112) ;
#120=VERTEX_POINT('',#119) ;
#127=VERTEX_POINT('',#126) ;
#134=VERTEX_POINT('',#133) ;
#141=VERTEX_POINT('',#140) ;
#148=VERTEX_POINT('',#147) ;
#155=VERTEX_POINT('',#154) ;
#162=VERTEX_POINT('',#161) ;
#169=VERTEX_POINT('',#168) ;
#176=VERTEX_POINT('',#175) ;
#183=VERTEX_POINT('',#182) ;
#190=VERTEX_POINT('',#189) ;
#197=VERTEX_POINT('',#196) ;
#204=VERTEX_POINT('',#203) ;
#211=VERTEX_POINT('',#210) ;
#218=VERTEX_POINT('',#217) ;
#225=VERTEX_POINT('',#224) ;
#232=VERTEX_POINT('',#231) ;
#239=VERTEX_POINT('',#238) ;
#246=VERTEX_POINT('',#245) ;
#253=VERTEX_POINT('',#252) ;
#260=VERTEX_POINT('',#259) ;
#267=VERTEX_POINT('',#266) ;
#274=VERTEX_POINT('',#273) ;
#281=VERTEX_POINT('',#280) ;
#288=VERTEX_POINT('',#287) ;
#295=VERTEX_POINT('',#294) ;
#302=VERTEX_POINT('',#301) ;
#309=VERTEX_POINT('',#308) ;
#316=VERTEX_POINT('',#315) ;
#323=VERTEX_POINT('',#322) ;
#330=VERTEX_POINT('',#329) ;
#337=VERTEX_POINT('',#336) ;
#344=VERTEX_POINT('',#343) ;
#400=VERTEX_POINT('',#399) ;
#402=VERTEX_POINT('',#401) ;
#409=VERTEX_POINT('',#408) ;
#416=VERTEX_POINT('',#415) ;
#434=VERTEX_POINT('',#433) ;
#436=VERTEX_POINT('',#435) ;
#443=VERTEX_POINT('',#442) ;
#450=VERTEX_POINT('',#449) ;
#468=VERTEX_POINT('',#467) ;
#470=VERTEX_POINT('',#469) ;
#486=VERTEX_POINT('',#485) ;
#488=VERTEX_POINT('',#487) ;
#504=VERTEX_POINT('',#503) ;
#506=VERTEX_POINT('',#505) ;
#522=VERTEX_POINT('',#521) ;
#524=VERTEX_POINT('',#523) ;
#546=VERTEX_POINT('',#545) ;
#553=VERTEX_POINT('',#552) ;
#577=VERTEX_POINT('',#576) ;
#584=VERTEX_POINT('',#583) ;
#608=VERTEX_POINT('',#607) ;
#615=VERTEX_POINT('',#614) ;
#639=VERTEX_POINT('',#638) ;
#646=VERTEX_POINT('',#645) ;
#670=VERTEX_POINT('',#669) ;
#677=VERTEX_POINT('',#676) ;
#701=VERTEX_POINT('',#700) ;
#708=VERTEX_POINT('',#707) ;
#732=VERTEX_POINT('',#731) ;
#739=VERTEX_POINT('',#738) ;
#763=VERTEX_POINT('',#762) ;
#770=VERTEX_POINT('',#769) ;
#789=VERTEX_POINT('',#788) ;
#796=VERTEX_POINT('',#795) ;
#815=VERTEX_POINT('',#814) ;
#822=VERTEX_POINT('',#821) ;
#841=VERTEX_POINT('',#840) ;
#848=VERTEX_POINT('',#847) ;
#867=VERTEX_POINT('',#866) ;
#874=VERTEX_POINT('',#873) ;
#898=VERTEX_POINT('',#897) ;
#905=VERTEX_POINT('',#904) ;
#929=VERTEX_POINT('',#928) ;
#936=VERTEX_POINT('',#935) ;
#960=VERTEX_POINT('',#959) ;
#962=VERTEX_POINT('',#961) ;
#969=VERTEX_POINT('',#968) ;
#986=VERTEX_POINT('',#985) ;
#993=VERTEX_POINT('',#992) ;
#1000=VERTEX_POINT('',#999) ;
#1054=VERTEX_POINT('',#1053) ;
#1056=VERTEX_POINT('',#1055) ;
#1063=VERTEX_POINT('',#1062) ;
#1070=VERTEX_POINT('',#1069) ;
#1094=VERTEX_POINT('',#1093) ;
#1096=VERTEX_POINT('',#1095) ;
#1120=VERTEX_POINT('',#1119) ;
#1144=VERTEX_POINT('',#1143) ;
#1146=VERTEX_POINT('',#1145) ;
#1170=VERTEX_POINT('',#1169) ;
#1194=VERTEX_POINT('',#1193) ;
#1196=VERTEX_POINT('',#1195) ;
#1213=VERTEX_POINT('',#1212) ;
#1215=VERTEX_POINT('',#1214) ;
#1232=VERTEX_POINT('',#1231) ;
#1234=VERTEX_POINT('',#1233) ;
#1251=VERTEX_POINT('',#1250) ;
#1253=VERTEX_POINT('',#1252) ;
#1275=VERTEX_POINT('',#1274) ;
#1282=VERTEX_POINT('',#1281) ;
#1289=VERTEX_POINT('',#1288) ;
#1296=VERTEX_POINT('',#1295) ;
#1303=VERTEX_POINT('',#1302) ;
#1310=VERTEX_POINT('',#1309) ;
#1317=VERTEX_POINT('',#1316) ;
#1324=VERTEX_POINT('',#1323) ;
#1331=VERTEX_POINT('',#1330) ;
#1406=VERTEX_POINT('',#1405) ;
#1413=VERTEX_POINT('',#1412) ;
#1420=VERTEX_POINT('',#1419) ;
#1427=VERTEX_POINT('',#1426) ;
#1434=VERTEX_POINT('',#1433) ;
#1441=VERTEX_POINT('',#1440) ;
#1448=VERTEX_POINT('',#1447) ;
#1455=VERTEX_POINT('',#1454) ;
#1462=VERTEX_POINT('',#1461) ;
#41=(LENGTH_UNIT()NAMED_UNIT(*)SI_UNIT(.MILLI.,.METRE.)) ;
#42=(NAMED_UNIT(*)PLANE_ANGLE_UNIT()SI_UNIT($,.RADIAN.)) ;
#44=(NAMED_UNIT(*)SI_UNIT($,.STERADIAN.)SOLID_ANGLE_UNIT()) ;
#46=(GEOMETRIC_REPRESENTATION_CONTEXT(3)GLOBAL_UNCERTAINTY_ASSIGNED_CONTEXT((#45))GLOBAL_UNIT_ASSIGNED_CONTEXT((#41,#42,#44))REPRESENTATION_CONTEXT(' ',' ')) ;
ENDSEC;
END-ISO-10303-21;
