ISO-10303-21;
HEADER;
FILE_DESCRIPTION(('CATIA V5 STEP Exchange'),'2;1');

FILE_NAME('C:\\Users\\jon-g\\Andromeda\\Proyectos\\1_Activos\\LIA\\enclosure\\step\\Latch.stp','2026-07-06T14:26:33+00:00',('none'),('none'),'CATIA Version 5 Release 20 GA (IN-10)','CATIA V5 STEP AP203','none');

FILE_SCHEMA(('CONFIG_CONTROL_DESIGN'));

ENDSEC;
/* file written by CATIA V5R20 */
DATA;
#5=PRODUCT('Latch','','',(#2)) ;
#1=APPLICATION_CONTEXT('configuration controlled 3D design of mechanical parts and assemblies') ;
#14=PRODUCT_DEFINITION('',' ',#6,#3) ;
#16=SECURITY_CLASSIFICATION(' ',' ',#15) ;
#15=SECURITY_CLASSIFICATION_LEVEL('unclassified') ;
#47=CARTESIAN_POINT(' ',(0.,0.,0.)) ;
#52=CARTESIAN_POINT('Axis2P3D Location',(34.5,-10.,0.)) ;
#57=CARTESIAN_POINT('Line Origine',(34.5,-10.75,0.)) ;
#61=CARTESIAN_POINT('Vertex',(36.,-10.75,0.)) ;
#63=CARTESIAN_POINT('Vertex',(33.,-10.75,0.)) ;
#66=CARTESIAN_POINT('Axis2P3D Location',(36.,-10.,0.)) ;
#70=CARTESIAN_POINT('Vertex',(36.,-9.5,0.559016994375)) ;
#73=CARTESIAN_POINT('Axis2P3D Location',(36.,-10.,0.)) ;
#77=CARTESIAN_POINT('Vertex',(36.,-9.25,9.18485099361E-017)) ;
#80=CARTESIAN_POINT('Line Origine',(34.5,-9.25,9.18485099361E-017)) ;
#84=CARTESIAN_POINT('Vertex',(33.,-9.25,9.18485099361E-017)) ;
#87=CARTESIAN_POINT('Axis2P3D Location',(33.,-10.,0.)) ;
#100=CARTESIAN_POINT('Axis2P3D Location',(36.,-10.,0.)) ;
#104=CARTESIAN_POINT('Vertex',(36.,-9.5,-0.559016994375)) ;
#107=CARTESIAN_POINT('Axis2P3D Location',(36.,-10.,0.)) ;
#112=CARTESIAN_POINT('Axis2P3D Location',(33.,-10.,0.)) ;
#125=CARTESIAN_POINT('Axis2P3D Location',(33.,0.,0.)) ;
#135=CARTESIAN_POINT('Axis2P3D Location',(34.5,10.,0.)) ;
#140=CARTESIAN_POINT('Line Origine',(34.5,10.75,9.18485099361E-017)) ;
#144=CARTESIAN_POINT('Vertex',(36.,10.75,9.18485099361E-017)) ;
#146=CARTESIAN_POINT('Vertex',(33.,10.75,9.18485099361E-017)) ;
#149=CARTESIAN_POINT('Axis2P3D Location',(36.,10.,0.)) ;
#153=CARTESIAN_POINT('Vertex',(36.,9.5,-0.559016994375)) ;
#156=CARTESIAN_POINT('Axis2P3D Location',(36.,10.,0.)) ;
#160=CARTESIAN_POINT('Vertex',(36.,9.25,-1.83697019872E-016)) ;
#163=CARTESIAN_POINT('Line Origine',(34.5,9.25,-1.83697019872E-016)) ;
#167=CARTESIAN_POINT('Vertex',(33.,9.25,-1.83697019872E-016)) ;
#170=CARTESIAN_POINT('Axis2P3D Location',(33.,10.,0.)) ;
#183=CARTESIAN_POINT('Axis2P3D Location',(36.,10.,0.)) ;
#187=CARTESIAN_POINT('Vertex',(36.,9.5,0.559016994375)) ;
#190=CARTESIAN_POINT('Axis2P3D Location',(36.,10.,0.)) ;
#195=CARTESIAN_POINT('Axis2P3D Location',(33.,10.,0.)) ;
#213=CARTESIAN_POINT('Axis2P3D Location',(30.,0.,1.8)) ;
#218=CARTESIAN_POINT('Line Origine',(30.,0.,1.8)) ;
#222=CARTESIAN_POINT('Vertex',(30.,-4.5,1.8)) ;
#224=CARTESIAN_POINT('Vertex',(30.,4.5,1.8)) ;
#227=CARTESIAN_POINT('Line Origine',(30.,-4.5,4.8)) ;
#231=CARTESIAN_POINT('Vertex',(30.,-4.5,7.8)) ;
#234=CARTESIAN_POINT('Line Origine',(30.,0.,7.8)) ;
#238=CARTESIAN_POINT('Vertex',(30.,4.5,7.8)) ;
#241=CARTESIAN_POINT('Line Origine',(30.,4.5,4.8)) ;
#253=CARTESIAN_POINT('Axis2P3D Location',(0.,0.,1.8)) ;
#258=CARTESIAN_POINT('Line Origine',(39.25,9.5,1.8)) ;
#262=CARTESIAN_POINT('Vertex',(41.,9.5,1.8)) ;
#264=CARTESIAN_POINT('Vertex',(37.5,9.5,1.8)) ;
#267=CARTESIAN_POINT('Line Origine',(37.5,10.6,1.8)) ;
#271=CARTESIAN_POINT('Vertex',(37.5,11.7,1.8)) ;
#274=CARTESIAN_POINT('Line Origine',(36.75,11.7,1.8)) ;
#278=CARTESIAN_POINT('Vertex',(36.,11.7,1.8)) ;
#281=CARTESIAN_POINT('Line Origine',(36.,10.6,1.8)) ;
#285=CARTESIAN_POINT('Vertex',(36.,9.5,1.8)) ;
#288=CARTESIAN_POINT('Line Origine',(36.,7.4,1.8)) ;
#292=CARTESIAN_POINT('Vertex',(36.,5.3,1.8)) ;
#295=CARTESIAN_POINT('Line Origine',(31.5,5.3,1.8)) ;
#299=CARTESIAN_POINT('Vertex',(27.,5.3,1.8)) ;
#302=CARTESIAN_POINT('Line Origine',(27.,2.65,1.8)) ;
#306=CARTESIAN_POINT('Vertex',(27.,-7.1054273576E-015,1.8)) ;
#309=CARTESIAN_POINT('Line Origine',(27.,-2.65,1.8)) ;
#313=CARTESIAN_POINT('Vertex',(27.,-5.3,1.8)) ;
#316=CARTESIAN_POINT('Line Origine',(31.5,-5.3,1.8)) ;
#320=CARTESIAN_POINT('Vertex',(36.,-5.3,1.8)) ;
#323=CARTESIAN_POINT('Line Origine',(36.,-7.4,1.8)) ;
#327=CARTESIAN_POINT('Vertex',(36.,-9.5,1.8)) ;
#330=CARTESIAN_POINT('Line Origine',(36.,-10.6,1.8)) ;
#334=CARTESIAN_POINT('Vertex',(36.,-11.7,1.8)) ;
#337=CARTESIAN_POINT('Line Origine',(36.75,-11.7,1.8)) ;
#341=CARTESIAN_POINT('Vertex',(37.5,-11.7,1.8)) ;
#344=CARTESIAN_POINT('Line Origine',(37.5,-10.6,1.8)) ;
#348=CARTESIAN_POINT('Vertex',(37.5,-9.5,1.8)) ;
#351=CARTESIAN_POINT('Line Origine',(39.25,-9.5,1.8)) ;
#355=CARTESIAN_POINT('Vertex',(41.,-9.5,1.8)) ;
#358=CARTESIAN_POINT('Line Origine',(41.,-4.75,1.8)) ;
#362=CARTESIAN_POINT('Vertex',(41.,-1.22464679915E-016,1.8)) ;
#365=CARTESIAN_POINT('Line Origine',(41.,4.75,1.8)) ;
#388=CARTESIAN_POINT('Line Origine',(30.9,4.5,1.8)) ;
#392=CARTESIAN_POINT('Vertex',(31.8,4.5,1.8)) ;
#395=CARTESIAN_POINT('Line Origine',(31.8,0.,1.8)) ;
#399=CARTESIAN_POINT('Vertex',(31.8,-4.5,1.8)) ;
#402=CARTESIAN_POINT('Line Origine',(30.9,-4.5,1.8)) ;
#414=CARTESIAN_POINT('Axis2P3D Location',(0.,-4.5,0.)) ;
#419=CARTESIAN_POINT('Line Origine',(31.8,-4.5,4.05)) ;
#423=CARTESIAN_POINT('Vertex',(31.8,-4.5,6.3)) ;
#426=CARTESIAN_POINT('Line Origine',(32.55,-4.5,6.3)) ;
#430=CARTESIAN_POINT('Vertex',(33.3,-4.5,6.3)) ;
#433=CARTESIAN_POINT('Line Origine',(32.55,-4.5,7.05)) ;
#437=CARTESIAN_POINT('Vertex',(31.8,-4.5,7.8)) ;
#440=CARTESIAN_POINT('Line Origine',(30.9,-4.5,7.8)) ;
#454=CARTESIAN_POINT('Axis2P3D Location',(30.,0.,7.8)) ;
#459=CARTESIAN_POINT('Line Origine',(31.8,0.,7.8)) ;
#463=CARTESIAN_POINT('Vertex',(31.8,4.5,7.8)) ;
#466=CARTESIAN_POINT('Line Origine',(30.9,4.5,7.8)) ;
#478=CARTESIAN_POINT('Axis2P3D Location',(0.,4.5,0.)) ;
#483=CARTESIAN_POINT('Line Origine',(32.55,4.5,7.05)) ;
#487=CARTESIAN_POINT('Vertex',(33.3,4.5,6.3)) ;
#490=CARTESIAN_POINT('Line Origine',(32.55,4.5,6.3)) ;
#494=CARTESIAN_POINT('Vertex',(31.8,4.5,6.3)) ;
#497=CARTESIAN_POINT('Line Origine',(31.8,4.5,4.05)) ;
#511=CARTESIAN_POINT('Axis2P3D Location',(41.,9.5,0.)) ;
#516=CARTESIAN_POINT('Line Origine',(41.,9.5,-2.22044604925E-016)) ;
#520=CARTESIAN_POINT('Vertex',(41.,9.5,-1.8)) ;
#523=CARTESIAN_POINT('Line Origine',(39.25,9.5,-1.8)) ;
#527=CARTESIAN_POINT('Vertex',(37.5,9.5,-1.8)) ;
#530=CARTESIAN_POINT('Line Origine',(37.5,9.5,-2.22044604925E-016)) ;
#542=CARTESIAN_POINT('Axis2P3D Location',(37.5,9.5,0.)) ;
#547=CARTESIAN_POINT('Line Origine',(37.5,10.6,-1.8)) ;
#551=CARTESIAN_POINT('Vertex',(37.5,11.7,-1.8)) ;
#554=CARTESIAN_POINT('Line Origine',(37.5,11.7,-2.22044604925E-016)) ;
#566=CARTESIAN_POINT('Axis2P3D Location',(37.5,11.7,0.)) ;
#571=CARTESIAN_POINT('Line Origine',(36.75,11.7,-1.8)) ;
#575=CARTESIAN_POINT('Vertex',(36.,11.7,-1.8)) ;
#578=CARTESIAN_POINT('Line Origine',(36.,11.7,-2.22044604925E-016)) ;
#590=CARTESIAN_POINT('Axis2P3D Location',(36.,11.7,0.)) ;
#595=CARTESIAN_POINT('Line Origine',(36.,9.5,1.17950849719)) ;
#600=CARTESIAN_POINT('Line Origine',(36.,10.6,-1.8)) ;
#604=CARTESIAN_POINT('Vertex',(36.,9.5,-1.8)) ;
#607=CARTESIAN_POINT('Line Origine',(36.,9.5,-1.17950849719)) ;
#622=CARTESIAN_POINT('Line Origine',(36.,7.4,-1.8)) ;
#626=CARTESIAN_POINT('Vertex',(36.,5.3,-1.8)) ;
#629=CARTESIAN_POINT('Line Origine',(36.,5.3,-2.22044604925E-016)) ;
#644=CARTESIAN_POINT('Axis2P3D Location',(36.,5.3,0.)) ;
#649=CARTESIAN_POINT('Line Origine',(31.5,5.3,-1.8)) ;
#653=CARTESIAN_POINT('Vertex',(27.,5.3,-1.8)) ;
#656=CARTESIAN_POINT('Line Origine',(27.,5.3,-2.22044604925E-016)) ;
#668=CARTESIAN_POINT('Axis2P3D Location',(27.,5.3,0.)) ;
#673=CARTESIAN_POINT('Line Origine',(27.,2.65,-1.8)) ;
#677=CARTESIAN_POINT('Vertex',(27.,-7.1054273576E-015,-1.8)) ;
#680=CARTESIAN_POINT('Line Origine',(27.,-7.1054273576E-015,-2.22044604925E-016)) ;
#692=CARTESIAN_POINT('Line Origine',(27.,-2.65,-1.8)) ;
#696=CARTESIAN_POINT('Vertex',(27.,-5.3,-1.8)) ;
#699=CARTESIAN_POINT('Line Origine',(27.,-5.3,-2.22044604925E-016)) ;
#711=CARTESIAN_POINT('Axis2P3D Location',(36.,-5.3,0.)) ;
#716=CARTESIAN_POINT('Line Origine',(31.5,-5.3,-1.8)) ;
#720=CARTESIAN_POINT('Vertex',(36.,-5.3,-1.8)) ;
#723=CARTESIAN_POINT('Line Origine',(36.,-5.3,-2.22044604925E-016)) ;
#735=CARTESIAN_POINT('Line Origine',(36.,-9.5,1.17950849719)) ;
#740=CARTESIAN_POINT('Line Origine',(36.,-7.4,-1.8)) ;
#744=CARTESIAN_POINT('Vertex',(36.,-9.5,-1.8)) ;
#747=CARTESIAN_POINT('Line Origine',(36.,-9.5,-1.17950849719)) ;
#762=CARTESIAN_POINT('Line Origine',(36.,-10.6,-1.8)) ;
#766=CARTESIAN_POINT('Vertex',(36.,-11.7,-1.8)) ;
#769=CARTESIAN_POINT('Line Origine',(36.,-11.7,-2.22044604925E-016)) ;
#784=CARTESIAN_POINT('Axis2P3D Location',(37.5,-11.7,0.)) ;
#789=CARTESIAN_POINT('Line Origine',(36.75,-11.7,-1.8)) ;
#793=CARTESIAN_POINT('Vertex',(37.5,-11.7,-1.8)) ;
#796=CARTESIAN_POINT('Line Origine',(37.5,-11.7,-2.22044604925E-016)) ;
#808=CARTESIAN_POINT('Line Origine',(37.5,-10.6,-1.8)) ;
#812=CARTESIAN_POINT('Vertex',(37.5,-9.5,-1.8)) ;
#815=CARTESIAN_POINT('Line Origine',(37.5,-9.5,-2.22044604925E-016)) ;
#827=CARTESIAN_POINT('Axis2P3D Location',(41.,-9.5,0.)) ;
#832=CARTESIAN_POINT('Line Origine',(39.25,-9.5,-1.8)) ;
#836=CARTESIAN_POINT('Vertex',(41.,-9.5,-1.8)) ;
#839=CARTESIAN_POINT('Line Origine',(41.,-9.5,-2.22044604925E-016)) ;
#851=CARTESIAN_POINT('Axis2P3D Location',(41.,-9.5,0.)) ;
#856=CARTESIAN_POINT('Line Origine',(41.,-4.75,-1.8)) ;
#860=CARTESIAN_POINT('Vertex',(41.,-1.22464679915E-016,-1.8)) ;
#863=CARTESIAN_POINT('Line Origine',(41.,0.,-2.22044604925E-016)) ;
#875=CARTESIAN_POINT('Line Origine',(41.,4.75,-1.8)) ;
#887=CARTESIAN_POINT('Axis2P3D Location',(31.8,0.,6.3)) ;
#892=CARTESIAN_POINT('Line Origine',(31.8,0.,6.3)) ;
#904=CARTESIAN_POINT('Axis2P3D Location',(31.8,0.,7.8)) ;
#909=CARTESIAN_POINT('Line Origine',(33.3,0.,6.3)) ;
#921=CARTESIAN_POINT('Axis2P3D Location',(33.3,0.,6.3)) ;
#933=CARTESIAN_POINT('Axis2P3D Location',(0.,0.,-1.8)) ;
#53=DIRECTION('Axis2P3D Direction',(-1.,0.,0.)) ;
#54=DIRECTION('Axis2P3D XDirection',(0.,-1.,0.)) ;
#58=DIRECTION('Vector Direction',(-1.,0.,0.)) ;
#67=DIRECTION('Axis2P3D Direction',(-1.,0.,0.)) ;
#74=DIRECTION('Axis2P3D Direction',(-1.,0.,0.)) ;
#81=DIRECTION('Vector Direction',(-1.,0.,0.)) ;
#88=DIRECTION('Axis2P3D Direction',(-1.,0.,0.)) ;
#101=DIRECTION('Axis2P3D Direction',(-1.,0.,0.)) ;
#108=DIRECTION('Axis2P3D Direction',(-1.,0.,0.)) ;
#113=DIRECTION('Axis2P3D Direction',(-1.,0.,0.)) ;
#126=DIRECTION('Axis2P3D Direction',(-1.,0.,0.)) ;
#127=DIRECTION('Axis2P3D XDirection',(0.,-1.,0.)) ;
#136=DIRECTION('Axis2P3D Direction',(-1.,0.,0.)) ;
#137=DIRECTION('Axis2P3D XDirection',(0.,1.,1.22464679915E-016)) ;
#141=DIRECTION('Vector Direction',(-1.,0.,0.)) ;
#150=DIRECTION('Axis2P3D Direction',(-1.,0.,0.)) ;
#157=DIRECTION('Axis2P3D Direction',(-1.,0.,0.)) ;
#164=DIRECTION('Vector Direction',(-1.,0.,0.)) ;
#171=DIRECTION('Axis2P3D Direction',(-1.,0.,0.)) ;
#184=DIRECTION('Axis2P3D Direction',(-1.,0.,0.)) ;
#191=DIRECTION('Axis2P3D Direction',(-1.,0.,0.)) ;
#196=DIRECTION('Axis2P3D Direction',(-1.,0.,0.)) ;
#214=DIRECTION('Axis2P3D Direction',(-1.,0.,0.)) ;
#215=DIRECTION('Axis2P3D XDirection',(0.,0.,1.)) ;
#219=DIRECTION('Vector Direction',(0.,1.,0.)) ;
#228=DIRECTION('Vector Direction',(0.,0.,1.)) ;
#235=DIRECTION('Vector Direction',(0.,1.,0.)) ;
#242=DIRECTION('Vector Direction',(0.,0.,1.)) ;
#254=DIRECTION('Axis2P3D Direction',(0.,0.,1.)) ;
#255=DIRECTION('Axis2P3D XDirection',(1.,0.,0.)) ;
#259=DIRECTION('Vector Direction',(-1.,0.,0.)) ;
#268=DIRECTION('Vector Direction',(0.,1.,0.)) ;
#275=DIRECTION('Vector Direction',(-1.,0.,0.)) ;
#282=DIRECTION('Vector Direction',(0.,-1.,0.)) ;
#289=DIRECTION('Vector Direction',(0.,-1.,0.)) ;
#296=DIRECTION('Vector Direction',(-1.,0.,0.)) ;
#303=DIRECTION('Vector Direction',(0.,-1.,0.)) ;
#310=DIRECTION('Vector Direction',(0.,1.,0.)) ;
#317=DIRECTION('Vector Direction',(-1.,0.,0.)) ;
#324=DIRECTION('Vector Direction',(0.,1.,0.)) ;
#331=DIRECTION('Vector Direction',(0.,1.,0.)) ;
#338=DIRECTION('Vector Direction',(-1.,0.,0.)) ;
#345=DIRECTION('Vector Direction',(0.,-1.,0.)) ;
#352=DIRECTION('Vector Direction',(-1.,0.,0.)) ;
#359=DIRECTION('Vector Direction',(0.,1.,0.)) ;
#366=DIRECTION('Vector Direction',(0.,-1.,0.)) ;
#389=DIRECTION('Vector Direction',(-1.,0.,0.)) ;
#396=DIRECTION('Vector Direction',(0.,1.,0.)) ;
#403=DIRECTION('Vector Direction',(-1.,0.,0.)) ;
#415=DIRECTION('Axis2P3D Direction',(0.,1.,-0.)) ;
#416=DIRECTION('Axis2P3D XDirection',(-1.,0.,0.)) ;
#420=DIRECTION('Vector Direction',(0.,0.,-1.)) ;
#427=DIRECTION('Vector Direction',(-1.,0.,0.)) ;
#434=DIRECTION('Vector Direction',(0.707106781187,0.,-0.707106781187)) ;
#441=DIRECTION('Vector Direction',(1.,0.,0.)) ;
#455=DIRECTION('Axis2P3D Direction',(-0.,0.,1.)) ;
#456=DIRECTION('Axis2P3D XDirection',(1.,-0.,0.)) ;
#460=DIRECTION('Vector Direction',(0.,1.,0.)) ;
#467=DIRECTION('Vector Direction',(1.,0.,0.)) ;
#479=DIRECTION('Axis2P3D Direction',(0.,1.,-0.)) ;
#480=DIRECTION('Axis2P3D XDirection',(-1.,0.,0.)) ;
#484=DIRECTION('Vector Direction',(0.707106781187,0.,-0.707106781187)) ;
#491=DIRECTION('Vector Direction',(-1.,0.,0.)) ;
#498=DIRECTION('Vector Direction',(0.,0.,-1.)) ;
#512=DIRECTION('Axis2P3D Direction',(0.,1.,-0.)) ;
#513=DIRECTION('Axis2P3D XDirection',(-1.,0.,0.)) ;
#517=DIRECTION('Vector Direction',(0.,0.,1.)) ;
#524=DIRECTION('Vector Direction',(-1.,0.,0.)) ;
#531=DIRECTION('Vector Direction',(0.,0.,1.)) ;
#543=DIRECTION('Axis2P3D Direction',(1.,0.,0.)) ;
#544=DIRECTION('Axis2P3D XDirection',(0.,1.,0.)) ;
#548=DIRECTION('Vector Direction',(0.,1.,0.)) ;
#555=DIRECTION('Vector Direction',(0.,0.,1.)) ;
#567=DIRECTION('Axis2P3D Direction',(0.,1.,-0.)) ;
#568=DIRECTION('Axis2P3D XDirection',(-1.,0.,0.)) ;
#572=DIRECTION('Vector Direction',(-1.,0.,0.)) ;
#579=DIRECTION('Vector Direction',(0.,0.,1.)) ;
#591=DIRECTION('Axis2P3D Direction',(-1.,0.,0.)) ;
#592=DIRECTION('Axis2P3D XDirection',(0.,-1.,0.)) ;
#596=DIRECTION('Vector Direction',(0.,0.,1.)) ;
#601=DIRECTION('Vector Direction',(0.,-1.,0.)) ;
#608=DIRECTION('Vector Direction',(0.,0.,1.)) ;
#623=DIRECTION('Vector Direction',(0.,-1.,0.)) ;
#630=DIRECTION('Vector Direction',(0.,0.,1.)) ;
#645=DIRECTION('Axis2P3D Direction',(0.,1.,-0.)) ;
#646=DIRECTION('Axis2P3D XDirection',(-1.,0.,0.)) ;
#650=DIRECTION('Vector Direction',(-1.,0.,0.)) ;
#657=DIRECTION('Vector Direction',(0.,0.,1.)) ;
#669=DIRECTION('Axis2P3D Direction',(-1.,0.,0.)) ;
#670=DIRECTION('Axis2P3D XDirection',(0.,-1.,0.)) ;
#674=DIRECTION('Vector Direction',(0.,-1.,0.)) ;
#681=DIRECTION('Vector Direction',(0.,0.,1.)) ;
#693=DIRECTION('Vector Direction',(0.,1.,0.)) ;
#700=DIRECTION('Vector Direction',(0.,0.,1.)) ;
#712=DIRECTION('Axis2P3D Direction',(0.,1.,-0.)) ;
#713=DIRECTION('Axis2P3D XDirection',(-1.,0.,0.)) ;
#717=DIRECTION('Vector Direction',(-1.,0.,0.)) ;
#724=DIRECTION('Vector Direction',(0.,0.,1.)) ;
#736=DIRECTION('Vector Direction',(0.,0.,1.)) ;
#741=DIRECTION('Vector Direction',(0.,1.,0.)) ;
#748=DIRECTION('Vector Direction',(0.,0.,1.)) ;
#763=DIRECTION('Vector Direction',(0.,1.,0.)) ;
#770=DIRECTION('Vector Direction',(0.,0.,1.)) ;
#785=DIRECTION('Axis2P3D Direction',(0.,1.,-0.)) ;
#786=DIRECTION('Axis2P3D XDirection',(-1.,0.,0.)) ;
#790=DIRECTION('Vector Direction',(-1.,0.,0.)) ;
#797=DIRECTION('Vector Direction',(0.,0.,1.)) ;
#809=DIRECTION('Vector Direction',(0.,-1.,0.)) ;
#816=DIRECTION('Vector Direction',(0.,0.,1.)) ;
#828=DIRECTION('Axis2P3D Direction',(0.,1.,-0.)) ;
#829=DIRECTION('Axis2P3D XDirection',(-1.,0.,0.)) ;
#833=DIRECTION('Vector Direction',(-1.,0.,0.)) ;
#840=DIRECTION('Vector Direction',(0.,0.,1.)) ;
#852=DIRECTION('Axis2P3D Direction',(1.,0.,0.)) ;
#853=DIRECTION('Axis2P3D XDirection',(0.,1.,0.)) ;
#857=DIRECTION('Vector Direction',(0.,1.,0.)) ;
#864=DIRECTION('Vector Direction',(0.,0.,1.)) ;
#876=DIRECTION('Vector Direction',(0.,-1.,0.)) ;
#888=DIRECTION('Axis2P3D Direction',(1.,0.,-0.)) ;
#889=DIRECTION('Axis2P3D XDirection',(-0.,0.,-1.)) ;
#893=DIRECTION('Vector Direction',(0.,1.,0.)) ;
#905=DIRECTION('Axis2P3D Direction',(0.707106781187,-0.,0.707106781187)) ;
#906=DIRECTION('Axis2P3D XDirection',(0.707106781187,0.,-0.707106781187)) ;
#910=DIRECTION('Vector Direction',(0.,1.,0.)) ;
#922=DIRECTION('Axis2P3D Direction',(0.,0.,-1.)) ;
#923=DIRECTION('Axis2P3D XDirection',(-1.,0.,0.)) ;
#934=DIRECTION('Axis2P3D Direction',(0.,0.,1.)) ;
#935=DIRECTION('Axis2P3D XDirection',(1.,0.,0.)) ;
#48=AXIS2_PLACEMENT_3D(' ',#47,$,$) ;
#55=AXIS2_PLACEMENT_3D('Cylinder Axis2P3D',#52,#53,#54) ;
#68=AXIS2_PLACEMENT_3D('Circle Axis2P3D',#66,#67,$) ;
#75=AXIS2_PLACEMENT_3D('Circle Axis2P3D',#73,#74,$) ;
#89=AXIS2_PLACEMENT_3D('Circle Axis2P3D',#87,#88,$) ;
#102=AXIS2_PLACEMENT_3D('Circle Axis2P3D',#100,#101,$) ;
#109=AXIS2_PLACEMENT_3D('Circle Axis2P3D',#107,#108,$) ;
#114=AXIS2_PLACEMENT_3D('Circle Axis2P3D',#112,#113,$) ;
#128=AXIS2_PLACEMENT_3D('Plane Axis2P3D',#125,#126,#127) ;
#138=AXIS2_PLACEMENT_3D('Cylinder Axis2P3D',#135,#136,#137) ;
#151=AXIS2_PLACEMENT_3D('Circle Axis2P3D',#149,#150,$) ;
#158=AXIS2_PLACEMENT_3D('Circle Axis2P3D',#156,#157,$) ;
#172=AXIS2_PLACEMENT_3D('Circle Axis2P3D',#170,#171,$) ;
#185=AXIS2_PLACEMENT_3D('Circle Axis2P3D',#183,#184,$) ;
#192=AXIS2_PLACEMENT_3D('Circle Axis2P3D',#190,#191,$) ;
#197=AXIS2_PLACEMENT_3D('Circle Axis2P3D',#195,#196,$) ;
#216=AXIS2_PLACEMENT_3D('Plane Axis2P3D',#213,#214,#215) ;
#256=AXIS2_PLACEMENT_3D('Plane Axis2P3D',#253,#254,#255) ;
#417=AXIS2_PLACEMENT_3D('Plane Axis2P3D',#414,#415,#416) ;
#457=AXIS2_PLACEMENT_3D('Plane Axis2P3D',#454,#455,#456) ;
#481=AXIS2_PLACEMENT_3D('Plane Axis2P3D',#478,#479,#480) ;
#514=AXIS2_PLACEMENT_3D('Plane Axis2P3D',#511,#512,#513) ;
#545=AXIS2_PLACEMENT_3D('Plane Axis2P3D',#542,#543,#544) ;
#569=AXIS2_PLACEMENT_3D('Plane Axis2P3D',#566,#567,#568) ;
#593=AXIS2_PLACEMENT_3D('Plane Axis2P3D',#590,#591,#592) ;
#647=AXIS2_PLACEMENT_3D('Plane Axis2P3D',#644,#645,#646) ;
#671=AXIS2_PLACEMENT_3D('Plane Axis2P3D',#668,#669,#670) ;
#714=AXIS2_PLACEMENT_3D('Plane Axis2P3D',#711,#712,#713) ;
#787=AXIS2_PLACEMENT_3D('Plane Axis2P3D',#784,#785,#786) ;
#830=AXIS2_PLACEMENT_3D('Plane Axis2P3D',#827,#828,#829) ;
#854=AXIS2_PLACEMENT_3D('Plane Axis2P3D',#851,#852,#853) ;
#890=AXIS2_PLACEMENT_3D('Plane Axis2P3D',#887,#888,#889) ;
#907=AXIS2_PLACEMENT_3D('Plane Axis2P3D',#904,#905,#906) ;
#924=AXIS2_PLACEMENT_3D('Plane Axis2P3D',#921,#922,#923) ;
#936=AXIS2_PLACEMENT_3D('Plane Axis2P3D',#933,#934,#935) ;
#40=PRODUCT_DEFINITION_SHAPE(' ',' ',#14) ;
#31=APPROVAL_PERSON_ORGANIZATION(#25,#21,#19) ;
#25=PERSON_AND_ORGANIZATION(#22,#23) ;
#22=PERSON(' ',' ',' ',$,$,$) ;
#23=ORGANIZATION(' ',' ',' ') ;
#21=APPROVAL(#20,' ') ;
#20=APPROVAL_STATUS('not_yet_approved') ;
#19=APPROVAL_ROLE('APPROVER') ;
#13=DATE_AND_TIME(#11,#12) ;
#12=LOCAL_TIME(16,26,32.,#10) ;
#10=COORDINATED_UNIVERSAL_TIME_OFFSET(0,0,.AHEAD.) ;
#93=ORIENTED_EDGE('',*,*,#65,.F.) ;
#94=ORIENTED_EDGE('',*,*,#72,.T.) ;
#95=ORIENTED_EDGE('',*,*,#79,.T.) ;
#96=ORIENTED_EDGE('',*,*,#86,.T.) ;
#97=ORIENTED_EDGE('',*,*,#91,.F.) ;
#118=ORIENTED_EDGE('',*,*,#86,.F.) ;
#119=ORIENTED_EDGE('',*,*,#106,.T.) ;
#120=ORIENTED_EDGE('',*,*,#111,.T.) ;
#121=ORIENTED_EDGE('',*,*,#65,.T.) ;
#122=ORIENTED_EDGE('',*,*,#116,.F.) ;
#131=ORIENTED_EDGE('',*,*,#91,.T.) ;
#132=ORIENTED_EDGE('',*,*,#116,.T.) ;
#176=ORIENTED_EDGE('',*,*,#148,.F.) ;
#177=ORIENTED_EDGE('',*,*,#155,.T.) ;
#178=ORIENTED_EDGE('',*,*,#162,.T.) ;
#179=ORIENTED_EDGE('',*,*,#169,.T.) ;
#180=ORIENTED_EDGE('',*,*,#174,.F.) ;
#201=ORIENTED_EDGE('',*,*,#169,.F.) ;
#202=ORIENTED_EDGE('',*,*,#189,.T.) ;
#203=ORIENTED_EDGE('',*,*,#194,.T.) ;
#204=ORIENTED_EDGE('',*,*,#148,.T.) ;
#205=ORIENTED_EDGE('',*,*,#199,.F.) ;
#209=ORIENTED_EDGE('',*,*,#174,.T.) ;
#210=ORIENTED_EDGE('',*,*,#199,.T.) ;
#247=ORIENTED_EDGE('',*,*,#226,.F.) ;
#248=ORIENTED_EDGE('',*,*,#233,.T.) ;
#249=ORIENTED_EDGE('',*,*,#240,.T.) ;
#250=ORIENTED_EDGE('',*,*,#245,.F.) ;
#371=ORIENTED_EDGE('',*,*,#266,.T.) ;
#372=ORIENTED_EDGE('',*,*,#273,.T.) ;
#373=ORIENTED_EDGE('',*,*,#280,.T.) ;
#374=ORIENTED_EDGE('',*,*,#287,.T.) ;
#375=ORIENTED_EDGE('',*,*,#294,.T.) ;
#376=ORIENTED_EDGE('',*,*,#301,.T.) ;
#377=ORIENTED_EDGE('',*,*,#308,.T.) ;
#378=ORIENTED_EDGE('',*,*,#315,.T.) ;
#379=ORIENTED_EDGE('',*,*,#322,.T.) ;
#380=ORIENTED_EDGE('',*,*,#329,.T.) ;
#381=ORIENTED_EDGE('',*,*,#336,.T.) ;
#382=ORIENTED_EDGE('',*,*,#343,.T.) ;
#383=ORIENTED_EDGE('',*,*,#350,.T.) ;
#384=ORIENTED_EDGE('',*,*,#357,.T.) ;
#385=ORIENTED_EDGE('',*,*,#364,.T.) ;
#386=ORIENTED_EDGE('',*,*,#369,.T.) ;
#408=ORIENTED_EDGE('',*,*,#394,.F.) ;
#409=ORIENTED_EDGE('',*,*,#401,.F.) ;
#410=ORIENTED_EDGE('',*,*,#406,.T.) ;
#411=ORIENTED_EDGE('',*,*,#226,.T.) ;
#446=ORIENTED_EDGE('',*,*,#406,.F.) ;
#447=ORIENTED_EDGE('',*,*,#425,.F.) ;
#448=ORIENTED_EDGE('',*,*,#432,.F.) ;
#449=ORIENTED_EDGE('',*,*,#439,.F.) ;
#450=ORIENTED_EDGE('',*,*,#444,.F.) ;
#451=ORIENTED_EDGE('',*,*,#233,.F.) ;
#472=ORIENTED_EDGE('',*,*,#240,.F.) ;
#473=ORIENTED_EDGE('',*,*,#444,.T.) ;
#474=ORIENTED_EDGE('',*,*,#465,.T.) ;
#475=ORIENTED_EDGE('',*,*,#470,.F.) ;
#503=ORIENTED_EDGE('',*,*,#245,.T.) ;
#504=ORIENTED_EDGE('',*,*,#470,.T.) ;
#505=ORIENTED_EDGE('',*,*,#489,.T.) ;
#506=ORIENTED_EDGE('',*,*,#496,.T.) ;
#507=ORIENTED_EDGE('',*,*,#501,.T.) ;
#508=ORIENTED_EDGE('',*,*,#394,.T.) ;
#536=ORIENTED_EDGE('',*,*,#522,.F.) ;
#537=ORIENTED_EDGE('',*,*,#529,.T.) ;
#538=ORIENTED_EDGE('',*,*,#534,.T.) ;
#539=ORIENTED_EDGE('',*,*,#266,.F.) ;
#560=ORIENTED_EDGE('',*,*,#534,.F.) ;
#561=ORIENTED_EDGE('',*,*,#553,.T.) ;
#562=ORIENTED_EDGE('',*,*,#558,.T.) ;
#563=ORIENTED_EDGE('',*,*,#273,.F.) ;
#584=ORIENTED_EDGE('',*,*,#558,.F.) ;
#585=ORIENTED_EDGE('',*,*,#577,.T.) ;
#586=ORIENTED_EDGE('',*,*,#582,.T.) ;
#587=ORIENTED_EDGE('',*,*,#280,.F.) ;
#613=ORIENTED_EDGE('',*,*,#599,.T.) ;
#614=ORIENTED_EDGE('',*,*,#287,.F.) ;
#615=ORIENTED_EDGE('',*,*,#582,.F.) ;
#616=ORIENTED_EDGE('',*,*,#606,.T.) ;
#617=ORIENTED_EDGE('',*,*,#611,.T.) ;
#618=ORIENTED_EDGE('',*,*,#155,.F.) ;
#619=ORIENTED_EDGE('',*,*,#194,.F.) ;
#635=ORIENTED_EDGE('',*,*,#611,.F.) ;
#636=ORIENTED_EDGE('',*,*,#628,.T.) ;
#637=ORIENTED_EDGE('',*,*,#633,.T.) ;
#638=ORIENTED_EDGE('',*,*,#294,.F.) ;
#639=ORIENTED_EDGE('',*,*,#599,.F.) ;
#640=ORIENTED_EDGE('',*,*,#189,.F.) ;
#641=ORIENTED_EDGE('',*,*,#162,.F.) ;
#662=ORIENTED_EDGE('',*,*,#633,.F.) ;
#663=ORIENTED_EDGE('',*,*,#655,.T.) ;
#664=ORIENTED_EDGE('',*,*,#660,.T.) ;
#665=ORIENTED_EDGE('',*,*,#301,.F.) ;
#686=ORIENTED_EDGE('',*,*,#660,.F.) ;
#687=ORIENTED_EDGE('',*,*,#679,.T.) ;
#688=ORIENTED_EDGE('',*,*,#684,.T.) ;
#689=ORIENTED_EDGE('',*,*,#308,.F.) ;
#705=ORIENTED_EDGE('',*,*,#684,.F.) ;
#706=ORIENTED_EDGE('',*,*,#698,.T.) ;
#707=ORIENTED_EDGE('',*,*,#703,.T.) ;
#708=ORIENTED_EDGE('',*,*,#315,.F.) ;
#729=ORIENTED_EDGE('',*,*,#703,.F.) ;
#730=ORIENTED_EDGE('',*,*,#722,.T.) ;
#731=ORIENTED_EDGE('',*,*,#727,.T.) ;
#732=ORIENTED_EDGE('',*,*,#322,.F.) ;
#753=ORIENTED_EDGE('',*,*,#739,.T.) ;
#754=ORIENTED_EDGE('',*,*,#329,.F.) ;
#755=ORIENTED_EDGE('',*,*,#727,.F.) ;
#756=ORIENTED_EDGE('',*,*,#746,.T.) ;
#757=ORIENTED_EDGE('',*,*,#751,.T.) ;
#758=ORIENTED_EDGE('',*,*,#106,.F.) ;
#759=ORIENTED_EDGE('',*,*,#79,.F.) ;
#775=ORIENTED_EDGE('',*,*,#751,.F.) ;
#776=ORIENTED_EDGE('',*,*,#768,.T.) ;
#777=ORIENTED_EDGE('',*,*,#773,.T.) ;
#778=ORIENTED_EDGE('',*,*,#336,.F.) ;
#779=ORIENTED_EDGE('',*,*,#739,.F.) ;
#780=ORIENTED_EDGE('',*,*,#72,.F.) ;
#781=ORIENTED_EDGE('',*,*,#111,.F.) ;
#802=ORIENTED_EDGE('',*,*,#773,.F.) ;
#803=ORIENTED_EDGE('',*,*,#795,.T.) ;
#804=ORIENTED_EDGE('',*,*,#800,.T.) ;
#805=ORIENTED_EDGE('',*,*,#343,.F.) ;
#821=ORIENTED_EDGE('',*,*,#800,.F.) ;
#822=ORIENTED_EDGE('',*,*,#814,.T.) ;
#823=ORIENTED_EDGE('',*,*,#819,.T.) ;
#824=ORIENTED_EDGE('',*,*,#350,.F.) ;
#845=ORIENTED_EDGE('',*,*,#819,.F.) ;
#846=ORIENTED_EDGE('',*,*,#838,.T.) ;
#847=ORIENTED_EDGE('',*,*,#843,.T.) ;
#848=ORIENTED_EDGE('',*,*,#357,.F.) ;
#869=ORIENTED_EDGE('',*,*,#843,.F.) ;
#870=ORIENTED_EDGE('',*,*,#862,.T.) ;
#871=ORIENTED_EDGE('',*,*,#867,.T.) ;
#872=ORIENTED_EDGE('',*,*,#364,.F.) ;
#881=ORIENTED_EDGE('',*,*,#867,.F.) ;
#882=ORIENTED_EDGE('',*,*,#879,.T.) ;
#883=ORIENTED_EDGE('',*,*,#522,.T.) ;
#884=ORIENTED_EDGE('',*,*,#369,.F.) ;
#898=ORIENTED_EDGE('',*,*,#896,.F.) ;
#899=ORIENTED_EDGE('',*,*,#425,.T.) ;
#900=ORIENTED_EDGE('',*,*,#401,.T.) ;
#901=ORIENTED_EDGE('',*,*,#501,.F.) ;
#915=ORIENTED_EDGE('',*,*,#465,.F.) ;
#916=ORIENTED_EDGE('',*,*,#439,.T.) ;
#917=ORIENTED_EDGE('',*,*,#913,.T.) ;
#918=ORIENTED_EDGE('',*,*,#489,.F.) ;
#927=ORIENTED_EDGE('',*,*,#913,.F.) ;
#928=ORIENTED_EDGE('',*,*,#432,.T.) ;
#929=ORIENTED_EDGE('',*,*,#896,.T.) ;
#930=ORIENTED_EDGE('',*,*,#496,.F.) ;
#939=ORIENTED_EDGE('',*,*,#879,.F.) ;
#940=ORIENTED_EDGE('',*,*,#862,.F.) ;
#941=ORIENTED_EDGE('',*,*,#838,.F.) ;
#942=ORIENTED_EDGE('',*,*,#814,.F.) ;
#943=ORIENTED_EDGE('',*,*,#795,.F.) ;
#944=ORIENTED_EDGE('',*,*,#768,.F.) ;
#945=ORIENTED_EDGE('',*,*,#746,.F.) ;
#946=ORIENTED_EDGE('',*,*,#722,.F.) ;
#947=ORIENTED_EDGE('',*,*,#698,.F.) ;
#948=ORIENTED_EDGE('',*,*,#679,.F.) ;
#949=ORIENTED_EDGE('',*,*,#655,.F.) ;
#950=ORIENTED_EDGE('',*,*,#628,.F.) ;
#951=ORIENTED_EDGE('',*,*,#606,.F.) ;
#952=ORIENTED_EDGE('',*,*,#577,.F.) ;
#953=ORIENTED_EDGE('',*,*,#553,.F.) ;
#954=ORIENTED_EDGE('',*,*,#529,.F.) ;
#412=FACE_BOUND('',#407,.T.) ;
#51=CLOSED_SHELL('Closed Shell',(#99,#124,#134,#182,#207,#212,#252,#413,#453,#477,#510,#541,#565,#589,#621,#643,#667,#691,#710,#734,#761,#783,#807,#826,#850,#874,#886,#903,#920,#932,#956)) ;
#59=VECTOR('Line Direction',#58,1.) ;
#82=VECTOR('Line Direction',#81,1.) ;
#142=VECTOR('Line Direction',#141,1.) ;
#165=VECTOR('Line Direction',#164,1.) ;
#220=VECTOR('Line Direction',#219,1.) ;
#229=VECTOR('Line Direction',#228,1.) ;
#236=VECTOR('Line Direction',#235,1.) ;
#243=VECTOR('Line Direction',#242,1.) ;
#260=VECTOR('Line Direction',#259,1.) ;
#269=VECTOR('Line Direction',#268,1.) ;
#276=VECTOR('Line Direction',#275,1.) ;
#283=VECTOR('Line Direction',#282,1.) ;
#290=VECTOR('Line Direction',#289,1.) ;
#297=VECTOR('Line Direction',#296,1.) ;
#304=VECTOR('Line Direction',#303,1.) ;
#311=VECTOR('Line Direction',#310,1.) ;
#318=VECTOR('Line Direction',#317,1.) ;
#325=VECTOR('Line Direction',#324,1.) ;
#332=VECTOR('Line Direction',#331,1.) ;
#339=VECTOR('Line Direction',#338,1.) ;
#346=VECTOR('Line Direction',#345,1.) ;
#353=VECTOR('Line Direction',#352,1.) ;
#360=VECTOR('Line Direction',#359,1.) ;
#367=VECTOR('Line Direction',#366,1.) ;
#390=VECTOR('Line Direction',#389,1.) ;
#397=VECTOR('Line Direction',#396,1.) ;
#404=VECTOR('Line Direction',#403,1.) ;
#421=VECTOR('Line Direction',#420,1.) ;
#428=VECTOR('Line Direction',#427,1.) ;
#435=VECTOR('Line Direction',#434,1.) ;
#442=VECTOR('Line Direction',#441,1.) ;
#461=VECTOR('Line Direction',#460,1.) ;
#468=VECTOR('Line Direction',#467,1.) ;
#485=VECTOR('Line Direction',#484,1.) ;
#492=VECTOR('Line Direction',#491,1.) ;
#499=VECTOR('Line Direction',#498,1.) ;
#518=VECTOR('Line Direction',#517,1.) ;
#525=VECTOR('Line Direction',#524,1.) ;
#532=VECTOR('Line Direction',#531,1.) ;
#549=VECTOR('Line Direction',#548,1.) ;
#556=VECTOR('Line Direction',#555,1.) ;
#573=VECTOR('Line Direction',#572,1.) ;
#580=VECTOR('Line Direction',#579,1.) ;
#597=VECTOR('Line Direction',#596,1.) ;
#602=VECTOR('Line Direction',#601,1.) ;
#609=VECTOR('Line Direction',#608,1.) ;
#624=VECTOR('Line Direction',#623,1.) ;
#631=VECTOR('Line Direction',#630,1.) ;
#651=VECTOR('Line Direction',#650,1.) ;
#658=VECTOR('Line Direction',#657,1.) ;
#675=VECTOR('Line Direction',#674,1.) ;
#682=VECTOR('Line Direction',#681,1.) ;
#694=VECTOR('Line Direction',#693,1.) ;
#701=VECTOR('Line Direction',#700,1.) ;
#718=VECTOR('Line Direction',#717,1.) ;
#725=VECTOR('Line Direction',#724,1.) ;
#737=VECTOR('Line Direction',#736,1.) ;
#742=VECTOR('Line Direction',#741,1.) ;
#749=VECTOR('Line Direction',#748,1.) ;
#764=VECTOR('Line Direction',#763,1.) ;
#771=VECTOR('Line Direction',#770,1.) ;
#791=VECTOR('Line Direction',#790,1.) ;
#798=VECTOR('Line Direction',#797,1.) ;
#810=VECTOR('Line Direction',#809,1.) ;
#817=VECTOR('Line Direction',#816,1.) ;
#834=VECTOR('Line Direction',#833,1.) ;
#841=VECTOR('Line Direction',#840,1.) ;
#858=VECTOR('Line Direction',#857,1.) ;
#865=VECTOR('Line Direction',#864,1.) ;
#877=VECTOR('Line Direction',#876,1.) ;
#894=VECTOR('Line Direction',#893,1.) ;
#911=VECTOR('Line Direction',#910,1.) ;
#958=ADVANCED_BREP_SHAPE_REPRESENTATION('NONE',(#957),#46) ;
#49=SHAPE_REPRESENTATION(' ',(#48),#46) ;
#99=ADVANCED_FACE('PartBody',(#98),#56,.T.) ;
#124=ADVANCED_FACE('PartBody',(#123),#56,.T.) ;
#134=ADVANCED_FACE('PartBody',(#133),#129,.T.) ;
#182=ADVANCED_FACE('PartBody',(#181),#139,.T.) ;
#207=ADVANCED_FACE('PartBody',(#206),#139,.T.) ;
#212=ADVANCED_FACE('PartBody',(#211),#129,.T.) ;
#252=ADVANCED_FACE('PartBody',(#251),#217,.T.) ;
#413=ADVANCED_FACE('PartBody',(#387,#412),#257,.T.) ;
#453=ADVANCED_FACE('PartBody',(#452),#418,.F.) ;
#477=ADVANCED_FACE('PartBody',(#476),#458,.T.) ;
#510=ADVANCED_FACE('PartBody',(#509),#482,.T.) ;
#541=ADVANCED_FACE('PartBody',(#540),#515,.T.) ;
#565=ADVANCED_FACE('PartBody',(#564),#546,.T.) ;
#589=ADVANCED_FACE('PartBody',(#588),#570,.T.) ;
#621=ADVANCED_FACE('PartBody',(#620),#594,.T.) ;
#643=ADVANCED_FACE('PartBody',(#642),#594,.T.) ;
#667=ADVANCED_FACE('PartBody',(#666),#648,.T.) ;
#691=ADVANCED_FACE('PartBody',(#690),#672,.T.) ;
#710=ADVANCED_FACE('PartBody',(#709),#672,.T.) ;
#734=ADVANCED_FACE('PartBody',(#733),#715,.F.) ;
#761=ADVANCED_FACE('PartBody',(#760),#594,.T.) ;
#783=ADVANCED_FACE('PartBody',(#782),#594,.T.) ;
#807=ADVANCED_FACE('PartBody',(#806),#788,.F.) ;
#826=ADVANCED_FACE('PartBody',(#825),#546,.T.) ;
#850=ADVANCED_FACE('PartBody',(#849),#831,.F.) ;
#874=ADVANCED_FACE('PartBody',(#873),#855,.T.) ;
#886=ADVANCED_FACE('PartBody',(#885),#855,.T.) ;
#903=ADVANCED_FACE('PartBody',(#902),#891,.T.) ;
#920=ADVANCED_FACE('PartBody',(#919),#908,.T.) ;
#932=ADVANCED_FACE('PartBody',(#931),#925,.T.) ;
#956=ADVANCED_FACE('PartBody',(#955),#937,.F.) ;
#4=APPLICATION_PROTOCOL_DEFINITION('international standard','config_control_design',1994,#1) ;
#32=APPROVAL_DATE_TIME(#13,#21) ;
#957=MANIFOLD_SOLID_BREP('PartBody',#51) ;
#11=CALENDAR_DATE(2026,6,7) ;
#30=CC_DESIGN_APPROVAL(#21,(#16,#6,#14)) ;
#18=CC_DESIGN_DATE_AND_TIME_ASSIGNMENT(#13,#17,(#16)) ;
#29=CC_DESIGN_DATE_AND_TIME_ASSIGNMENT(#13,#28,(#14)) ;
#17=DATE_TIME_ROLE('classification_date') ;
#28=DATE_TIME_ROLE('creation_date') ;
#27=CC_DESIGN_PERSON_AND_ORGANIZATION_ASSIGNMENT(#25,#26,(#16)) ;
#33=CC_DESIGN_PERSON_AND_ORGANIZATION_ASSIGNMENT(#25,#34,(#6)) ;
#35=CC_DESIGN_PERSON_AND_ORGANIZATION_ASSIGNMENT(#25,#36,(#6,#14)) ;
#37=CC_DESIGN_PERSON_AND_ORGANIZATION_ASSIGNMENT(#25,#38,(#5)) ;
#26=PERSON_AND_ORGANIZATION_ROLE('classification_officer') ;
#34=PERSON_AND_ORGANIZATION_ROLE('design_supplier') ;
#36=PERSON_AND_ORGANIZATION_ROLE('creator') ;
#38=PERSON_AND_ORGANIZATION_ROLE('design_owner') ;
#39=CC_DESIGN_SECURITY_CLASSIFICATION(#16,(#6)) ;
#69=CIRCLE('generated circle',#68,0.75) ;
#76=CIRCLE('generated circle',#75,0.75) ;
#90=CIRCLE('generated circle',#89,0.75) ;
#103=CIRCLE('generated circle',#102,0.75) ;
#110=CIRCLE('generated circle',#109,0.75) ;
#115=CIRCLE('generated circle',#114,0.75) ;
#152=CIRCLE('generated circle',#151,0.75) ;
#159=CIRCLE('generated circle',#158,0.75) ;
#173=CIRCLE('generated circle',#172,0.75) ;
#186=CIRCLE('generated circle',#185,0.75) ;
#193=CIRCLE('generated circle',#192,0.75) ;
#198=CIRCLE('generated circle',#197,0.75) ;
#959=SHAPE_REPRESENTATION_RELATIONSHIP(' ',' ',#49,#958) ;
#56=CYLINDRICAL_SURFACE('generated cylinder',#55,0.75) ;
#139=CYLINDRICAL_SURFACE('generated cylinder',#138,0.75) ;
#3=DESIGN_CONTEXT(' ',#1,'design') ;
#65=EDGE_CURVE('',#62,#64,#60,.T.) ;
#72=EDGE_CURVE('',#62,#71,#69,.T.) ;
#79=EDGE_CURVE('',#71,#78,#76,.T.) ;
#86=EDGE_CURVE('',#78,#85,#83,.T.) ;
#91=EDGE_CURVE('',#64,#85,#90,.T.) ;
#106=EDGE_CURVE('',#78,#105,#103,.T.) ;
#111=EDGE_CURVE('',#105,#62,#110,.T.) ;
#116=EDGE_CURVE('',#85,#64,#115,.T.) ;
#148=EDGE_CURVE('',#145,#147,#143,.T.) ;
#155=EDGE_CURVE('',#145,#154,#152,.T.) ;
#162=EDGE_CURVE('',#154,#161,#159,.T.) ;
#169=EDGE_CURVE('',#161,#168,#166,.T.) ;
#174=EDGE_CURVE('',#147,#168,#173,.T.) ;
#189=EDGE_CURVE('',#161,#188,#186,.T.) ;
#194=EDGE_CURVE('',#188,#145,#193,.T.) ;
#199=EDGE_CURVE('',#168,#147,#198,.T.) ;
#226=EDGE_CURVE('',#223,#225,#221,.T.) ;
#233=EDGE_CURVE('',#223,#232,#230,.T.) ;
#240=EDGE_CURVE('',#232,#239,#237,.T.) ;
#245=EDGE_CURVE('',#225,#239,#244,.T.) ;
#266=EDGE_CURVE('',#263,#265,#261,.T.) ;
#273=EDGE_CURVE('',#265,#272,#270,.T.) ;
#280=EDGE_CURVE('',#272,#279,#277,.T.) ;
#287=EDGE_CURVE('',#279,#286,#284,.T.) ;
#294=EDGE_CURVE('',#286,#293,#291,.T.) ;
#301=EDGE_CURVE('',#293,#300,#298,.T.) ;
#308=EDGE_CURVE('',#300,#307,#305,.T.) ;
#315=EDGE_CURVE('',#307,#314,#312,.F.) ;
#322=EDGE_CURVE('',#314,#321,#319,.F.) ;
#329=EDGE_CURVE('',#321,#328,#326,.F.) ;
#336=EDGE_CURVE('',#328,#335,#333,.F.) ;
#343=EDGE_CURVE('',#335,#342,#340,.F.) ;
#350=EDGE_CURVE('',#342,#349,#347,.F.) ;
#357=EDGE_CURVE('',#349,#356,#354,.F.) ;
#364=EDGE_CURVE('',#356,#363,#361,.T.) ;
#369=EDGE_CURVE('',#363,#263,#368,.F.) ;
#394=EDGE_CURVE('',#393,#225,#391,.T.) ;
#401=EDGE_CURVE('',#400,#393,#398,.T.) ;
#406=EDGE_CURVE('',#400,#223,#405,.T.) ;
#425=EDGE_CURVE('',#424,#400,#422,.T.) ;
#432=EDGE_CURVE('',#431,#424,#429,.T.) ;
#439=EDGE_CURVE('',#438,#431,#436,.T.) ;
#444=EDGE_CURVE('',#232,#438,#443,.T.) ;
#465=EDGE_CURVE('',#438,#464,#462,.T.) ;
#470=EDGE_CURVE('',#239,#464,#469,.T.) ;
#489=EDGE_CURVE('',#464,#488,#486,.T.) ;
#496=EDGE_CURVE('',#488,#495,#493,.T.) ;
#501=EDGE_CURVE('',#495,#393,#500,.T.) ;
#522=EDGE_CURVE('',#521,#263,#519,.T.) ;
#529=EDGE_CURVE('',#521,#528,#526,.T.) ;
#534=EDGE_CURVE('',#528,#265,#533,.T.) ;
#553=EDGE_CURVE('',#528,#552,#550,.T.) ;
#558=EDGE_CURVE('',#552,#272,#557,.T.) ;
#577=EDGE_CURVE('',#552,#576,#574,.T.) ;
#582=EDGE_CURVE('',#576,#279,#581,.T.) ;
#599=EDGE_CURVE('',#188,#286,#598,.T.) ;
#606=EDGE_CURVE('',#576,#605,#603,.T.) ;
#611=EDGE_CURVE('',#605,#154,#610,.T.) ;
#628=EDGE_CURVE('',#605,#627,#625,.T.) ;
#633=EDGE_CURVE('',#627,#293,#632,.T.) ;
#655=EDGE_CURVE('',#627,#654,#652,.T.) ;
#660=EDGE_CURVE('',#654,#300,#659,.T.) ;
#679=EDGE_CURVE('',#654,#678,#676,.T.) ;
#684=EDGE_CURVE('',#678,#307,#683,.T.) ;
#698=EDGE_CURVE('',#678,#697,#695,.F.) ;
#703=EDGE_CURVE('',#697,#314,#702,.T.) ;
#722=EDGE_CURVE('',#697,#721,#719,.F.) ;
#727=EDGE_CURVE('',#721,#321,#726,.T.) ;
#739=EDGE_CURVE('',#71,#328,#738,.T.) ;
#746=EDGE_CURVE('',#721,#745,#743,.F.) ;
#751=EDGE_CURVE('',#745,#105,#750,.T.) ;
#768=EDGE_CURVE('',#745,#767,#765,.F.) ;
#773=EDGE_CURVE('',#767,#335,#772,.T.) ;
#795=EDGE_CURVE('',#767,#794,#792,.F.) ;
#800=EDGE_CURVE('',#794,#342,#799,.T.) ;
#814=EDGE_CURVE('',#794,#813,#811,.F.) ;
#819=EDGE_CURVE('',#813,#349,#818,.T.) ;
#838=EDGE_CURVE('',#813,#837,#835,.F.) ;
#843=EDGE_CURVE('',#837,#356,#842,.T.) ;
#862=EDGE_CURVE('',#837,#861,#859,.T.) ;
#867=EDGE_CURVE('',#861,#363,#866,.T.) ;
#879=EDGE_CURVE('',#861,#521,#878,.F.) ;
#896=EDGE_CURVE('',#424,#495,#895,.T.) ;
#913=EDGE_CURVE('',#431,#488,#912,.T.) ;
#92=EDGE_LOOP('',(#93,#94,#95,#96,#97)) ;
#117=EDGE_LOOP('',(#118,#119,#120,#121,#122)) ;
#130=EDGE_LOOP('',(#131,#132)) ;
#175=EDGE_LOOP('',(#176,#177,#178,#179,#180)) ;
#200=EDGE_LOOP('',(#201,#202,#203,#204,#205)) ;
#208=EDGE_LOOP('',(#209,#210)) ;
#246=EDGE_LOOP('',(#247,#248,#249,#250)) ;
#370=EDGE_LOOP('',(#371,#372,#373,#374,#375,#376,#377,#378,#379,#380,#381,#382,#383,#384,#385,#386)) ;
#407=EDGE_LOOP('',(#408,#409,#410,#411)) ;
#445=EDGE_LOOP('',(#446,#447,#448,#449,#450,#451)) ;
#471=EDGE_LOOP('',(#472,#473,#474,#475)) ;
#502=EDGE_LOOP('',(#503,#504,#505,#506,#507,#508)) ;
#535=EDGE_LOOP('',(#536,#537,#538,#539)) ;
#559=EDGE_LOOP('',(#560,#561,#562,#563)) ;
#583=EDGE_LOOP('',(#584,#585,#586,#587)) ;
#612=EDGE_LOOP('',(#613,#614,#615,#616,#617,#618,#619)) ;
#634=EDGE_LOOP('',(#635,#636,#637,#638,#639,#640,#641)) ;
#661=EDGE_LOOP('',(#662,#663,#664,#665)) ;
#685=EDGE_LOOP('',(#686,#687,#688,#689)) ;
#704=EDGE_LOOP('',(#705,#706,#707,#708)) ;
#728=EDGE_LOOP('',(#729,#730,#731,#732)) ;
#752=EDGE_LOOP('',(#753,#754,#755,#756,#757,#758,#759)) ;
#774=EDGE_LOOP('',(#775,#776,#777,#778,#779,#780,#781)) ;
#801=EDGE_LOOP('',(#802,#803,#804,#805)) ;
#820=EDGE_LOOP('',(#821,#822,#823,#824)) ;
#844=EDGE_LOOP('',(#845,#846,#847,#848)) ;
#868=EDGE_LOOP('',(#869,#870,#871,#872)) ;
#880=EDGE_LOOP('',(#881,#882,#883,#884)) ;
#897=EDGE_LOOP('',(#898,#899,#900,#901)) ;
#914=EDGE_LOOP('',(#915,#916,#917,#918)) ;
#926=EDGE_LOOP('',(#927,#928,#929,#930)) ;
#938=EDGE_LOOP('',(#939,#940,#941,#942,#943,#944,#945,#946,#947,#948,#949,#950,#951,#952,#953,#954)) ;
#98=FACE_OUTER_BOUND('',#92,.T.) ;
#123=FACE_OUTER_BOUND('',#117,.T.) ;
#133=FACE_OUTER_BOUND('',#130,.T.) ;
#181=FACE_OUTER_BOUND('',#175,.T.) ;
#206=FACE_OUTER_BOUND('',#200,.T.) ;
#211=FACE_OUTER_BOUND('',#208,.T.) ;
#251=FACE_OUTER_BOUND('',#246,.T.) ;
#387=FACE_OUTER_BOUND('',#370,.T.) ;
#452=FACE_OUTER_BOUND('',#445,.T.) ;
#476=FACE_OUTER_BOUND('',#471,.T.) ;
#509=FACE_OUTER_BOUND('',#502,.T.) ;
#540=FACE_OUTER_BOUND('',#535,.T.) ;
#564=FACE_OUTER_BOUND('',#559,.T.) ;
#588=FACE_OUTER_BOUND('',#583,.T.) ;
#620=FACE_OUTER_BOUND('',#612,.T.) ;
#642=FACE_OUTER_BOUND('',#634,.T.) ;
#666=FACE_OUTER_BOUND('',#661,.T.) ;
#690=FACE_OUTER_BOUND('',#685,.T.) ;
#709=FACE_OUTER_BOUND('',#704,.T.) ;
#733=FACE_OUTER_BOUND('',#728,.T.) ;
#760=FACE_OUTER_BOUND('',#752,.T.) ;
#782=FACE_OUTER_BOUND('',#774,.T.) ;
#806=FACE_OUTER_BOUND('',#801,.T.) ;
#825=FACE_OUTER_BOUND('',#820,.T.) ;
#849=FACE_OUTER_BOUND('',#844,.T.) ;
#873=FACE_OUTER_BOUND('',#868,.T.) ;
#885=FACE_OUTER_BOUND('',#880,.T.) ;
#902=FACE_OUTER_BOUND('',#897,.T.) ;
#919=FACE_OUTER_BOUND('',#914,.T.) ;
#931=FACE_OUTER_BOUND('',#926,.T.) ;
#955=FACE_OUTER_BOUND('',#938,.T.) ;
#45=UNCERTAINTY_MEASURE_WITH_UNIT(LENGTH_MEASURE(0.005),#41,'distance_accuracy_value','CONFUSED CURVE UNCERTAINTY') ;
#60=LINE('Line',#57,#59) ;
#83=LINE('Line',#80,#82) ;
#143=LINE('Line',#140,#142) ;
#166=LINE('Line',#163,#165) ;
#221=LINE('Line',#218,#220) ;
#230=LINE('Line',#227,#229) ;
#237=LINE('Line',#234,#236) ;
#244=LINE('Line',#241,#243) ;
#261=LINE('Line',#258,#260) ;
#270=LINE('Line',#267,#269) ;
#277=LINE('Line',#274,#276) ;
#284=LINE('Line',#281,#283) ;
#291=LINE('Line',#288,#290) ;
#298=LINE('Line',#295,#297) ;
#305=LINE('Line',#302,#304) ;
#312=LINE('Line',#309,#311) ;
#319=LINE('Line',#316,#318) ;
#326=LINE('Line',#323,#325) ;
#333=LINE('Line',#330,#332) ;
#340=LINE('Line',#337,#339) ;
#347=LINE('Line',#344,#346) ;
#354=LINE('Line',#351,#353) ;
#361=LINE('Line',#358,#360) ;
#368=LINE('Line',#365,#367) ;
#391=LINE('Line',#388,#390) ;
#398=LINE('Line',#395,#397) ;
#405=LINE('Line',#402,#404) ;
#422=LINE('Line',#419,#421) ;
#429=LINE('Line',#426,#428) ;
#436=LINE('Line',#433,#435) ;
#443=LINE('Line',#440,#442) ;
#462=LINE('Line',#459,#461) ;
#469=LINE('Line',#466,#468) ;
#486=LINE('Line',#483,#485) ;
#493=LINE('Line',#490,#492) ;
#500=LINE('Line',#497,#499) ;
#519=LINE('Line',#516,#518) ;
#526=LINE('Line',#523,#525) ;
#533=LINE('Line',#530,#532) ;
#550=LINE('Line',#547,#549) ;
#557=LINE('Line',#554,#556) ;
#574=LINE('Line',#571,#573) ;
#581=LINE('Line',#578,#580) ;
#598=LINE('Line',#595,#597) ;
#603=LINE('Line',#600,#602) ;
#610=LINE('Line',#607,#609) ;
#625=LINE('Line',#622,#624) ;
#632=LINE('Line',#629,#631) ;
#652=LINE('Line',#649,#651) ;
#659=LINE('Line',#656,#658) ;
#676=LINE('Line',#673,#675) ;
#683=LINE('Line',#680,#682) ;
#695=LINE('Line',#692,#694) ;
#702=LINE('Line',#699,#701) ;
#719=LINE('Line',#716,#718) ;
#726=LINE('Line',#723,#725) ;
#738=LINE('Line',#735,#737) ;
#743=LINE('Line',#740,#742) ;
#750=LINE('Line',#747,#749) ;
#765=LINE('Line',#762,#764) ;
#772=LINE('Line',#769,#771) ;
#792=LINE('Line',#789,#791) ;
#799=LINE('Line',#796,#798) ;
#811=LINE('Line',#808,#810) ;
#818=LINE('Line',#815,#817) ;
#835=LINE('Line',#832,#834) ;
#842=LINE('Line',#839,#841) ;
#859=LINE('Line',#856,#858) ;
#866=LINE('Line',#863,#865) ;
#878=LINE('Line',#875,#877) ;
#895=LINE('Line',#892,#894) ;
#912=LINE('Line',#909,#911) ;
#2=MECHANICAL_CONTEXT(' ',#1,'mechanical') ;
#24=PERSONAL_ADDRESS(' ',' ',' ',' ',' ',' ',' ',' ',' ',' ',' ',' ',(#22),' ') ;
#129=PLANE('Plane',#128) ;
#217=PLANE('Plane',#216) ;
#257=PLANE('Plane',#256) ;
#418=PLANE('Plane',#417) ;
#458=PLANE('Plane',#457) ;
#482=PLANE('Plane',#481) ;
#515=PLANE('Plane',#514) ;
#546=PLANE('Plane',#545) ;
#570=PLANE('Plane',#569) ;
#594=PLANE('Plane',#593) ;
#648=PLANE('Plane',#647) ;
#672=PLANE('Plane',#671) ;
#715=PLANE('Plane',#714) ;
#788=PLANE('Plane',#787) ;
#831=PLANE('Plane',#830) ;
#855=PLANE('Plane',#854) ;
#891=PLANE('Plane',#890) ;
#908=PLANE('Plane',#907) ;
#925=PLANE('Plane',#924) ;
#937=PLANE('Plane',#936) ;
#43=PLANE_ANGLE_MEASURE_WITH_UNIT(PLANE_ANGLE_MEASURE(0.0174532925199),#42) ;
#7=PRODUCT_CATEGORY('part',$) ;
#9=PRODUCT_CATEGORY_RELATIONSHIP(' ',' ',#7,#8) ;
#6=PRODUCT_DEFINITION_FORMATION_WITH_SPECIFIED_SOURCE('',' ',#5,.NOT_KNOWN.) ;
#8=PRODUCT_RELATED_PRODUCT_CATEGORY('detail',$,(#5)) ;
#50=SHAPE_DEFINITION_REPRESENTATION(#40,#49) ;
#62=VERTEX_POINT('',#61) ;
#64=VERTEX_POINT('',#63) ;
#71=VERTEX_POINT('',#70) ;
#78=VERTEX_POINT('',#77) ;
#85=VERTEX_POINT('',#84) ;
#105=VERTEX_POINT('',#104) ;
#145=VERTEX_POINT('',#144) ;
#147=VERTEX_POINT('',#146) ;
#154=VERTEX_POINT('',#153) ;
#161=VERTEX_POINT('',#160) ;
#168=VERTEX_POINT('',#167) ;
#188=VERTEX_POINT('',#187) ;
#223=VERTEX_POINT('',#222) ;
#225=VERTEX_POINT('',#224) ;
#232=VERTEX_POINT('',#231) ;
#239=VERTEX_POINT('',#238) ;
#263=VERTEX_POINT('',#262) ;
#265=VERTEX_POINT('',#264) ;
#272=VERTEX_POINT('',#271) ;
#279=VERTEX_POINT('',#278) ;
#286=VERTEX_POINT('',#285) ;
#293=VERTEX_POINT('',#292) ;
#300=VERTEX_POINT('',#299) ;
#307=VERTEX_POINT('',#306) ;
#314=VERTEX_POINT('',#313) ;
#321=VERTEX_POINT('',#320) ;
#328=VERTEX_POINT('',#327) ;
#335=VERTEX_POINT('',#334) ;
#342=VERTEX_POINT('',#341) ;
#349=VERTEX_POINT('',#348) ;
#356=VERTEX_POINT('',#355) ;
#363=VERTEX_POINT('',#362) ;
#393=VERTEX_POINT('',#392) ;
#400=VERTEX_POINT('',#399) ;
#424=VERTEX_POINT('',#423) ;
#431=VERTEX_POINT('',#430) ;
#438=VERTEX_POINT('',#437) ;
#464=VERTEX_POINT('',#463) ;
#488=VERTEX_POINT('',#487) ;
#495=VERTEX_POINT('',#494) ;
#521=VERTEX_POINT('',#520) ;
#528=VERTEX_POINT('',#527) ;
#552=VERTEX_POINT('',#551) ;
#576=VERTEX_POINT('',#575) ;
#605=VERTEX_POINT('',#604) ;
#627=VERTEX_POINT('',#626) ;
#654=VERTEX_POINT('',#653) ;
#678=VERTEX_POINT('',#677) ;
#697=VERTEX_POINT('',#696) ;
#721=VERTEX_POINT('',#720) ;
#745=VERTEX_POINT('',#744) ;
#767=VERTEX_POINT('',#766) ;
#794=VERTEX_POINT('',#793) ;
#813=VERTEX_POINT('',#812) ;
#837=VERTEX_POINT('',#836) ;
#861=VERTEX_POINT('',#860) ;
#41=(LENGTH_UNIT()NAMED_UNIT(*)SI_UNIT(.MILLI.,.METRE.)) ;
#42=(NAMED_UNIT(*)PLANE_ANGLE_UNIT()SI_UNIT($,.RADIAN.)) ;
#44=(NAMED_UNIT(*)SI_UNIT($,.STERADIAN.)SOLID_ANGLE_UNIT()) ;
#46=(GEOMETRIC_REPRESENTATION_CONTEXT(3)GLOBAL_UNCERTAINTY_ASSIGNED_CONTEXT((#45))GLOBAL_UNIT_ASSIGNED_CONTEXT((#41,#42,#44))REPRESENTATION_CONTEXT(' ',' ')) ;
ENDSEC;
END-ISO-10303-21;
